<?xml version="1.0" encoding="UTF-8"?>
<svg width="30px" height="25px" viewBox="0 0 30 25" version="1.1" xmlns="http://www.w3.org/2000/svg" xmlns:xlink="http://www.w3.org/1999/xlink">
    <!-- Generator: Sketch 55.2 (78181) - https://sketchapp.com -->
    <title>Shape</title>
    <desc>Created with Sketch.</desc>
    <g id="Webhook" stroke="none" stroke-width="1" fill="none" fill-rule="evenodd">
        <g id="Final-Empty-Webhook-screen-V2" transform="translate(-15.000000, -185.000000)" fill="#4B615D" fill-rule="nonzero">
            <path d="M42.5769231,188.984375 L37.7091346,188.984375 L34.7956731,185.796875 C34.7956731,185.796875 34.78125,185.78125 34.7740385,185.78125 L34.7596154,185.765625 L34.7596154,185.765625 C34.3269231,185.296875 33.7427885,185 33.0793269,185 L27.0216346,185 C26.3149038,185 25.6875,185.328125 25.2475962,185.851562 L25.2475962,185.859375 L22.3990385,188.984375 L17.4230769,188.984375 C16.0817308,188.984375 15,190.125 15,191.578125 L15,207.367188 C15,208.820312 16.0817308,210 17.4230769,210 L42.5769231,210 C43.9110577,210 45,208.820312 45,207.367188 L45,191.578125 C45,190.125 43.9110577,188.984375 42.5769231,188.984375 Z M30.6317308,205.414062 C26.6480176,205.414062 23.4,202.625591 23.4,199.207031 C23.4,195.781769 26.6480176,193 30.6317308,193 C34.6232705,193 37.8634615,195.781769 37.8634615,199.207031 C37.8634615,202.625591 34.6232705,205.414062 30.6317308,205.414062 Z M42.1225962,193.164062 C41.5673077,193.164062 41.1129808,192.671875 41.1129808,192.0625 C41.1129808,191.453125 41.5673077,190.960938 42.1225962,190.960938 C42.6778846,190.960938 43.1322115,191.453125 43.1322115,192.0625 C43.1322115,192.671875 42.6778846,193.164062 42.1225962,193.164062 Z" id="Shape"></path>
        </g>
    </g>
</svg>