<?xml version="1.0" encoding="UTF-8"?>
<svg width="25px" height="25px" viewBox="0 0 25 25" version="1.1" xmlns="http://www.w3.org/2000/svg" xmlns:xlink="http://www.w3.org/1999/xlink">
    <!-- Generator: Sketch 55.2 (78181) - https://sketchapp.com -->
    <title>Shape</title>
    <desc>Created with Sketch.</desc>
    <g id="Webhook" stroke="none" stroke-width="1" fill="none" fill-rule="evenodd">
        <g id="Import-Hook-All-design-V2" transform="translate(-17.000000, -410.000000)" fill="#4B615D" fill-rule="nonzero">
            <path d="M40.2142857,418.326645 C40.7072173,418.326645 41.1280692,418.529932 41.4768415,418.936507 C41.8256138,419.343081 42,419.833681 42,420.408306 C42,420.982932 41.8256138,421.473531 41.4768415,421.880106 C41.1280692,422.28668 40.7072173,422.489968 40.2142857,422.489968 L40.2142857,428.734951 C40.2142857,429.298735 40.0375744,429.786624 39.6841518,430.19862 C39.3307292,430.610615 38.9122024,430.816613 38.4285714,430.816613 C34.5502232,427.054444 30.7741815,424.994466 27.1004464,424.636681 C26.5610119,424.842679 26.1378348,425.200464 25.8309152,425.710037 C25.5239955,426.219611 25.3798363,426.764421 25.3984375,427.344467 C25.4170387,427.924513 25.6030506,428.425955 25.9564732,428.848792 C25.7704613,429.206578 25.6635045,429.561653 25.6356027,429.914017 C25.6077009,430.266382 25.6356027,430.5808 25.719308,430.85727 C25.8030134,431.133741 25.9587984,431.431895 26.1866629,431.751734 C26.4145275,432.071573 26.6377418,432.342622 26.8563058,432.564883 C27.0748698,432.787144 27.3608631,433.060904 27.7142857,433.386163 C27.4445685,434.014999 26.9260603,434.464941 26.1587612,434.735991 C25.3914621,435.00704 24.6078869,435.069382 23.8080357,434.923015 C23.0081845,434.776648 22.3943452,434.475783 21.9665179,434.02042 C21.9014137,433.771054 21.7642299,433.296717 21.5549665,432.597409 C21.3457031,431.898101 21.1968936,431.385817 21.1085379,431.060557 C21.0201823,430.735298 20.9132254,430.252829 20.7876674,429.613152 C20.6621094,428.973475 20.5923549,428.425955 20.578404,427.970591 C20.5644531,427.515228 20.5807292,426.98126 20.6272321,426.368688 C20.6737351,425.756116 20.7760417,425.157096 20.9341518,424.571629 L19.2321429,424.571629 C18.6183036,424.571629 18.0928199,424.316842 17.655692,423.807269 C17.218564,423.297696 17,422.685123 17,421.969552 L17,418.84706 C17,418.131489 17.218564,417.518917 17.655692,417.009344 C18.0928199,416.49977 18.6183036,416.244984 19.2321429,416.244984 L25.9285714,416.244984 C29.9743304,416.244984 34.140997,414.163323 38.4285714,410 C38.9122024,410 39.3307292,410.205998 39.6841518,410.617993 C40.0375744,411.029989 40.2142857,411.517878 40.2142857,412.081661 L40.2142857,418.326645 Z M38.2962963,428.269231 L38.2962963,412.884615 C34.496142,416.131404 30.7924383,417.975192 27.1851852,418.415981 L27.1851852,422.770118 C30.8213735,423.221658 34.5250772,425.054695 38.2962963,428.269231 Z" id="Shape"></path>
        </g>
    </g>
</svg>