<svg id="svg" xmlns="http://www.w3.org/2000/svg" xmlns:xlink="http://www.w3.org/1999/xlink" width="400" height="359.5744680851064" viewBox="0, 0, 400,359.5744680851064"><g id="svgg"><path id="path0" d="M80.120 16.187 C 79.777 16.587,79.496 17.075,79.496 17.270 C 79.496 17.466,79.248 17.626,78.944 17.626 C 78.457 17.626,78.416 18.619,78.596 25.989 C 78.709 30.589,78.917 85.827,79.059 148.741 C 79.303 257.136,79.350 263.190,79.952 264.292 C 81.504 267.133,75.408 266.906,150.351 266.906 C 207.762 266.906,216.956 266.977,217.127 267.421 C 217.235 267.704,216.380 269.358,215.227 271.097 C 214.073 272.835,213.048 274.425,212.948 274.629 C 212.849 274.833,212.136 275.971,211.366 277.158 C 210.595 278.345,209.186 280.531,208.234 282.014 C 207.281 283.498,206.334 284.908,206.129 285.147 C 205.923 285.386,205.755 285.675,205.755 285.791 C 205.755 285.906,205.453 286.439,205.083 286.975 C 203.278 289.592,201.439 292.461,201.439 292.660 C 201.439 292.782,200.994 293.473,200.450 294.194 C 199.301 295.718,198.841 296.439,197.838 298.291 L 197.108 299.640 220.272 299.640 C 240.424 299.640,243.495 299.710,243.885 300.180 C 244.271 300.645,246.585 300.719,260.656 300.719 L 276.978 300.719 276.978 299.504 C 276.978 298.836,276.736 298.088,276.439 297.842 C 276.142 297.595,275.899 297.196,275.899 296.954 C 275.899 296.370,274.864 294.314,274.438 294.051 C 274.252 293.936,274.101 293.548,274.101 293.188 C 274.101 292.829,273.858 292.333,273.561 292.086 C 273.264 291.840,273.022 291.354,273.022 291.007 C 273.022 290.660,272.779 290.174,272.482 289.928 C 272.185 289.682,271.942 289.171,271.942 288.794 C 271.942 288.416,271.700 288.014,271.403 287.900 C 271.106 287.786,270.863 287.305,270.863 286.832 C 270.863 286.307,270.653 285.971,270.324 285.971 C 269.964 285.971,269.784 285.612,269.784 284.892 C 269.784 284.173,269.604 283.813,269.245 283.813 C 268.885 283.813,268.705 283.453,268.705 282.734 C 268.705 282.014,268.525 281.655,268.165 281.655 C 267.806 281.655,267.626 281.295,267.626 280.576 C 267.626 279.856,267.446 279.496,267.086 279.496 C 266.727 279.496,266.547 279.137,266.547 278.417 C 266.547 277.698,266.367 277.338,266.007 277.338 C 265.647 277.338,265.468 276.978,265.468 276.259 C 265.468 275.540,265.288 275.180,264.928 275.180 C 264.568 275.180,264.388 274.820,264.388 274.101 C 264.388 273.381,264.209 273.022,263.849 273.022 C 263.489 273.022,263.309 272.662,263.309 271.942 C 263.309 271.223,263.129 270.863,262.770 270.863 C 262.410 270.863,262.230 270.504,262.230 269.784 C 262.230 269.065,262.050 268.705,261.691 268.705 C 261.394 268.705,261.151 268.462,261.151 268.165 C 261.151 267.688,269.006 267.626,329.688 267.626 C 390.277 267.626,398.248 267.563,398.431 267.086 C 398.545 266.790,398.845 266.547,399.097 266.547 C 399.974 266.547,399.990 264.275,399.990 141.547 C 399.990 18.818,399.974 16.547,399.097 16.547 C 398.845 16.547,398.545 16.304,398.431 16.007 C 398.176 15.343,244.687 15.169,244.024 15.832 C 243.780 16.076,231.183 16.136,205.912 16.011 C 79.416 15.390,80.804 15.388,80.120 16.187 M244.065 21.583 C 244.212 21.821,269.668 21.942,319.266 21.942 L 394.245 21.942 394.245 111.331 L 394.245 200.719 353.394 200.719 C 321.372 200.719,312.373 200.622,311.757 200.270 C 311.148 199.921,303.492 199.795,277.698 199.710 L 244.424 199.600 244.065 200.429 L 243.705 201.259 164.388 201.246 C 120.764 201.240,84.789 201.123,84.442 200.988 C 83.703 200.699,83.434 33.370,84.173 32.914 C 84.386 32.782,84.532 30.512,84.532 27.317 L 84.532 21.942 110.342 21.907 C 124.537 21.887,136.556 21.741,137.050 21.583 C 138.415 21.146,243.795 21.146,244.065 21.583 M244.874 84.780 C 244.528 84.871,244.245 85.178,244.245 85.463 C 244.245 86.004,242.237 87.406,241.460 87.409 C 240.754 87.411,237.410 88.952,237.410 89.276 C 237.410 89.437,237.185 89.568,236.909 89.568 C 235.506 89.568,230.840 96.167,230.041 99.281 C 229.915 99.775,229.667 100.504,229.492 100.899 C 227.875 104.542,227.883 122.133,229.502 124.281 C 229.651 124.478,229.886 125.169,230.024 125.814 C 230.796 129.424,234.987 135.010,238.006 136.452 C 238.766 136.815,239.847 137.342,240.407 137.621 C 240.967 137.901,241.813 138.129,242.287 138.129 C 242.809 138.129,243.381 138.484,243.738 139.029 C 244.474 140.151,255.755 140.489,255.755 139.388 C 255.755 138.989,256.175 138.849,257.374 138.849 C 258.573 138.849,258.993 138.709,258.993 138.309 C 258.993 137.972,259.334 137.770,259.903 137.770 C 260.404 137.770,260.907 137.527,261.021 137.230 C 261.135 136.933,261.454 136.691,261.729 136.691 C 262.005 136.691,262.230 136.448,262.230 136.151 C 262.230 135.854,262.473 135.612,262.770 135.612 C 263.067 135.612,263.309 135.369,263.309 135.072 C 263.309 134.775,263.552 134.532,263.849 134.532 C 264.146 134.532,264.388 134.290,264.388 133.993 C 264.388 133.696,264.631 133.453,264.928 133.453 C 265.225 133.453,265.468 133.280,265.468 133.068 C 265.468 132.856,265.710 132.440,266.007 132.143 C 266.304 131.846,266.547 131.291,266.547 130.910 C 266.547 130.528,266.790 130.216,267.086 130.216 C 267.441 130.216,267.626 129.861,267.626 129.181 C 267.626 128.611,267.869 127.944,268.165 127.698 C 268.462 127.452,268.705 126.773,268.705 126.189 C 268.705 125.606,268.948 124.886,269.245 124.589 C 269.633 124.201,269.784 123.256,269.784 121.227 C 269.784 119.289,269.925 118.358,270.234 118.256 C 270.567 118.145,270.683 116.719,270.683 112.770 C 270.683 108.822,270.567 107.396,270.234 107.284 C 269.921 107.180,269.784 106.207,269.784 104.095 C 269.784 101.726,269.665 101.011,269.245 100.850 C 268.892 100.714,268.705 100.154,268.705 99.231 C 268.705 98.308,268.518 97.747,268.165 97.612 C 267.858 97.494,267.626 96.958,267.626 96.364 C 267.626 95.679,267.442 95.324,267.086 95.324 C 266.727 95.324,266.547 94.964,266.547 94.245 C 266.547 93.525,266.367 93.165,266.007 93.165 C 265.710 93.165,265.468 92.959,265.468 92.706 C 265.468 92.453,264.982 91.715,264.388 91.065 C 263.795 90.415,263.309 89.728,263.309 89.537 C 263.309 89.347,262.824 89.094,262.230 88.975 C 261.637 88.856,261.151 88.536,261.151 88.264 C 261.151 87.992,260.926 87.770,260.650 87.770 C 260.374 87.770,260.056 87.527,259.942 87.230 C 259.823 86.922,259.287 86.691,258.688 86.691 C 258.113 86.691,257.441 86.448,257.194 86.151 C 256.896 85.792,256.090 85.612,254.786 85.612 C 253.524 85.612,252.634 85.420,252.287 85.072 C 251.763 84.548,246.549 84.343,244.874 84.780 M300.270 84.780 C 299.924 84.871,299.640 85.262,299.640 85.649 C 299.640 86.037,299.397 86.447,299.101 86.561 C 298.804 86.674,298.561 86.993,298.561 87.269 C 298.561 87.544,298.318 87.770,298.022 87.770 C 297.725 87.770,297.482 87.995,297.482 88.271 C 297.482 88.546,297.239 88.865,296.942 88.979 C 296.646 89.093,296.403 89.596,296.403 90.097 C 296.403 90.666,296.201 91.007,295.863 91.007 C 295.567 91.007,295.324 91.250,295.324 91.547 C 295.324 91.844,295.081 92.086,294.784 92.086 C 294.487 92.086,294.245 92.309,294.245 92.582 C 294.245 92.854,294.002 93.279,293.705 93.525 C 293.408 93.771,293.165 94.277,293.165 94.648 C 293.165 95.020,292.923 95.324,292.626 95.324 C 292.329 95.324,292.086 95.567,292.086 95.863 C 292.086 96.160,291.844 96.403,291.547 96.403 C 291.250 96.403,291.007 96.707,291.007 97.078 C 291.007 97.450,290.764 97.955,290.468 98.201 C 290.171 98.448,289.928 98.872,289.928 99.145 C 289.928 99.417,289.685 99.640,289.388 99.640 C 289.092 99.640,288.849 99.866,288.849 100.141 C 288.849 100.417,288.606 100.736,288.309 100.850 C 288.013 100.963,287.770 101.466,287.770 101.967 C 287.770 102.537,287.568 102.878,287.230 102.878 C 286.933 102.878,286.691 103.121,286.691 103.417 C 286.691 103.714,286.448 103.957,286.151 103.957 C 285.854 103.957,285.612 104.130,285.612 104.342 C 285.612 104.554,285.369 104.970,285.072 105.267 C 284.775 105.564,284.532 106.119,284.532 106.501 C 284.532 106.882,284.330 107.195,284.083 107.195 C 283.835 107.195,283.067 108.041,282.374 109.075 C 281.682 110.109,280.751 111.300,280.306 111.723 C 279.861 112.146,279.496 112.919,279.496 113.441 C 279.496 114.043,279.300 114.388,278.957 114.388 C 278.660 114.388,278.417 114.631,278.417 114.928 C 278.417 115.225,278.174 115.468,277.878 115.468 C 277.581 115.468,277.338 115.693,277.338 115.969 C 277.338 116.244,277.095 116.563,276.799 116.677 C 276.346 116.851,276.259 117.956,276.259 123.550 L 276.259 130.216 288.489 130.216 L 300.719 130.216 300.719 135.072 L 300.719 139.928 308.094 139.928 L 315.468 139.928 315.468 135.072 L 315.468 130.216 318.714 130.216 L 321.959 130.216 321.861 124.011 L 321.763 117.806 318.615 117.702 L 315.468 117.598 315.468 101.287 L 315.468 84.976 314.658 84.759 C 313.735 84.512,301.227 84.530,300.270 84.780 M200.989 86.579 C 200.643 86.669,200.360 86.892,200.360 87.074 C 200.360 87.347,195.101 94.658,193.344 96.829 C 193.074 97.162,192.561 97.890,192.203 98.447 C 191.703 99.225,185.227 108.091,181.564 113.013 C 181.317 113.344,180.872 113.966,180.576 114.395 C 180.279 114.824,179.348 116.128,178.507 117.294 L 176.978 119.413 176.978 124.455 L 176.978 129.496 188.873 129.496 C 203.437 129.496,202.158 128.992,202.158 134.734 L 202.158 139.226 208.004 139.128 L 213.849 139.029 213.951 134.735 C 214.075 129.515,214.087 129.496,217.500 129.496 L 220.164 129.496 220.064 124.371 L 219.964 119.245 217.461 119.137 C 213.730 118.975,214.029 120.424,214.029 102.512 C 214.029 88.487,213.967 86.744,213.460 86.549 C 212.814 86.301,201.953 86.327,200.989 86.579 M252.500 100.595 C 253.000 101.059,253.533 101.439,253.683 101.439 C 253.834 101.439,253.957 101.763,253.957 102.158 C 253.957 102.554,254.119 102.878,254.317 102.878 C 254.514 102.878,254.676 103.692,254.676 104.688 C 254.676 105.964,254.835 106.558,255.216 106.704 C 255.662 106.876,255.755 107.841,255.755 112.294 C 255.755 116.600,255.647 117.785,255.216 118.217 C 254.899 118.534,254.676 119.413,254.676 120.349 C 254.676 121.226,254.514 121.942,254.317 121.942 C 254.119 121.942,253.957 122.428,253.957 123.022 C 253.957 123.741,253.777 124.101,253.417 124.101 C 253.121 124.101,252.878 124.344,252.878 124.640 C 252.878 124.937,252.574 125.180,252.202 125.180 C 251.831 125.180,251.325 125.423,251.079 125.719 C 250.418 126.517,246.043 126.487,246.043 125.686 C 246.043 125.209,245.756 125.152,244.335 125.346 C 242.460 125.603,242.301 125.439,241.016 121.942 C 239.836 118.728,239.730 106.080,240.865 103.885 C 241.141 103.351,241.367 102.656,241.367 102.341 C 241.367 100.727,243.535 99.079,244.169 100.212 C 244.455 100.723,244.546 100.726,245.036 100.237 C 246.196 99.076,251.117 99.312,252.500 100.595 M203.237 109.615 C 203.237 119.949,203.900 119.065,196.156 119.065 C 189.402 119.065,189.163 118.948,190.875 116.485 C 191.442 115.669,192.068 114.743,192.266 114.426 C 192.464 114.108,192.828 113.719,193.076 113.561 C 193.323 113.403,193.528 113.079,193.531 112.842 C 193.534 112.604,193.979 111.901,194.520 111.278 C 195.061 110.655,195.746 109.788,196.043 109.352 C 199.869 103.728,202.295 100.899,202.947 101.302 C 203.107 101.400,203.237 105.142,203.237 109.615 M301.799 110.612 L 301.799 117.626 296.942 117.626 C 292.866 117.626,292.086 117.539,292.086 117.086 C 292.086 116.790,292.329 116.547,292.626 116.547 C 292.923 116.547,293.165 116.304,293.165 116.007 C 293.165 115.710,293.408 115.468,293.705 115.468 C 294.002 115.468,294.245 115.245,294.245 114.972 C 294.245 114.700,294.487 114.275,294.784 114.029 C 295.081 113.782,295.324 113.277,295.324 112.906 C 295.324 112.534,295.567 112.230,295.863 112.230 C 296.160 112.230,296.403 111.987,296.403 111.691 C 296.403 111.394,296.556 111.151,296.743 111.151 C 297.079 111.151,297.966 109.767,298.414 108.543 C 298.541 108.197,298.869 107.914,299.143 107.914 C 299.416 107.914,299.640 107.671,299.640 107.374 C 299.640 107.077,299.802 106.835,300.000 106.835 C 300.198 106.835,300.360 106.349,300.360 105.755 C 300.360 105.036,300.540 104.676,300.899 104.676 C 301.196 104.676,301.439 104.433,301.439 104.137 C 301.439 103.840,301.520 103.597,301.619 103.597 C 301.718 103.597,301.799 106.754,301.799 110.612 M197.042 205.984 C 222.618 206.111,243.630 206.354,243.736 206.524 C 243.841 206.695,261.036 206.837,281.946 206.840 C 302.856 206.843,319.752 206.980,319.492 207.145 C 318.509 207.768,325.907 207.909,359.622 207.912 L 394.245 207.914 394.245 234.712 L 394.245 261.511 326.079 261.511 C 265.727 261.511,257.914 261.449,257.914 260.971 C 257.914 259.940,244.489 260.195,243.796 261.239 L 243.260 262.047 164.440 262.179 C 121.090 262.251,85.214 262.208,84.717 262.084 L 83.813 261.857 83.813 234.058 C 83.813 212.309,83.911 206.157,84.263 205.789 C 84.629 205.405,90.779 205.359,117.626 205.536 C 135.728 205.656,171.466 205.857,197.042 205.984 M244.065 267.266 C 244.193 267.474,246.107 267.626,248.582 267.626 L 252.878 267.626 252.878 268.536 C 252.878 269.037,253.121 269.540,253.417 269.654 C 253.714 269.768,253.957 270.249,253.957 270.722 C 253.957 271.195,254.119 271.583,254.317 271.583 C 254.514 271.583,254.676 271.895,254.676 272.276 C 254.676 272.658,254.919 273.213,255.216 273.510 C 255.513 273.807,255.755 274.284,255.755 274.571 C 255.755 274.857,255.998 275.293,256.295 275.540 C 256.592 275.786,256.835 276.191,256.835 276.439 C 256.835 276.687,257.077 277.092,257.374 277.338 C 257.671 277.584,257.914 278.070,257.914 278.417 C 257.914 278.765,258.156 279.250,258.453 279.496 C 258.750 279.743,258.993 280.228,258.993 280.576 C 258.993 280.923,259.236 281.408,259.532 281.655 C 259.829 281.901,260.072 282.406,260.072 282.778 C 260.072 283.149,260.315 283.453,260.612 283.453 C 260.971 283.453,261.151 283.813,261.151 284.532 C 261.151 285.252,261.331 285.612,261.691 285.612 C 262.050 285.612,262.230 285.971,262.230 286.691 C 262.230 287.410,262.410 287.770,262.770 287.770 C 263.129 287.770,263.309 288.129,263.309 288.849 C 263.309 289.568,263.489 289.928,263.849 289.928 C 264.209 289.928,264.388 290.288,264.388 291.007 C 264.388 291.727,264.568 292.086,264.928 292.086 C 265.225 292.086,265.468 292.329,265.468 292.626 C 265.468 293.093,264.052 293.165,254.881 293.165 L 244.295 293.165 244.180 293.975 L 244.065 294.784 225.260 294.877 C 204.134 294.982,205.181 295.128,207.057 292.347 C 208.284 290.529,208.875 289.575,209.224 288.849 C 209.492 288.292,210.833 286.289,211.151 285.971 C 211.469 285.653,212.222 284.376,212.582 283.543 C 212.774 283.098,213.098 282.734,213.300 282.734 C 213.503 282.734,213.669 282.555,213.669 282.336 C 213.669 282.118,214.155 281.219,214.748 280.340 C 215.342 279.460,215.827 278.678,215.827 278.602 C 215.827 278.525,216.556 277.399,217.446 276.098 C 218.336 274.798,219.065 273.574,219.065 273.378 C 219.065 273.182,219.186 273.021,219.335 273.021 C 219.483 273.021,220.054 272.252,220.603 271.313 C 221.905 269.085,222.369 268.363,223.012 267.564 C 223.622 266.806,243.606 266.523,244.065 267.266 " stroke="none" fill="#2d4d06" fill-rule="evenodd"></path><path id="path1" d="M237.770 0.360 C 237.770 0.563,236.747 0.719,235.420 0.719 C 233.664 0.719,233.019 0.856,232.864 1.259 C 232.713 1.652,232.094 1.799,230.581 1.799 C 229.175 1.799,228.361 1.973,228.058 2.338 C 227.752 2.706,226.935 2.878,225.484 2.878 C 223.927 2.878,223.303 3.022,223.152 3.417 C 222.994 3.829,222.321 3.957,220.315 3.957 C 218.869 3.957,217.632 4.098,217.566 4.270 C 217.500 4.443,216.399 4.670,215.119 4.775 C 213.840 4.881,212.734 5.144,212.661 5.361 C 212.587 5.586,211.644 5.755,210.470 5.755 C 209.216 5.755,208.138 5.962,207.713 6.284 C 207.328 6.574,206.206 6.822,205.216 6.835 C 204.225 6.847,203.104 7.095,202.719 7.386 C 202.322 7.686,201.248 7.914,200.229 7.914 C 199.217 7.914,198.191 8.130,197.870 8.412 C 197.558 8.686,196.175 8.991,194.798 9.090 C 193.421 9.189,192.234 9.450,192.160 9.671 C 192.081 9.909,191.108 10.072,189.762 10.072 C 188.189 10.072,187.362 10.236,187.050 10.612 C 186.771 10.948,185.976 11.152,184.938 11.153 C 184.022 11.155,182.810 11.397,182.243 11.693 C 181.676 11.988,180.410 12.230,179.430 12.230 C 178.324 12.230,177.441 12.435,177.107 12.770 C 176.750 13.127,175.853 13.309,174.453 13.309 C 172.980 13.309,172.249 13.468,172.046 13.831 C 171.846 14.189,170.976 14.386,169.269 14.460 C 167.683 14.529,166.730 14.731,166.635 15.018 C 166.517 15.376,174.423 15.468,205.366 15.468 L 244.245 15.468 244.245 7.734 L 244.245 0.000 241.007 0.000 C 239.089 0.000,237.770 0.147,237.770 0.360 M134.562 21.917 C 132.037 22.055,130.765 22.269,130.665 22.572 C 130.568 22.863,129.779 23.022,128.431 23.022 C 127.017 23.022,126.203 23.195,125.899 23.561 C 125.587 23.938,124.758 24.101,123.157 24.101 C 121.358 24.101,120.863 24.217,120.863 24.640 C 120.863 25.072,120.324 25.180,118.165 25.180 C 116.007 25.180,115.468 25.288,115.468 25.719 C 115.468 26.147,114.952 26.259,112.988 26.259 C 111.116 26.259,110.458 26.391,110.302 26.799 C 110.147 27.202,109.500 27.338,107.734 27.338 C 105.967 27.338,105.321 27.474,105.166 27.878 C 105.015 28.271,104.397 28.417,102.883 28.417 C 101.477 28.417,100.663 28.591,100.360 28.957 C 100.047 29.333,99.218 29.496,97.618 29.496 C 95.818 29.496,95.324 29.613,95.324 30.036 C 95.324 30.467,94.788 30.576,92.656 30.576 C 91.189 30.576,89.934 30.725,89.868 30.907 C 89.802 31.089,88.858 31.280,87.770 31.331 C 86.682 31.383,85.508 31.597,85.162 31.806 C 84.565 32.168,84.532 36.568,84.532 116.094 L 84.532 200.000 121.493 200.006 C 141.821 200.010,177.536 200.171,200.860 200.365 C 241.035 200.699,243.293 200.684,243.745 200.089 C 244.132 199.579,244.224 193.864,244.233 169.776 L 244.245 140.092 243.076 139.493 C 242.433 139.164,241.340 138.783,240.647 138.647 C 239.955 138.510,239.308 138.298,239.209 138.174 C 239.110 138.051,238.381 137.627,237.590 137.233 C 236.059 136.470,232.162 132.727,231.615 131.494 C 231.435 131.088,230.891 130.108,230.407 129.317 C 229.924 128.525,229.521 127.452,229.512 126.933 C 229.503 126.413,229.254 125.786,228.957 125.540 C 228.635 125.272,228.417 124.486,228.417 123.589 C 228.417 122.763,228.215 121.884,227.968 121.637 C 227.633 121.302,227.518 118.988,227.518 112.590 C 227.518 106.192,227.633 103.878,227.968 103.543 C 228.215 103.296,228.417 102.417,228.417 101.591 C 228.417 100.694,228.635 99.908,228.957 99.640 C 229.254 99.394,229.496 98.747,229.496 98.201 C 229.496 97.656,229.739 97.009,230.036 96.763 C 230.333 96.516,230.576 96.031,230.576 95.683 C 230.576 95.336,230.818 94.851,231.115 94.604 C 231.412 94.358,231.655 93.963,231.655 93.727 C 231.655 92.524,238.030 87.050,239.430 87.050 C 239.730 87.050,240.329 86.859,240.761 86.624 C 241.193 86.390,242.113 86.104,242.806 85.988 L 244.065 85.779 244.065 53.771 L 244.065 21.763 191.187 21.737 C 162.104 21.723,136.623 21.804,134.562 21.917 M75.180 33.993 C 74.876 34.359,74.061 34.532,72.644 34.532 C 71.267 34.532,70.371 34.716,70.015 35.072 C 69.645 35.443,68.732 35.612,67.101 35.612 C 65.321 35.612,64.674 35.747,64.519 36.151 C 64.364 36.553,63.723 36.691,62.001 36.691 C 60.278 36.691,59.637 36.828,59.483 37.230 C 59.332 37.623,58.716 37.770,57.225 37.770 C 55.978 37.770,54.900 37.977,54.475 38.298 C 54.070 38.604,52.972 38.831,51.863 38.837 C 50.654 38.845,49.750 39.048,49.409 39.388 C 49.050 39.747,48.152 39.928,46.726 39.928 C 45.152 39.928,44.527 40.072,44.375 40.468 C 44.218 40.875,43.559 41.007,41.677 41.007 C 39.795 41.007,39.135 41.139,38.979 41.547 C 38.825 41.948,38.187 42.086,36.490 42.086 C 34.929 42.086,34.118 42.243,33.921 42.583 C 33.736 42.902,32.744 43.134,31.138 43.233 C 29.652 43.325,28.585 43.561,28.500 43.816 C 28.412 44.082,27.565 44.245,26.273 44.245 C 24.859 44.245,24.045 44.418,23.741 44.784 C 23.429 45.161,22.599 45.324,20.999 45.324 C 19.200 45.324,18.705 45.440,18.705 45.863 C 18.705 46.291,18.187 46.403,16.205 46.403 C 14.387 46.403,13.625 46.546,13.411 46.928 C 13.206 47.295,12.393 47.473,10.712 47.519 C 9.183 47.561,8.334 47.730,8.381 47.983 C 8.426 48.233,7.562 48.421,6.056 48.487 C 4.505 48.555,3.506 48.777,3.224 49.116 C 2.980 49.410,2.177 49.640,1.395 49.640 L 0.000 49.640 0.000 204.676 L 0.000 359.712 2.068 359.691 C 4.879 359.662,7.674 359.171,7.838 358.679 C 7.913 358.456,8.575 358.273,9.311 358.273 C 10.046 358.273,10.832 358.089,11.057 357.863 C 11.283 357.638,12.314 357.320,13.349 357.156 C 14.384 356.992,15.336 356.687,15.466 356.478 C 15.595 356.269,16.298 356.076,17.027 356.048 C 17.757 356.021,18.534 355.782,18.754 355.517 C 18.985 355.238,19.875 355.036,20.869 355.036 C 22.062 355.036,22.648 354.872,22.792 354.496 C 22.937 354.118,23.528 353.957,24.770 353.957 C 26.013 353.957,26.604 353.796,26.749 353.417 C 26.890 353.051,27.464 352.878,28.542 352.878 C 29.513 352.878,30.301 352.668,30.576 352.338 C 30.862 351.993,31.657 351.799,32.778 351.799 C 34.098 351.799,34.532 351.665,34.532 351.259 C 34.532 350.766,36.356 350.473,38.044 350.694 C 38.294 350.726,38.595 350.503,38.712 350.197 C 38.866 349.797,39.434 349.640,40.736 349.640 C 41.902 349.640,42.689 349.453,42.946 349.115 C 43.184 348.801,44.071 348.556,45.144 348.508 C 46.133 348.463,47.104 348.221,47.302 347.969 C 47.500 347.717,48.512 347.476,49.550 347.432 C 50.836 347.379,51.439 347.202,51.439 346.878 C 51.439 346.538,52.044 346.403,53.571 346.403 C 54.987 346.403,55.885 346.222,56.244 345.863 C 56.592 345.515,57.481 345.324,58.749 345.324 C 60.164 345.324,60.772 345.173,60.921 344.784 C 61.071 344.394,61.683 344.245,63.129 344.245 C 64.576 344.245,65.188 344.095,65.338 343.705 C 65.491 343.304,66.130 343.165,67.826 343.165 C 69.440 343.165,70.193 343.014,70.399 342.646 C 70.589 342.307,71.433 342.089,72.845 342.017 C 74.332 341.941,74.972 341.767,74.910 341.457 C 74.845 341.129,75.552 341.007,77.518 341.007 C 79.676 341.007,80.216 340.899,80.216 340.468 C 80.216 340.036,80.755 339.928,82.914 339.928 C 85.036 339.928,85.612 339.816,85.612 339.404 C 85.612 339.004,86.224 338.856,88.219 338.775 C 90.071 338.700,90.801 338.539,90.737 338.219 C 90.673 337.896,91.319 337.770,93.047 337.770 C 94.633 337.770,95.641 337.594,96.020 337.251 C 96.405 336.903,97.563 336.709,99.539 336.661 C 101.468 336.615,102.459 336.452,102.411 336.191 C 102.364 335.930,103.400 335.755,105.390 335.686 C 107.604 335.609,108.523 335.436,108.736 335.056 C 108.953 334.668,109.750 334.532,111.816 334.532 C 113.350 334.532,114.758 334.381,114.946 334.197 C 115.134 334.013,116.502 333.823,117.986 333.775 C 119.492 333.727,120.922 333.490,121.223 333.238 C 121.534 332.978,122.982 332.753,124.640 332.705 C 126.223 332.660,128.004 332.416,128.597 332.163 C 129.191 331.910,131.185 331.643,133.029 331.569 C 135.053 331.488,136.484 331.269,136.640 331.017 C 136.804 330.752,138.150 330.581,140.302 330.552 C 142.286 330.525,144.155 330.303,144.784 330.019 C 145.420 329.733,147.629 329.476,150.161 329.392 C 152.985 329.299,154.506 329.108,154.597 328.834 C 154.694 328.545,156.262 328.417,159.717 328.417 C 163.603 328.417,164.812 328.302,165.222 327.892 C 165.636 327.478,166.994 327.358,171.632 327.326 C 175.923 327.296,177.724 327.152,178.279 326.796 C 178.857 326.424,181.124 326.287,187.728 326.227 C 194.250 326.168,196.572 326.031,197.039 325.676 C 197.538 325.296,202.279 325.200,220.953 325.191 L 244.245 325.180 244.245 312.988 C 244.245 302.203,244.179 300.771,243.676 300.578 C 243.363 300.458,232.608 300.360,219.776 300.360 C 203.936 300.360,196.371 300.239,196.213 299.984 C 196.014 299.662,196.630 298.510,199.376 294.066 C 199.620 293.671,200.244 292.781,200.761 292.088 C 201.279 291.395,201.816 290.463,201.955 290.018 C 202.093 289.573,202.339 289.209,202.500 289.209 C 202.662 289.209,202.896 288.925,203.021 288.579 C 203.336 287.708,204.190 286.279,204.554 286.013 C 204.936 285.733,205.653 284.593,206.107 283.543 C 206.300 283.098,206.623 282.734,206.826 282.734 C 207.028 282.734,207.194 282.503,207.194 282.220 C 207.194 281.937,207.406 281.492,207.664 281.231 C 207.922 280.969,208.248 280.513,208.387 280.216 C 208.527 279.919,208.965 279.191,209.361 278.597 C 209.756 278.004,210.178 277.235,210.298 276.888 C 210.418 276.542,210.633 276.259,210.776 276.259 C 210.919 276.259,211.225 275.895,211.457 275.450 C 211.689 275.004,212.198 274.155,212.590 273.561 C 212.981 272.968,213.413 272.239,213.549 271.942 C 213.685 271.646,213.898 271.322,214.022 271.223 C 214.145 271.124,214.634 270.396,215.108 269.604 C 215.582 268.813,216.140 268.047,216.348 267.901 C 216.556 267.756,186.567 267.634,149.704 267.631 L 82.682 267.626 81.089 266.692 C 80.213 266.179,79.496 265.551,79.496 265.298 C 79.496 265.044,79.254 264.635,78.957 264.388 C 78.479 263.992,78.417 250.697,78.417 148.697 L 78.417 33.453 77.022 33.453 C 76.221 33.453,75.437 33.683,75.180 33.993 M214.029 85.933 L 214.928 86.183 215.108 101.995 L 215.288 117.806 218.089 117.986 C 221.633 118.213,221.570 118.100,221.577 124.299 C 221.584 130.337,221.659 130.216,217.914 130.216 L 215.108 130.216 215.108 134.721 L 215.108 139.226 214.119 139.605 C 212.515 140.218,201.497 139.883,201.071 139.209 C 200.884 138.912,200.728 136.769,200.725 134.447 L 200.719 130.225 188.579 130.131 L 176.439 130.036 176.340 124.405 C 176.258 119.745,176.336 118.680,176.790 118.226 C 177.091 117.924,177.338 117.499,177.338 117.281 C 177.338 117.062,177.581 116.791,177.878 116.677 C 178.174 116.563,178.417 116.316,178.417 116.127 C 178.417 115.939,179.388 114.509,180.576 112.950 C 181.763 111.390,182.734 109.960,182.734 109.772 C 182.734 109.584,182.977 109.336,183.273 109.222 C 183.570 109.109,183.813 108.804,183.813 108.545 C 183.813 108.286,184.299 107.542,184.892 106.892 C 185.486 106.243,185.971 105.633,185.971 105.538 C 185.971 105.443,186.139 105.170,186.344 104.931 C 186.752 104.456,193.013 95.885,193.885 94.608 C 194.182 94.173,194.708 93.484,195.054 93.077 C 195.400 92.669,195.683 92.238,195.683 92.118 C 195.683 91.997,196.048 91.494,196.493 90.998 C 196.938 90.502,197.922 89.178,198.680 88.055 C 199.478 86.873,200.387 85.950,200.839 85.862 C 202.145 85.607,213.068 85.666,214.029 85.933 M242.490 101.794 C 242.070 102.600,241.727 103.639,241.727 104.104 C 241.727 104.568,241.484 105.529,241.187 106.239 C 240.794 107.180,240.647 108.907,240.647 112.590 C 240.647 116.273,240.794 118.000,241.187 118.940 C 241.484 119.651,241.727 120.638,241.727 121.135 C 241.727 122.268,243.053 124.460,243.739 124.460 C 244.178 124.460,244.240 122.687,244.160 112.530 C 244.059 99.844,243.932 99.028,242.490 101.794 M201.259 103.597 C 201.133 103.993,200.880 104.317,200.695 104.317 C 200.511 104.317,200.360 104.564,200.360 104.867 C 200.360 105.170,200.117 105.511,199.820 105.625 C 199.523 105.739,199.281 105.976,199.281 106.151 C 199.281 106.327,197.840 108.402,196.079 110.763 C 194.318 113.124,192.584 115.553,192.224 116.161 C 191.865 116.769,191.445 117.266,191.289 117.266 C 191.134 117.266,191.007 117.428,191.007 117.626 C 191.007 117.850,193.046 117.986,196.403 117.986 L 201.799 117.986 201.799 110.432 C 201.799 103.052,201.726 102.127,201.259 103.597 M84.532 234.173 L 84.532 261.511 152.428 261.499 C 211.557 261.489,220.414 261.420,221.022 260.960 C 221.601 260.522,223.637 260.432,232.982 260.432 L 244.245 260.432 244.245 255.440 C 244.245 249.612,244.224 249.572,241.375 250.027 C 229.549 251.917,221.328 238.719,227.973 228.513 C 229.127 226.741,231.542 224.460,232.264 224.460 C 232.443 224.460,232.779 224.271,233.010 224.040 C 234.014 223.036,236.249 222.558,240.108 222.520 L 244.065 222.482 244.162 214.658 L 244.259 206.835 164.396 206.835 L 84.532 206.835 84.532 234.173 M222.998 269.107 C 222.516 269.921,221.837 271.014,221.489 271.535 C 221.140 272.056,220.757 272.765,220.637 273.112 C 220.518 273.458,220.303 273.741,220.160 273.741 C 220.017 273.741,219.710 274.105,219.478 274.550 C 219.247 274.996,218.737 275.845,218.347 276.439 C 217.956 277.032,217.476 277.882,217.280 278.327 C 217.085 278.772,216.758 279.137,216.556 279.137 C 216.353 279.137,216.187 279.314,216.187 279.531 C 216.187 279.747,215.216 281.377,214.029 283.151 C 212.842 284.926,211.871 286.435,211.871 286.504 C 211.871 286.573,210.980 287.953,209.891 289.570 C 208.802 291.188,207.813 292.901,207.693 293.378 L 207.476 294.245 225.429 294.245 C 238.912 294.245,243.489 294.137,243.813 293.813 C 244.133 293.493,244.245 290.040,244.245 280.504 L 244.245 267.626 234.059 267.626 L 223.873 267.626 222.998 269.107 " stroke="none" fill="#d4ecec" fill-rule="evenodd"></path><path id="path2" d="M244.133 222.433 C 243.986 222.818,243.215 222.886,240.586 222.749 C 232.578 222.330,226.753 227.121,225.671 235.017 C 225.414 236.890,226.436 241.847,227.212 242.491 C 227.479 242.712,227.698 243.053,227.698 243.248 C 227.698 246.289,235.208 250.194,240.522 249.916 C 243.374 249.767,243.959 249.830,244.254 250.319 C 244.572 250.847,244.648 250.843,245.093 250.270 C 245.363 249.924,245.934 249.640,246.364 249.640 C 246.793 249.640,247.238 249.397,247.352 249.101 C 247.466 248.804,247.710 248.561,247.895 248.561 C 248.460 248.561,250.360 247.014,250.360 246.554 C 250.360 246.315,250.603 246.027,250.899 245.913 C 251.196 245.799,251.439 245.377,251.439 244.975 C 251.439 244.566,251.676 244.245,251.978 244.245 C 252.338 244.245,252.518 243.885,252.518 243.165 C 252.518 242.446,252.698 242.086,253.058 242.086 C 253.515 242.086,253.597 241.207,253.597 236.331 C 253.597 231.455,253.515 230.576,253.058 230.576 C 252.698 230.576,252.518 230.216,252.518 229.496 C 252.518 228.777,252.338 228.417,251.978 228.417 C 251.682 228.417,251.439 228.113,251.439 227.742 C 251.439 227.370,251.196 226.865,250.899 226.619 C 250.603 226.372,250.360 225.967,250.360 225.717 C 250.360 225.468,250.076 225.169,249.730 225.052 C 248.835 224.752,247.711 223.998,247.374 223.471 C 247.216 223.224,246.707 223.022,246.244 223.022 C 245.780 223.022,245.308 222.779,245.194 222.482 C 244.935 221.809,244.383 221.783,244.133 222.433 " stroke="none" fill="#fbe41d" fill-rule="evenodd"></path><path id="path3" d="M187.528 15.737 C 197.979 15.790,214.975 15.790,225.297 15.737 C 235.619 15.684,227.068 15.641,206.295 15.641 C 185.522 15.641,177.076 15.684,187.528 15.737 M84.267 116.367 C 84.221 162.266,84.303 199.999,84.448 200.218 C 84.826 200.787,243.281 201.180,243.847 200.613 C 244.066 200.395,244.239 200.046,244.233 199.838 C 244.227 199.630,244.007 199.743,243.745 200.089 C 243.293 200.684,241.035 200.699,200.860 200.365 C 177.536 200.171,141.821 200.010,121.494 200.006 L 84.534 200.000 84.442 116.457 L 84.351 32.914 84.267 116.367 M78.507 149.506 C 78.427 250.860,78.479 263.992,78.957 264.388 C 79.254 264.635,79.496 265.044,79.496 265.298 C 79.496 265.551,80.213 266.179,81.089 266.692 L 82.682 267.626 149.704 267.631 C 186.567 267.634,216.556 267.756,216.348 267.901 C 216.140 268.047,215.582 268.813,215.108 269.604 C 214.634 270.396,214.145 271.124,214.022 271.223 C 213.898 271.322,213.685 271.646,213.549 271.942 C 213.413 272.239,212.981 272.968,212.590 273.561 C 212.198 274.155,211.689 275.004,211.457 275.450 C 211.225 275.895,210.919 276.259,210.776 276.259 C 210.633 276.259,210.418 276.542,210.298 276.888 C 210.178 277.235,209.756 278.004,209.361 278.597 C 208.965 279.191,208.527 279.919,208.387 280.216 C 208.248 280.513,207.922 280.969,207.664 281.231 C 207.406 281.492,207.194 281.937,207.194 282.220 C 207.194 282.503,207.028 282.734,206.826 282.734 C 206.623 282.734,206.300 283.098,206.107 283.543 C 205.653 284.593,204.936 285.733,204.554 286.013 C 204.190 286.279,203.336 287.708,203.021 288.579 C 202.896 288.925,202.662 289.209,202.500 289.209 C 202.339 289.209,202.093 289.573,201.955 290.018 C 201.816 290.463,201.279 291.395,200.761 292.088 C 200.244 292.781,199.620 293.671,199.376 294.066 C 195.795 299.862,195.596 300.399,197.054 300.331 C 197.428 300.314,197.489 300.233,197.212 300.121 C 196.594 299.872,196.647 298.745,197.302 298.201 C 197.599 297.955,197.842 297.598,197.842 297.407 C 197.842 297.216,198.310 296.386,198.882 295.562 C 199.455 294.739,200.693 292.851,201.635 291.367 C 202.576 289.883,204.293 287.242,205.450 285.498 C 206.607 283.754,207.554 282.273,207.554 282.207 C 207.554 282.141,208.080 281.296,208.723 280.330 C 209.366 279.364,210.701 277.295,211.691 275.734 C 212.680 274.172,214.240 271.749,215.159 270.350 C 216.077 268.951,216.755 267.684,216.666 267.536 C 216.577 267.388,186.461 267.266,149.741 267.266 L 82.977 267.266 81.506 266.399 C 80.698 265.922,79.751 264.992,79.403 264.331 C 78.804 263.193,78.766 257.132,78.683 149.101 L 78.596 35.072 78.507 149.506 M204.424 85.880 C 206.165 85.946,208.917 85.945,210.539 85.879 C 212.162 85.812,210.737 85.758,207.374 85.759 C 204.011 85.759,202.683 85.814,204.424 85.880 M198.695 88.034 C 197.929 89.169,196.938 90.502,196.493 90.998 C 196.048 91.494,195.683 91.997,195.683 92.118 C 195.683 92.238,195.400 92.669,195.054 93.077 C 194.708 93.484,194.182 94.173,193.885 94.608 C 193.013 95.885,186.752 104.456,186.344 104.931 C 186.139 105.170,185.971 105.443,185.971 105.538 C 185.971 105.633,185.486 106.243,184.892 106.892 C 184.299 107.542,183.813 108.286,183.813 108.545 C 183.813 108.804,183.570 109.109,183.273 109.222 C 182.977 109.336,182.734 109.584,182.734 109.772 C 182.734 109.960,181.747 111.411,180.540 112.996 C 179.334 114.580,178.421 115.951,178.512 116.042 C 178.687 116.217,179.616 115.055,181.830 111.888 C 182.584 110.809,183.343 109.757,183.518 109.550 C 183.861 109.141,191.201 99.112,192.086 97.842 C 192.735 96.912,192.670 97.001,196.791 91.367 C 198.600 88.894,200.336 86.668,200.648 86.421 C 201.163 86.014,201.163 85.971,200.652 85.971 C 200.342 85.971,199.461 86.899,198.695 88.034 M214.118 86.389 C 214.696 86.832,214.753 88.114,214.837 102.518 L 214.928 118.165 217.550 118.345 C 220.905 118.576,220.882 118.531,220.773 124.640 L 220.683 129.676 217.806 129.856 L 214.928 130.036 214.826 134.330 C 214.762 137.029,214.562 138.821,214.287 139.155 C 213.932 139.585,213.951 139.652,214.388 139.507 C 214.823 139.364,214.948 138.442,215.029 134.773 L 215.129 130.216 217.924 130.216 C 221.658 130.216,221.584 130.335,221.577 124.299 C 221.570 118.100,221.633 118.213,218.089 117.986 L 215.288 117.806 215.108 101.983 C 214.932 86.514,214.912 86.158,214.209 86.034 C 213.538 85.915,213.532 85.939,214.118 86.389 M241.007 86.511 C 240.513 86.794,239.833 87.031,239.496 87.038 C 238.017 87.068,231.655 92.495,231.655 93.727 C 231.655 93.963,231.412 94.358,231.115 94.604 C 230.818 94.851,230.576 95.336,230.576 95.683 C 230.576 96.031,230.333 96.516,230.036 96.763 C 229.739 97.009,229.513 97.636,229.532 98.156 C 229.563 98.962,229.603 98.995,229.804 98.381 C 230.538 96.140,232.444 93.099,234.199 91.367 C 237.170 88.436,237.610 88.157,241.332 86.855 C 242.805 86.340,243.364 86.019,242.806 86.011 C 242.311 86.003,241.502 86.228,241.007 86.511 M228.849 99.712 C 228.612 99.950,228.434 100.719,228.454 101.421 L 228.491 102.698 228.769 101.619 C 228.922 101.025,229.166 100.256,229.311 99.910 C 229.617 99.175,229.455 99.106,228.849 99.712 M242.442 101.084 C 242.018 101.681,241.732 102.356,241.809 102.584 C 241.885 102.812,242.234 102.393,242.586 101.652 C 243.017 100.744,243.397 100.372,243.753 100.508 C 244.050 100.622,244.186 100.555,244.062 100.356 C 243.691 99.754,243.247 99.954,242.442 101.084 M197.630 107.949 C 195.471 110.937,193.543 113.569,193.345 113.800 C 192.416 114.881,190.647 117.605,190.647 117.954 C 190.647 118.652,202.030 118.478,202.300 117.776 C 202.924 116.148,202.494 102.518,201.818 102.518 C 201.673 102.518,199.789 104.962,197.630 107.949 M201.799 110.432 L 201.799 117.986 196.403 117.986 C 193.046 117.986,191.007 117.850,191.007 117.626 C 191.007 117.428,191.134 117.266,191.289 117.266 C 191.445 117.266,191.865 116.769,192.224 116.161 C 192.584 115.553,194.318 113.124,196.079 110.763 C 197.840 108.402,199.281 106.327,199.281 106.151 C 199.281 105.976,199.523 105.739,199.820 105.625 C 200.117 105.511,200.360 105.170,200.360 104.867 C 200.360 104.564,200.511 104.317,200.695 104.317 C 200.880 104.317,201.133 103.993,201.259 103.597 C 201.726 102.127,201.799 103.052,201.799 110.432 M227.796 103.815 C 227.266 105.113,227.460 121.133,228.013 121.655 C 228.429 122.048,228.464 121.951,228.231 121.043 C 227.728 119.078,227.615 106.798,228.084 105.121 C 228.523 103.553,228.306 102.568,227.796 103.815 M241.097 104.729 C 240.446 106.549,240.543 107.681,241.216 106.128 C 241.513 105.443,241.709 104.565,241.652 104.177 C 241.574 103.653,241.431 103.796,241.097 104.729 M240.403 112.590 C 240.403 113.876,240.468 114.402,240.548 113.759 C 240.628 113.116,240.628 112.064,240.548 111.421 C 240.468 110.778,240.403 111.304,240.403 112.590 M177.437 117.176 C 177.306 117.522,176.983 118.024,176.720 118.290 C 176.353 118.661,176.264 120.094,176.340 124.405 L 176.439 130.036 188.579 130.131 L 200.719 130.225 200.719 134.328 C 200.719 138.835,200.867 139.582,201.747 139.540 C 202.120 139.522,202.172 139.445,201.888 139.330 C 201.563 139.199,201.439 137.919,201.439 134.682 C 201.439 132.226,201.398 130.181,201.349 130.138 C 201.299 130.095,195.755 129.974,189.029 129.868 L 176.799 129.676 176.699 124.359 C 176.600 119.094,176.609 119.030,177.551 117.794 C 178.074 117.108,178.316 116.547,178.089 116.547 C 177.861 116.547,177.568 116.830,177.437 117.176 M240.662 118.574 C 240.654 118.996,240.884 119.887,241.173 120.552 C 241.579 121.489,241.702 121.589,241.713 120.995 C 241.720 120.572,241.490 119.682,241.201 119.016 C 240.795 118.080,240.672 117.980,240.662 118.574 M241.733 122.543 C 241.721 123.383,243.001 125.175,243.615 125.178 C 243.961 125.179,244.245 125.018,244.245 124.820 C 244.245 124.622,244.018 124.460,243.740 124.460 C 243.463 124.460,242.899 123.934,242.487 123.291 C 242.076 122.648,241.736 122.312,241.733 122.543 M228.454 123.787 C 228.431 124.612,228.641 125.273,229.024 125.585 C 229.564 126.025,229.599 126.000,229.339 125.360 C 229.179 124.964,228.922 124.155,228.769 123.561 L 228.491 122.482 228.454 123.787 M229.543 126.978 C 229.534 127.473,229.924 128.525,230.407 129.317 C 230.891 130.108,231.435 131.088,231.615 131.494 C 232.162 132.727,236.059 136.470,237.590 137.233 C 238.381 137.627,239.110 138.056,239.209 138.186 C 239.309 138.317,240.037 138.543,240.828 138.690 C 241.619 138.837,242.633 139.196,243.082 139.488 C 243.759 139.929,243.864 139.933,243.703 139.514 C 243.597 139.236,242.308 138.636,240.839 138.180 C 239.371 137.724,237.978 137.122,237.745 136.841 C 237.513 136.561,237.124 136.331,236.881 136.331 C 235.619 136.331,230.686 129.819,229.852 127.053 L 229.558 126.079 229.543 126.978 M205.323 139.836 C 206.964 139.903,209.554 139.903,211.078 139.835 C 212.602 139.768,211.259 139.713,208.094 139.714 C 204.928 139.714,203.681 139.769,205.323 139.836 M84.329 206.590 C 84.239 206.823,84.208 219.317,84.260 234.353 L 84.353 261.691 152.158 261.692 L 219.964 261.693 152.248 261.601 L 84.532 261.509 84.532 234.172 L 84.532 206.835 164.089 206.835 C 207.845 206.835,243.578 206.775,243.495 206.703 C 243.045 206.308,84.479 206.195,84.329 206.590 M238.406 222.563 C 239.052 222.643,240.023 222.641,240.564 222.559 C 241.105 222.477,240.576 222.412,239.388 222.414 C 238.201 222.416,237.759 222.483,238.406 222.563 M229.496 246.174 C 229.496 246.273,229.982 246.700,230.576 247.122 C 231.169 247.545,231.655 247.810,231.655 247.711 C 231.655 247.612,231.169 247.185,230.576 246.763 C 229.982 246.340,229.496 246.075,229.496 246.174 M221.105 260.881 C 220.608 261.244,222.707 261.310,231.917 261.222 C 238.473 261.160,243.491 260.968,243.687 260.772 C 244.244 260.217,221.867 260.324,221.105 260.881 M223.364 267.896 C 223.069 268.242,222.434 269.173,221.953 269.964 C 221.472 270.755,219.978 273.085,218.633 275.140 C 217.288 277.195,216.187 278.936,216.187 279.007 C 216.187 279.488,216.989 278.990,217.280 278.327 C 217.476 277.882,217.956 277.032,218.347 276.439 C 218.737 275.845,219.247 274.996,219.478 274.550 C 219.710 274.105,220.017 273.741,220.160 273.741 C 220.303 273.741,220.518 273.458,220.637 273.112 C 220.757 272.765,221.140 272.056,221.489 271.535 C 221.837 271.014,222.515 269.923,222.995 269.112 L 223.867 267.637 233.786 267.536 L 243.705 267.434 233.803 267.350 C 224.755 267.273,223.855 267.320,223.364 267.896 M213.849 282.616 C 212.725 284.363,210.608 287.653,209.144 289.928 C 207.681 292.203,206.482 294.186,206.479 294.335 C 206.469 294.995,243.410 294.640,243.913 293.975 C 244.319 293.439,244.314 293.412,243.886 293.795 C 243.496 294.142,239.282 294.245,225.429 294.245 L 207.476 294.245 207.693 293.378 C 207.813 292.901,208.802 291.188,209.891 289.570 C 210.980 287.953,211.871 286.573,211.871 286.504 C 211.871 286.435,212.859 284.901,214.067 283.095 C 215.274 281.289,216.179 279.728,216.077 279.627 C 215.976 279.525,214.973 280.870,213.849 282.616 " stroke="none" fill="#99b89b" fill-rule="evenodd"></path><path id="path4" d="M206.475 15.827 L 168.885 16.012 206.364 16.100 C 231.056 16.157,243.918 16.064,244.065 15.827 C 244.187 15.629,244.237 15.507,244.176 15.555 C 244.115 15.603,227.149 15.726,206.475 15.827 M164.327 21.493 C 179.032 21.545,202.989 21.545,217.564 21.493 C 232.139 21.441,220.108 21.398,190.827 21.398 C 161.547 21.398,149.622 21.441,164.327 21.493 M84.053 32.974 C 83.566 33.460,83.775 200.653,84.263 200.956 C 85.405 201.666,243.335 201.564,243.895 200.853 C 244.364 200.257,244.362 200.228,243.885 200.596 C 243.478 200.910,223.802 200.963,163.932 200.810 L 84.518 200.608 84.337 199.854 C 84.237 199.440,84.200 161.668,84.254 115.917 C 84.308 70.166,84.339 32.734,84.323 32.734 C 84.306 32.734,84.185 32.842,84.053 32.974 M78.685 148.485 C 78.768 257.016,78.807 263.194,79.404 264.331 C 79.752 264.992,80.698 265.922,81.506 266.399 L 82.977 267.266 149.741 267.266 C 186.461 267.266,216.577 267.388,216.666 267.536 C 216.755 267.684,216.077 268.951,215.159 270.350 C 214.240 271.749,212.680 274.172,211.691 275.734 C 210.701 277.295,209.366 279.364,208.723 280.330 C 208.080 281.296,207.554 282.141,207.554 282.207 C 207.554 282.273,206.607 283.754,205.450 285.498 C 204.293 287.242,202.576 289.883,201.635 291.367 C 200.693 292.851,199.455 294.739,198.882 295.562 C 198.310 296.386,197.842 297.216,197.842 297.407 C 197.842 297.598,197.599 297.955,197.302 298.201 C 196.847 298.579,196.553 299.809,196.853 300.082 C 197.274 300.467,244.130 300.475,243.810 300.090 C 243.519 299.739,238.365 299.640,220.272 299.640 L 197.108 299.640 197.838 298.291 C 198.841 296.439,199.301 295.718,200.450 294.194 C 200.994 293.473,201.439 292.782,201.439 292.660 C 201.439 292.461,203.278 289.592,205.083 286.975 C 205.453 286.439,205.755 285.906,205.755 285.791 C 205.755 285.675,205.923 285.386,206.129 285.147 C 206.334 284.908,207.281 283.498,208.234 282.014 C 209.186 280.531,210.595 278.345,211.366 277.158 C 212.136 275.971,212.849 274.833,212.948 274.629 C 213.048 274.425,214.073 272.835,215.227 271.097 C 216.380 269.358,217.235 267.704,217.127 267.421 C 216.956 266.977,207.762 266.906,150.351 266.906 C 75.245 266.906,81.641 267.152,79.897 264.198 L 79.137 262.909 79.111 148.990 C 79.098 86.335,78.976 34.795,78.842 34.456 C 78.707 34.117,78.637 85.430,78.685 148.485 M200.648 86.421 C 200.163 86.805,194.798 93.940,193.165 96.372 C 192.869 96.814,192.418 97.447,192.165 97.779 C 191.911 98.110,189.933 100.809,187.769 103.777 C 185.605 106.745,183.692 109.342,183.518 109.550 C 183.343 109.757,182.581 110.809,181.823 111.888 C 181.066 112.966,179.580 115.020,178.523 116.451 L 176.599 119.053 176.699 124.364 L 176.799 129.676 189.029 129.868 C 195.755 129.974,201.299 130.095,201.349 130.138 C 201.398 130.181,201.439 132.222,201.439 134.674 C 201.439 140.026,200.801 139.568,208.259 139.568 C 215.111 139.568,214.694 139.901,214.826 134.330 L 214.928 130.036 217.806 129.856 L 220.683 129.676 220.773 124.640 C 220.882 118.531,220.905 118.576,217.550 118.345 L 214.928 118.165 214.837 102.518 C 214.728 83.850,215.685 85.971,207.374 85.971 C 202.991 85.971,201.053 86.101,200.648 86.421 M241.332 86.855 C 237.605 88.159,237.164 88.438,234.199 91.373 C 226.816 98.682,225.315 119.474,231.396 130.216 C 232.612 132.364,236.170 136.331,236.881 136.331 C 237.124 136.331,237.508 136.555,237.735 136.828 C 237.962 137.102,239.317 137.699,240.746 138.156 C 242.176 138.612,243.565 139.238,243.834 139.547 C 244.174 139.936,244.161 139.833,243.793 139.209 C 243.501 138.714,242.877 138.261,242.405 138.202 C 241.585 138.100,240.815 137.793,237.921 136.411 C 234.985 135.009,230.785 129.374,230.024 125.814 C 229.886 125.169,229.651 124.478,229.502 124.281 C 227.883 122.133,227.875 104.542,229.492 100.899 C 229.667 100.504,229.915 99.775,230.041 99.281 C 230.840 96.167,235.506 89.568,236.909 89.568 C 237.185 89.568,237.410 89.438,237.410 89.278 C 237.410 88.948,239.745 87.862,241.491 87.379 C 242.134 87.202,242.975 86.818,243.362 86.526 C 244.260 85.846,244.176 85.860,241.332 86.855 M213.460 86.549 C 213.967 86.744,214.029 88.487,214.029 102.512 C 214.029 120.424,213.730 118.975,217.461 119.137 L 219.964 119.245 220.064 124.371 L 220.164 129.496 217.500 129.496 C 214.087 129.496,214.075 129.515,213.951 134.735 L 213.849 139.029 208.004 139.128 L 202.158 139.226 202.158 134.734 C 202.158 128.992,203.437 129.496,188.873 129.496 L 176.978 129.496 176.978 124.455 L 176.978 119.413 178.507 117.294 C 179.348 116.128,180.279 114.824,180.576 114.395 C 180.872 113.966,181.317 113.344,181.564 113.013 C 185.227 108.091,191.703 99.225,192.203 98.447 C 192.561 97.890,193.074 97.162,193.344 96.829 C 195.101 94.658,200.360 87.347,200.360 87.074 C 200.360 86.426,211.930 85.962,213.460 86.549 M242.154 100.705 C 241.721 101.290,241.367 102.027,241.367 102.341 C 241.367 102.656,241.141 103.351,240.865 103.885 C 239.730 106.080,239.836 118.728,241.016 121.942 C 242.080 124.839,242.575 125.541,243.517 125.491 C 244.254 125.451,244.286 125.414,243.689 125.295 C 241.430 124.846,239.859 116.207,240.626 108.453 C 241.131 103.346,242.513 99.673,243.750 100.148 C 244.049 100.262,244.186 100.196,244.062 99.996 C 243.667 99.356,242.955 99.621,242.154 100.705 M201.719 101.910 C 200.937 102.568,198.355 105.953,196.043 109.352 C 195.746 109.788,195.061 110.655,194.520 111.278 C 193.979 111.901,193.534 112.604,193.531 112.842 C 193.528 113.079,193.323 113.403,193.076 113.561 C 192.828 113.719,192.464 114.108,192.266 114.426 C 192.068 114.743,191.442 115.669,190.875 116.485 C 189.163 118.948,189.402 119.065,196.156 119.065 C 203.900 119.065,203.237 119.949,203.237 109.615 C 203.237 100.977,203.179 100.682,201.719 101.910 M202.300 103.087 C 202.420 103.400,202.518 106.705,202.518 110.432 C 202.518 114.158,202.420 117.463,202.300 117.776 C 202.030 118.478,190.647 118.652,190.647 117.954 C 190.647 117.605,192.416 114.881,193.345 113.800 C 193.543 113.569,195.471 110.937,197.630 107.949 C 201.648 102.390,201.922 102.104,202.300 103.087 M84.263 205.789 C 83.500 206.586,83.617 261.718,84.382 262.012 C 85.152 262.307,205.219 262.290,226.548 261.991 C 243.309 261.756,243.569 261.741,243.963 261.002 C 244.303 260.364,244.284 260.316,243.840 260.682 C 243.005 261.371,226.214 261.543,152.338 261.620 L 84.353 261.691 84.260 234.072 C 84.187 212.162,84.262 206.421,84.620 206.296 C 84.869 206.210,120.789 206.255,164.444 206.397 C 208.099 206.539,243.755 206.556,243.680 206.434 C 243.605 206.313,222.618 206.111,197.042 205.984 C 171.466 205.857,135.728 205.656,117.626 205.536 C 90.779 205.359,84.629 205.405,84.263 205.789 M223.012 267.564 C 222.369 268.363,221.905 269.085,220.603 271.313 C 220.054 272.252,219.483 273.021,219.335 273.021 C 219.186 273.021,219.065 273.182,219.065 273.378 C 219.065 273.574,218.336 274.798,217.446 276.098 C 216.556 277.399,215.827 278.525,215.827 278.602 C 215.827 278.678,215.342 279.460,214.748 280.340 C 214.155 281.219,213.669 282.118,213.669 282.336 C 213.669 282.555,213.503 282.734,213.300 282.734 C 213.098 282.734,212.774 283.098,212.582 283.543 C 212.222 284.376,211.469 285.653,211.151 285.971 C 210.833 286.289,209.492 288.292,209.224 288.849 C 208.875 289.575,208.284 290.529,207.057 292.347 C 205.181 295.127,204.137 294.982,225.230 294.877 C 241.551 294.796,244.026 294.714,244.170 294.245 C 244.303 293.809,244.243 293.792,243.858 294.155 C 243.323 294.659,206.471 294.837,206.479 294.335 C 206.483 294.089,207.554 292.388,213.669 282.912 C 214.757 281.225,215.890 279.453,216.187 278.973 C 218.794 274.759,222.622 268.863,223.227 268.133 L 223.972 267.233 234.074 267.340 C 239.631 267.398,244.101 267.325,244.010 267.176 C 243.593 266.504,223.567 266.874,223.012 267.564 " stroke="none" fill="#7c9c74" fill-rule="evenodd"></path></g></svg>