<?xml version="1.0" encoding="UTF-8"?>
<svg width="159px" height="137px" viewBox="0 0 159 137" version="1.1" xmlns="http://www.w3.org/2000/svg" xmlns:xlink="http://www.w3.org/1999/xlink">
    <!-- Generator: Sketch 55.2 (78181) - https://sketchapp.com -->
    <title>Empty-webhook</title>
    <desc>Created with Sketch.</desc>
    <g id="Webhook" stroke="none" stroke-width="1" fill="none" fill-rule="evenodd">
        <g id="Final-Empty-Webhook-screen-V2" transform="translate(-665.000000, -239.000000)">
            <g id="Empty-webhook" transform="translate(665.000000, 240.000000)">
                <path d="M0,23.4985592 L97,5 L97,123.164265 C82.2110474,122.649351 66.6953874,123.466547 50.4530201,125.615854 C34.2106527,127.76516 17.3929793,131.226542 0,136 L0,23.4985592 Z" id="Rectangle-62" fill="#D1EFE9" fill-rule="nonzero"></path>
                <rect id="Rectangle-103" stroke="#2B4D03" stroke-width="2" x="32" y="12" width="126" height="89" rx="5"></rect>
                <path d="M32,80 L158,80" id="Line-10" stroke="#2B4D03" stroke-width="2" stroke-linecap="square"></path>
                <ellipse id="Oval-3" fill="#F8E71C" cx="93.5" cy="91" rx="5.5" ry="5"></ellipse>
                <polygon id="Path-11" stroke="#2B4D03" stroke-width="2" points="88.5714286 101 80 113 108 113 101.5 101"></polygon>
                <path d="M105.101474,41 C102.993372,41 101.011427,41.7795139 99.5505656,43.1631944 L96.9981716,45.4895833 L94.4841732,43.1979167 C92.9940578,41.7795139 91.0084562,41 88.8985259,41 C86.7885956,41 84.8048223,41.7829861 83.3165353,43.1979167 C81.8227631,44.6145833 81,46.4965278 81,48.5017361 C81,50.5017361 81.8209348,52.3871528 83.3147069,53.8020833 C84.8029939,55.21875 86.7867672,56 88.8985259,56 C91.0066278,56 92.9922295,55.2204861 94.4494344,53.8333333 L97,51.5104167 L99.5158268,53.8020833 C101.005942,55.21875 102.991544,56 105.101474,56 C107.211404,56 109.193349,55.2204861 110.683465,53.8020833 C112.177237,52.3888889 113,50.5034722 113,48.4982639 C113,46.4930556 112.179065,44.6128472 110.685293,43.1944444 C109.191521,41.7795139 107.209576,41 105.101474,41 Z M91.5883015,50.1449876 C90.351856,51.2850041 88.1975253,51.2850041 86.9592801,50.1449876 C86.3401575,49.5749793 86,48.8177299 86,48.0157415 C86,47.2104391 86.3401575,46.4565037 86.9628796,45.8831814 C87.5784027,45.3131732 88.4008999,45 89.2737908,45 C90.1466817,45 90.9691789,45.3131732 91.6224972,45.9130075 L94,48.0173985 L91.5883015,50.1449876 Z M107.03892,50.1348428 C105.802475,51.2800743 103.68054,51.3066689 102.377503,50.1049239 L100,47.9939747 L102.409899,45.858093 C103.648144,44.7145237 105.804274,44.7145237 107.04072,45.8547687 C107.659843,46.4298777 108,47.1861626 108,47.9939747 C108,48.8017867 107.658043,49.5630582 107.03892,50.1348428 Z" id="Shape" fill="#4B615D" fill-rule="nonzero"></path>
                <circle id="Oval" stroke="#00DA77" stroke-width="2" fill="#00DA77" cx="141" cy="12" r="12"></circle>
                <path d="M147.05934,8.06825203 L138.581199,15.887767 L135.879655,13.482142 C135.676567,13.3009828 135.350681,13.3009828 135.152316,13.482142 C134.949228,13.6633011 134.949228,13.9539983 135.152316,14.1309445 L138.21753,16.8651839 C138.316712,16.953657 138.448955,17 138.581199,17 C138.713442,17 138.845686,16.953657 138.944868,16.8651839 L147.847684,8.92367197 C148.050772,8.74251281 148.050772,8.45181556 147.847684,8.2748694 C147.644596,8.09371024 147.257705,7.89130588 147.05934,8.06825203 Z" id="Shape" fill="#FFFFFF" fill-rule="nonzero"></path>
            </g>
        </g>
    </g>
</svg>