<?xml version="1.0" encoding="UTF-8"?>
<svg width="24px" height="22px" viewBox="0 0 24 22" version="1.1" xmlns="http://www.w3.org/2000/svg" xmlns:xlink="http://www.w3.org/1999/xlink">
    <!-- Generator: Sketch 55.2 (78181) - https://sketchapp.com -->
    <title>Group</title>
    <desc>Created with Sketch.</desc>
    <g id="Webhook" stroke="none" stroke-width="1" fill="none" fill-rule="evenodd">
        <g id="Final-Empty-Webhook-screen-V2" transform="translate(-17.000000, -336.000000)" fill="#4B615D" fill-rule="nonzero">
            <g id="Group" transform="translate(17.000000, 336.000000)">
                <path d="M16,7.8614375 L16,6.1114375 L13.6095,5.2399375 C13.543,5.075875 13.473,4.9170625 13.387,4.7613125 L14.352,2.659125 L12.9375,1.421875 L10.5565,2.2798125 C10.375,2.2028125 10.1895,2.1380625 9.998,2.078125 L8.9845,0 L6.9845,0 L5.996,2.071125 C5.797,2.1328125 5.6055,2.1975625 5.416,2.2763125 L3.039,1.4406875 L1.625,2.6779375 L2.594,4.739 C2.5,4.9083125 2.424,5.0806875 2.3515,5.25875 L0,6.1385625 L0,7.8885625 L2.3535,8.7465 C2.426,8.924125 2.504,9.0969375 2.5975,9.26625 L1.6465,11.340875 L3.0605,12.578125 L5.422,11.7271875 C5.6115,11.8059375 5.805,11.8689375 6.004,11.928875 L7.0155,14 L9.0155,14 L10.0055,11.918375 C10.195,11.8566875 10.3825,11.7919375 10.562,11.7166875 L12.9605,12.5575625 L14.3745,11.3203125 L13.39,9.232125 C13.474,9.0750625 13.5425,8.9158125 13.609,8.7535 L16,7.8614375 Z M8.5,10 C6.568,10 5,8.656 5,7 C5,5.344 6.568,4 8.5,4 C10.432,4 12,5.344 12,7 C12,8.656 10.432,10 8.5,10 Z" id="Shape"></path>
                <path d="M24,17.1768437 L24,15.8018437 L22.207125,15.1170938 C22.15725,14.9881875 22.10475,14.8634063 22.04025,14.7410313 L22.764,13.0893125 L21.703125,12.1171875 L19.917375,12.7912813 C19.78125,12.7307812 19.642125,12.6799063 19.4985,12.6328125 L18.738375,11 L17.238375,11 L16.497,12.6273125 C16.34775,12.6757812 16.204125,12.7266562 16.062,12.7885313 L14.27925,12.1319688 L13.21875,13.1040938 L13.9455,14.7235 C13.875,14.8565312 13.818,14.9919687 13.763625,15.131875 L12,15.8231563 L12,17.1981563 L13.765125,17.87225 C13.8195,18.0118125 13.878,18.1475937 13.948125,18.280625 L13.234875,19.9106875 L14.295375,20.8828125 L16.0665,20.2142188 C16.208625,20.2760938 16.35375,20.3255937 16.503,20.3726875 L17.261625,22 L18.761625,22 L19.504125,20.3644375 C19.64625,20.3159688 19.786875,20.2650937 19.9215,20.2059688 L21.720375,20.8666563 L22.780875,19.8945312 L22.0425,18.2538125 C22.1055,18.1304063 22.156875,18.0052813 22.20675,17.87775 L24,17.1768437 Z M18,18.5 C16.896,18.5 16,17.604 16,16.5 C16,15.396 16.896,14.5 18,14.5 C19.104,14.5 20,15.396 20,16.5 C20,17.604 19.104,18.5 18,18.5 Z" id="Shape" transform="translate(18.000000, 16.500000) rotate(-20.000000) translate(-18.000000, -16.500000) "></path>
            </g>
        </g>
    </g>
</svg>