<?xml version="1.0" encoding="UTF-8"?>
<svg width="25px" height="25px" viewBox="0 0 25 25" version="1.1" xmlns="http://www.w3.org/2000/svg" xmlns:xlink="http://www.w3.org/1999/xlink">
    <!-- Generator: Sketch 55.2 (78181) - https://sketchapp.com -->
    <title>Shape</title>
    <desc>Created with Sketch.</desc>
    <g id="Webhook" stroke="none" stroke-width="1" fill="none" fill-rule="evenodd">
        <g id="Final-Empty-Webhook-screen-V2" transform="translate(-17.000000, -110.000000)" fill="#4B615D" fill-rule="nonzero">
            <path d="M41.140625,120.9375 L38.875,118.673438 L38.875,113.125 C38.875,112.265625 38.171875,111.5625 37.3125,111.5625 L35.75,111.5625 C34.890625,111.5625 34.1875,112.265625 34.1875,113.125 L34.1875,113.989063 L31.0625,110.867188 C30.6359375,110.464062 30.2453125,110 29.5,110 C28.7546875,110 28.3640625,110.464062 27.9375,110.867188 L17.859375,120.9375 C17.371875,121.445312 17,121.815625 17,122.5 C17,123.379688 17.675,124.0625 18.5625,124.0625 L20.125,124.0625 L20.125,133.4375 C20.125,134.296875 20.828125,135 21.6875,135 L26.375,135 L26.375,127.1875 C26.375,126.328125 27.078125,125.625 27.9375,125.625 L31.0625,125.625 C31.921875,125.625 32.625,126.328125 32.625,127.1875 L32.625,135 L37.3125,135 C38.171875,135 38.875,134.296875 38.875,133.4375 L38.875,124.0625 L40.4375,124.0625 C41.325,124.0625 42,123.379688 42,122.5 C42,121.815625 41.628125,121.445312 41.140625,120.9375 Z" id="Shape"></path>
        </g>
    </g>
</svg>