<?xml version="1.0" encoding="utf-8"?>
<!-- Svg Vector Icons : http://www.onlinewebfonts.com/icon -->
<!DOCTYPE svg PUBLIC "-//W3C//DTD SVG 1.1//EN" "http://www.w3.org/Graphics/SVG/1.1/DTD/svg11.dtd">
<svg version="1.1" xmlns="http://www.w3.org/2000/svg" xmlns:xlink="http://www.w3.org/1999/xlink" x="0px" y="0px" viewBox="0 0 1000 1000" enable-background="new 0 0 1000 1000" xml:space="preserve">
<metadata> Svg Vector Icons : http://www.onlinewebfonts.com/icon </metadata>
<g><g transform="translate(0.000000,511.000000) scale(0.100000,-0.100000)"><path d="M246.2,4968.8c-151.8-83.1-143.2,174.8-146.1-4853c0-5088-8.6-4795.8,157.6-4870.3c57.3-25.8,1183.2-34.4,4744.2-34.4c5079.4,0,4787.2-8.6,4861.7,157.6c48.7,108.9,48.7,9373.8,0,9482.7c-74.5,166.2,217.7,157.6-4870.3,157.6C1165.8,5006,303.5,5000.3,246.2,4968.8z M9396.5,110v-4397.6H4998.9H601.4L592.8,81.3c-2.9,2403.6,0,4386.1,8.6,4406.1c8.6,28.7,905.3,34.4,4403.3,28.7l4391.8-8.6V110z"/><path d="M5666.5,4014.8c-140.4-25.8-220.6-223.5-149-358.1c68.8-128.9,151.8-137.5,1378-137.5H8050L5792.5,1261.7C3603.8-929.9,3537.9-998.7,3537.9-1101.8c0-149,100.3-249.2,249.2-249.2c103.1,0,171.9,65.9,2363.5,2254.6l2257.5,2257.5V2000.8c0-1048.5,5.7-1168.9,51.6-1260.5c94.5-189.1,318-189.1,412.5,0c45.8,91.7,51.6,226.3,51.6,1564.2c0,1019.9-8.6,1492.6-31.5,1558.5c-60.2,171.9-63,171.9-1693.1,169C6391.3,4029.1,5700.9,4020.5,5666.5,4014.8z"/></g></g>
</svg>