<?xml version="1.0" encoding="UTF-8"?>
<svg width="32px" height="30px" viewBox="0 0 32 30" version="1.1" xmlns="http://www.w3.org/2000/svg" xmlns:xlink="http://www.w3.org/1999/xlink">
    <!-- Generator: Sketch 55.2 (78181) - https://sketchapp.com -->
    <title>playbook-icon</title>
    <desc>Created with Sketch.</desc>
    <g id="Webhook" stroke="none" stroke-width="1" fill="none" fill-rule="evenodd">
        <g id="Import-Hook-All-design-V2" transform="translate(-1186.000000, -16.000000)">
            <g id="playbook-icon" transform="translate(1186.000000, 16.000000)">
                <path d="M16,29 C12.7183356,25.1157377 10.0516689,22.7110863 8,21.786046 C5.94833105,20.8610057 3.28166438,20.8610057 0,21.786046 L0,1.1238568 C3.47600874,0.794817538 6.1426754,1.12137513 8,2.10352956 C9.8573246,3.085684 12.5239913,5.57939649 16,9.58466703 L16,29 Z" id="Path-80" fill="#698289"></path>
                <path d="M16,30 C13.3299113,25.6066736 11.2545006,22.97285 9.77376803,22.0985293 C8.29303545,21.2242085 6.36844611,20.0591427 4,18.6033318 L4,0 C7.58143044,1.94062665 10.0423807,3.37509161 11.3828509,4.30339491 C12.7233211,5.2316982 14.2623708,7.18706374 16,10.1694915 L16,30 Z" id="Path-80" fill-opacity="0.9" fill="#BDF4EC"></path>
                <path d="M17,29 L17,9.58466703 C20.2587582,5.57939649 22.7587582,3.085684 24.5,2.10352956 C26.2412418,1.12137513 28.7412418,0.794817538 32,1.1238568 L32,21.786046 C28.9234396,20.8610057 26.4234396,20.8610057 24.5,21.786046 C22.5765604,22.7110863 20.0765604,25.1157377 17,29 Z" id="Path-80" fill="#698289"></path>
                <path d="M17,29 L17,9.44202005 C18.6684445,6.2852164 19.6420618,5.19974197 21.4453405,3.47863897 C23.2486191,1.75753596 24.8035488,0.993896847 28,0 L28,18.1816296 C26.2247301,18.7335692 24.6318339,19.4367897 23.2213115,20.2912913 C21.8107891,21.1457928 19.7370186,24.0486957 17,29 Z" id="Path-80" fill-opacity="0.9" fill="#BDF4EC"></path>
            </g>
        </g>
    </g>
</svg>