<svg id="svg" version="1.1" xmlns="http://www.w3.org/2000/svg" xmlns:xlink="http://www.w3.org/1999/xlink" width="400" height="385.45454545454544" viewBox="0, 0, 400,385.45454545454544"><g id="svgg"><path id="path0" d="M323.047 14.557 C 322.411 14.650,321.716 14.862,321.504 15.029 C 321.292 15.195,320.291 15.452,319.280 15.598 C 318.105 15.768,317.060 16.221,316.387 16.852 C 315.212 17.953,312.924 19.031,310.937 19.419 C 310.216 19.560,308.782 20.195,307.750 20.830 C 305.950 21.937,304.664 22.375,300.868 23.171 C 299.913 23.371,298.942 23.791,298.710 24.103 C 298.151 24.853,295.142 26.203,293.925 26.249 C 292.986 26.285,292.614 26.479,289.444 28.591 C 288.609 29.147,287.323 29.732,286.586 29.890 C 283.984 30.450,283.224 31.114,281.953 33.944 C 281.196 35.629,281.673 59.852,282.515 62.451 C 283.256 64.741,283.670 66.735,284.467 71.866 C 284.955 75.002,285.793 77.146,286.531 77.146 C 288.417 77.146,288.856 84.161,287.060 85.607 L 285.833 86.596 199.136 86.466 C 113.837 86.339,108.920 86.394,106.268 87.513 C 103.221 88.800,102.644 89.138,102.447 89.759 C 102.325 90.144,101.539 90.883,100.701 91.401 C 99.828 91.941,99.074 92.755,98.935 93.308 C 98.802 93.838,98.108 95.270,97.393 96.491 C 95.188 100.251,95.273 96.375,95.300 192.453 C 95.325 284.955,95.327 285.061,96.855 286.849 C 97.189 287.240,97.822 288.341,98.262 289.296 C 98.702 290.251,99.399 291.379,99.811 291.803 C 101.175 293.208,102.978 294.696,103.316 294.696 C 103.500 294.696,104.464 295.318,105.460 296.078 C 108.205 298.174,107.466 298.150,170.106 298.177 C 227.378 298.201,230.936 298.274,232.103 299.440 C 232.919 300.256,232.439 301.937,231.233 302.486 C 230.709 302.725,230.280 303.127,230.280 303.380 C 230.280 304.046,228.557 307.183,227.562 308.327 C 227.093 308.867,226.303 310.306,225.808 311.524 C 225.313 312.743,224.380 314.474,223.736 315.371 C 223.092 316.268,222.565 317.149,222.565 317.330 C 222.565 318.651,219.430 322.650,217.672 323.570 C 217.108 323.866,213.783 324.012,207.614 324.012 L 198.399 324.012 197.514 324.953 C 196.433 326.104,196.389 342.932,197.463 344.227 C 198.045 344.927,294.508 345.027,295.920 344.329 C 297.021 343.784,297.133 342.968,297.308 334.173 L 297.479 325.626 296.570 325.109 C 295.907 324.732,293.096 324.540,286.210 324.398 C 274.696 324.162,273.801 323.780,272.101 318.376 C 271.707 317.123,271.072 316.000,270.573 315.673 C 269.752 315.135,268.826 313.132,268.283 310.719 C 268.141 310.090,267.517 308.823,266.896 307.903 C 266.275 306.982,265.767 306.094,265.767 305.928 C 265.767 305.762,265.407 304.481,264.968 303.081 C 264.043 300.135,264.266 299.320,266.254 298.380 C 267.353 297.860,273.902 297.778,320.926 297.689 C 378.615 297.581,375.325 297.695,377.302 295.746 C 377.587 295.465,378.645 294.838,379.653 294.353 C 380.661 293.867,381.485 293.291,381.485 293.073 C 381.485 292.854,382.229 291.958,383.138 291.082 C 386.097 288.231,385.863 296.055,386.015 194.793 C 386.175 88.001,386.496 96.061,381.901 91.429 C 378.565 88.067,376.291 87.252,369.335 86.924 C 363.981 86.672,361.902 86.019,361.583 84.491 C 361.471 83.952,361.303 83.132,361.210 82.670 C 361.117 82.208,361.270 81.601,361.549 81.320 C 362.042 80.826,363.058 77.277,363.748 73.639 C 363.934 72.660,364.567 70.835,365.155 69.584 L 366.225 67.310 366.371 50.781 C 366.562 29.301,366.886 30.974,362.289 29.727 C 361.384 29.481,360.059 28.768,359.345 28.141 C 358.631 27.514,357.689 27.001,357.252 27.001 C 356.816 27.001,356.363 26.847,356.247 26.659 C 356.131 26.471,355.383 26.196,354.585 26.048 C 353.787 25.900,352.531 25.321,351.795 24.762 C 350.988 24.150,349.069 23.394,346.973 22.865 C 343.722 22.043,341.458 21.108,340.967 20.387 C 340.852 20.218,339.334 19.667,337.594 19.163 C 335.566 18.575,334.115 17.906,333.551 17.298 C 333.068 16.777,331.809 16.125,330.753 15.851 C 329.697 15.577,328.179 15.109,327.379 14.812 C 325.931 14.274,325.252 14.234,323.047 14.557 M347.477 42.663 C 348.641 42.901,349.517 43.772,350.637 45.805 C 351.134 46.707,351.686 47.445,351.865 47.445 C 353.441 47.445,352.877 49.593,350.738 51.739 C 349.510 52.970,348.332 54.155,348.120 54.372 C 347.907 54.589,346.432 56.052,344.841 57.622 C 343.250 59.193,341.774 60.663,341.562 60.889 C 341.350 61.116,340.195 62.219,338.996 63.341 C 336.848 65.350,329.248 72.683,321.311 80.403 C 316.042 85.530,315.625 85.792,313.313 85.445 C 310.887 85.081,309.421 84.280,308.860 83.009 C 308.297 81.737,307.922 81.353,306.562 80.651 C 305.981 80.351,305.287 79.608,305.019 79.000 C 304.723 78.329,303.888 77.582,302.891 77.099 C 301.934 76.635,301.161 75.957,301.035 75.471 C 300.916 75.013,300.136 74.213,299.301 73.693 C 298.465 73.173,297.782 72.503,297.782 72.204 C 297.782 71.905,297.001 70.890,296.046 69.949 C 295.029 68.947,294.311 67.886,294.312 67.388 C 294.314 66.384,295.667 64.031,296.243 64.031 C 296.464 64.031,296.806 63.604,297.005 63.082 C 298.087 60.235,303.455 60.226,306.241 63.067 C 307.073 63.915,308.278 65.043,308.919 65.574 C 309.560 66.104,310.164 66.841,310.261 67.211 C 310.358 67.581,310.758 67.990,311.149 68.120 C 311.541 68.250,312.426 68.607,313.116 68.912 C 314.485 69.519,316.057 68.702,318.092 66.327 C 319.771 64.367,323.788 60.560,324.375 60.371 C 324.705 60.265,325.323 59.653,325.747 59.011 C 326.172 58.370,327.170 57.412,327.965 56.882 C 328.761 56.353,329.412 55.754,329.412 55.553 C 329.412 54.980,334.828 49.759,335.422 49.759 C 335.713 49.759,336.253 49.282,336.623 48.698 C 337.543 47.244,338.985 45.902,339.627 45.902 C 339.920 45.902,340.264 45.575,340.390 45.176 C 341.229 42.533,343.282 41.805,347.477 42.663 M294.844 93.774 C 297.342 94.448,298.114 94.927,298.929 96.308 C 299.347 97.016,300.108 97.787,300.622 98.021 C 301.135 98.255,301.784 98.875,302.065 99.400 C 302.346 99.924,303.319 100.789,304.229 101.322 C 305.138 101.855,306.241 102.795,306.680 103.412 C 307.119 104.028,307.770 104.534,308.127 104.536 C 309.035 104.541,312.452 106.200,313.537 107.162 C 314.034 107.603,315.422 108.156,316.622 108.392 C 319.329 108.922,320.677 109.434,321.698 110.319 C 323.121 111.553,325.733 111.672,327.189 110.569 C 327.881 110.045,329.402 109.332,330.569 108.985 C 334.978 107.675,335.410 107.508,336.166 106.820 C 336.592 106.432,337.958 105.665,339.200 105.116 C 340.443 104.566,342.264 103.440,343.247 102.613 C 344.230 101.786,345.516 100.928,346.104 100.705 C 346.693 100.483,347.287 99.995,347.423 99.620 C 347.731 98.773,349.838 96.818,350.442 96.818 C 350.687 96.818,351.091 96.375,351.337 95.833 C 352.676 92.896,373.869 92.620,376.974 95.500 C 379.334 97.688,379.200 93.135,379.084 167.086 L 378.978 234.461 378.014 235.488 L 377.049 236.516 242.623 236.273 C 102.062 236.020,106.235 236.058,105.036 234.997 C 102.854 233.065,102.989 237.578,102.989 166.974 C 102.989 96.220,102.848 100.788,105.148 97.144 C 107.126 94.011,97.130 94.336,198.712 94.103 C 248.514 93.989,289.385 93.772,289.536 93.621 C 289.953 93.203,293.059 93.293,294.844 93.774 M118.632 143.453 C 116.765 144.184,124.857 144.252,213.693 144.251 C 299.187 144.251,310.076 144.147,308.005 143.352 C 307.086 142.999,119.536 143.099,118.632 143.453 M118.632 176.240 C 117.937 176.512,117.951 176.552,118.825 176.786 C 120.137 177.137,271.386 177.071,273.288 176.719 L 274.831 176.433 272.945 176.163 C 270.381 175.795,119.577 175.870,118.632 176.240 M118.632 209.027 C 116.766 209.757,124.557 209.824,208.293 209.792 C 290.860 209.761,300.969 209.665,297.445 208.945 C 295.657 208.580,119.569 208.660,118.632 209.027 M377.996 243.632 L 379.196 244.641 379.087 265.604 L 378.978 286.567 377.049 288.346 C 375.988 289.324,374.694 290.415,374.172 290.771 C 372.815 291.696,111.300 291.503,109.291 290.575 C 108.619 290.265,107.404 289.345,106.590 288.531 C 102.918 284.859,102.989 285.351,102.989 263.709 L 102.989 245.362 104.406 244.282 L 105.822 243.202 183.962 243.006 C 226.939 242.899,287.909 242.769,319.450 242.717 L 376.797 242.623 377.996 243.632 M258.009 299.189 C 258.433 299.645,259.030 300.600,259.335 301.311 C 259.640 302.022,260.222 302.951,260.627 303.375 C 261.032 303.799,261.759 305.208,262.243 306.505 C 262.780 307.946,263.533 309.168,264.179 309.646 C 264.984 310.241,265.485 311.256,266.279 313.902 C 266.906 315.992,267.566 317.470,267.935 317.612 C 268.385 317.784,268.479 318.123,268.289 318.881 C 267.617 321.560,264.883 323.265,262.236 322.656 C 261.526 322.492,253.481 322.246,244.359 322.110 C 235.236 321.974,227.731 321.825,227.681 321.780 C 227.520 321.634,226.422 318.912,226.422 318.657 C 226.422 318.521,226.815 317.978,227.296 317.450 C 227.776 316.922,228.502 315.740,228.910 314.823 C 229.317 313.905,229.925 312.951,230.261 312.701 C 231.005 312.148,232.208 310.311,232.208 309.728 C 232.208 309.023,234.103 305.111,234.445 305.111 C 234.753 305.111,236.451 301.572,236.451 300.931 C 236.451 300.234,238.451 298.802,239.818 298.522 C 243.369 297.794,257.181 298.300,258.009 299.189 M290.769 328.193 L 291.996 329.288 291.996 333.565 C 291.996 340.200,297.745 339.441,247.483 339.441 L 205.003 339.441 203.473 338.620 C 199.934 336.724,200.051 329.740,203.649 328.118 C 204.585 327.696,211.802 327.602,275.630 327.188 L 289.543 327.097 290.769 328.193 " stroke="none" fill="#18a873" fill-rule="evenodd"></path><path id="path1" d="M322.662 9.906 C 320.147 10.471,319.294 10.939,318.943 11.948 C 318.604 12.920,318.355 13.035,316.077 13.268 C 313.259 13.557,312.289 13.911,309.547 15.651 C 308.213 16.497,306.929 16.951,305.387 17.121 C 303.081 17.376,302.131 17.761,300.482 19.112 C 299.464 19.946,297.705 20.604,295.468 20.988 C 294.499 21.154,293.859 21.600,293.200 22.567 C 292.594 23.457,291.978 23.915,291.387 23.915 C 290.206 23.915,286.126 24.985,285.849 25.367 C 285.631 25.667,285.039 25.996,282.160 27.417 C 279.603 28.679,279.512 28.755,279.151 29.923 C 278.260 32.809,278.548 66.502,279.500 70.677 C 279.632 71.256,280.328 72.353,281.046 73.115 C 282.085 74.217,282.353 74.818,282.353 76.053 C 282.353 78.046,283.428 81.763,284.020 81.813 C 284.270 81.834,284.041 81.990,283.510 82.160 C 282.385 82.520,264.060 82.646,262.777 82.303 L 261.909 82.070 261.909 62.307 C 261.909 39.850,261.815 38.087,260.571 37.422 C 259.712 36.962,255.316 37.513,254.388 38.196 C 253.646 38.741,249.732 39.674,246.480 40.080 C 240.852 40.783,235.252 41.639,234.915 41.847 C 234.322 42.214,227.037 43.554,224.301 43.800 C 220.641 44.129,215.141 45.127,214.614 45.558 C 214.036 46.030,207.973 47.288,204.629 47.629 C 201.758 47.922,197.555 48.871,196.914 49.372 C 196.314 49.841,189.446 51.104,185.342 51.500 C 182.737 51.751,177.738 52.720,176.278 53.256 C 175.126 53.678,171.679 54.204,164.942 54.985 C 162.011 55.325,158.528 56.019,156.456 56.677 C 153.086 57.747,150.999 58.156,144.648 58.994 C 143.057 59.204,140.684 59.798,139.374 60.313 C 138.064 60.828,136.068 61.366,134.938 61.509 C 128.604 62.305,124.029 63.009,121.119 63.636 C 115.529 64.841,113.708 65.166,110.318 65.563 C 104.816 66.207,102.527 66.623,99.711 67.488 C 95.053 68.920,94.759 68.987,91.996 69.238 C 88.667 69.540,83.838 70.527,82.546 71.170 C 81.339 71.770,76.271 72.759,72.710 73.089 C 71.225 73.226,68.274 73.694,66.152 74.128 C 64.031 74.562,61.080 75.163,59.595 75.465 C 58.110 75.766,54.552 76.274,51.688 76.592 C 46.833 77.132,42.753 78.009,41.851 78.707 C 41.294 79.139,37.896 79.774,32.594 80.436 C 28.377 80.963,25.619 81.638,23.822 82.581 C 23.112 82.954,19.956 83.495,14.851 84.118 C 11.810 84.490,7.140 85.313,3.976 86.034 C 3.086 86.237,1.828 86.403,1.179 86.403 L 0.000 86.403 0.000 236.066 L 0.000 385.728 17.551 385.728 L 35.101 385.728 35.101 384.800 C 35.101 383.704,37.222 382.926,42.044 382.252 C 45.937 381.707,49.704 380.946,53.423 379.952 C 55.121 379.499,58.332 378.881,60.559 378.579 C 65.852 377.862,67.683 377.466,71.066 376.309 C 72.664 375.762,75.689 375.164,78.110 374.915 C 82.104 374.505,85.615 373.775,87.367 372.992 C 88.731 372.383,93.055 371.492,96.625 371.086 C 102.646 370.401,108.540 369.536,109.740 369.162 C 111.190 368.709,116.098 368.093,123.819 367.394 C 129.330 366.895,133.449 366.204,136.355 365.290 C 137.730 364.857,143.180 364.265,150.627 363.740 C 156.370 363.335,159.652 362.875,163.294 361.967 C 166.328 361.210,179.797 360.305,200.193 359.488 C 204.966 359.297,213.472 358.943,219.094 358.702 C 225.348 358.434,235.329 358.356,244.809 358.503 L 260.303 358.742 260.975 357.481 C 261.458 356.575,261.696 355.006,261.819 351.915 C 262.031 346.595,259.757 347.167,280.732 347.161 L 297.819 347.155 298.765 346.135 L 299.711 345.114 299.711 334.649 C 299.711 319.920,300.280 320.570,287.364 320.552 C 278.720 320.541,278.273 320.504,277.814 319.769 C 277.549 319.344,277.116 318.991,276.853 318.984 C 275.736 318.954,274.688 317.513,274.310 315.488 C 273.788 312.691,272.002 308.968,271.182 308.968 C 271.021 308.968,270.783 308.077,270.654 306.987 C 270.301 304.009,269.292 301.667,268.247 301.405 C 267.762 301.284,267.273 300.943,267.160 300.649 C 266.986 300.195,275.341 300.098,322.581 300.009 L 378.206 299.904 379.864 298.826 C 380.776 298.234,381.616 297.505,381.730 297.206 C 381.845 296.907,382.516 296.472,383.221 296.239 C 384.823 295.710,386.343 294.221,386.681 292.850 C 386.823 292.274,387.440 291.282,388.053 290.645 C 390.530 288.068,390.357 295.470,390.357 192.307 C 390.357 89.905,390.464 94.965,388.268 94.130 C 387.349 93.781,386.885 93.012,386.885 91.839 C 386.885 91.044,385.338 89.489,384.546 89.488 C 384.241 89.487,383.645 88.851,383.221 88.074 C 382.398 86.566,381.897 86.190,380.257 85.847 C 379.688 85.727,379.117 85.300,378.989 84.896 C 378.550 83.512,376.471 82.952,370.631 82.644 C 364.468 82.320,364.070 82.054,366.404 79.823 C 367.878 78.415,368.264 77.198,368.908 71.938 C 369.219 69.392,369.689 66.268,369.951 64.995 C 370.279 63.405,370.439 57.972,370.460 47.637 L 370.492 32.594 369.463 30.435 C 368.676 28.783,368.098 28.117,366.995 27.593 C 366.203 27.218,365.190 26.515,364.745 26.033 C 363.981 25.206,359.869 23.915,357.999 23.915 C 357.579 23.915,357.131 23.584,357.002 23.178 C 356.684 22.176,355.289 21.322,353.480 21.021 C 351.308 20.660,349.735 20.003,349.167 19.221 C 348.390 18.152,346.459 17.436,343.054 16.954 C 340.395 16.578,339.842 16.372,339.430 15.603 C 339.156 15.090,338.428 14.581,337.759 14.434 C 337.107 14.291,336.307 14.031,335.982 13.857 C 335.657 13.683,334.571 13.434,333.569 13.305 C 332.177 13.126,331.570 12.822,330.996 12.016 C 329.800 10.336,325.543 9.259,322.662 9.906 M327.648 12.354 C 328.482 12.985,329.469 13.500,329.843 13.500 C 330.217 13.500,330.619 13.654,330.735 13.842 C 330.851 14.031,331.599 14.306,332.397 14.454 C 333.195 14.602,334.412 15.151,335.102 15.674 C 336.279 16.568,340.164 18.099,341.307 18.120 C 341.591 18.125,342.979 18.671,344.393 19.333 C 345.806 19.995,348.183 20.930,349.675 21.411 C 351.167 21.891,353.165 22.810,354.115 23.451 C 355.066 24.092,356.481 24.737,357.260 24.883 C 358.040 25.029,359.810 25.811,361.194 26.619 C 362.578 27.428,364.216 28.201,364.835 28.337 C 365.996 28.592,367.181 29.656,367.936 31.122 C 368.237 31.706,368.370 36.861,368.370 47.931 C 368.370 67.101,367.886 72.093,365.613 76.368 C 365.220 77.108,364.899 77.984,364.899 78.316 C 364.899 78.648,364.739 79.085,364.543 79.286 C 363.755 80.098,363.667 82.342,364.390 83.173 C 364.983 83.854,365.717 84.020,369.142 84.249 C 378.935 84.903,384.443 88.904,387.797 97.801 L 388.822 100.519 388.721 192.690 L 388.621 284.860 387.790 286.596 C 387.333 287.551,386.619 289.124,386.204 290.092 C 385.424 291.910,381.829 295.853,380.951 295.853 C 380.678 295.853,379.645 296.484,378.656 297.254 C 376.079 299.262,375.633 299.277,317.817 299.303 C 278.141 299.320,267.317 299.427,266.797 299.808 C 266.104 300.314,266.790 303.973,267.681 304.523 C 268.230 304.863,269.130 306.853,269.826 309.268 C 270.176 310.482,271.033 312.343,271.731 313.404 C 272.428 314.465,273.127 315.940,273.285 316.683 C 273.684 318.572,274.462 319.734,276.447 321.408 L 278.163 322.854 287.378 322.854 L 296.594 322.854 297.586 323.915 C 299.013 325.441,299.063 325.893,298.858 335.460 L 298.673 344.126 297.658 345.140 L 296.644 346.154 276.480 346.432 C 238.508 346.957,197.406 346.825,196.549 346.177 C 195.525 345.403,195.250 342.822,195.213 333.655 C 195.164 321.438,194.493 322.083,207.246 322.083 L 216.640 322.083 217.192 320.834 C 217.495 320.147,218.167 319.377,218.684 319.123 C 219.818 318.565,220.380 317.534,221.009 314.853 C 221.327 313.497,221.835 312.535,222.549 311.934 C 223.138 311.439,223.993 310.014,224.461 308.749 C 224.961 307.397,225.841 305.966,226.610 305.252 C 227.362 304.553,228.090 303.379,228.335 302.471 C 228.567 301.607,228.958 300.776,229.204 300.625 C 230.442 299.860,223.747 299.763,167.764 299.738 C 101.959 299.708,105.236 299.816,102.841 297.597 C 102.305 297.100,101.146 296.289,100.265 295.794 C 99.195 295.192,98.369 294.317,97.775 293.156 C 97.286 292.200,96.540 291.051,96.116 290.604 C 95.692 290.156,94.983 289.078,94.539 288.208 L 93.732 286.627 93.732 192.358 C 93.732 91.045,93.618 96.372,95.830 94.311 C 96.513 93.674,97.200 92.643,97.356 92.019 C 97.646 90.863,98.906 89.489,99.676 89.489 C 99.910 89.489,100.340 88.948,100.633 88.288 C 101.004 87.449,101.761 86.805,103.138 86.156 C 104.223 85.644,105.718 84.840,106.461 84.368 L 107.811 83.510 184.571 83.594 C 226.789 83.640,266.278 83.779,272.324 83.902 C 286.657 84.193,287.926 83.875,285.703 80.546 C 284.478 78.712,283.669 76.596,282.929 73.288 C 282.572 71.697,282.007 69.966,281.672 69.440 C 280.407 67.454,280.047 63.983,279.792 51.302 C 279.387 31.156,279.668 29.696,284.164 28.566 C 285.183 28.310,286.592 27.662,287.294 27.127 C 287.997 26.592,289.559 25.818,290.766 25.407 C 293.542 24.461,294.691 23.923,295.661 23.113 C 296.085 22.759,297.647 22.085,299.132 21.614 C 300.617 21.144,302.874 20.270,304.147 19.671 C 305.419 19.073,307.744 18.199,309.313 17.729 C 310.882 17.258,312.751 16.476,313.468 15.989 C 314.185 15.503,315.939 14.731,317.366 14.274 C 318.794 13.817,320.395 13.152,320.926 12.797 C 323.689 10.945,325.618 10.818,327.648 12.354 M341.948 46.134 C 340.887 47.099,339.894 48.006,339.740 48.149 C 339.348 48.514,335.589 52.276,335.058 52.835 C 334.817 53.089,334.204 53.673,333.697 54.132 C 333.190 54.591,332.409 55.381,331.961 55.888 C 331.514 56.395,330.743 57.176,330.248 57.624 C 329.754 58.072,326.840 60.868,323.774 63.838 C 320.708 66.808,317.403 69.954,316.430 70.828 L 314.661 72.418 313.068 71.801 C 312.192 71.462,310.347 70.092,308.968 68.756 C 307.589 67.421,305.853 65.754,305.111 65.052 C 302.201 62.300,299.953 62.490,297.882 65.663 L 296.632 67.579 297.786 68.591 C 298.420 69.147,298.939 69.731,298.939 69.887 C 298.939 70.145,303.244 74.565,305.525 76.650 C 306.040 77.120,306.830 77.902,307.281 78.386 C 307.732 78.871,308.644 79.699,309.306 80.227 C 309.969 80.755,310.511 81.378,310.511 81.612 C 310.511 82.134,311.915 82.798,313.742 83.141 C 315.088 83.393,315.205 83.306,320.317 78.247 C 323.180 75.414,328.217 70.492,331.510 67.310 C 334.803 64.127,340.292 58.755,343.706 55.370 L 349.914 49.217 349.113 47.613 C 348.673 46.732,348.312 45.815,348.312 45.577 C 348.312 45.145,347.770 44.971,345.227 44.583 C 344.032 44.402,343.654 44.581,341.948 46.134 M346.443 47.326 C 348.185 47.658,348.107 50.145,346.354 50.145 C 345.671 50.145,344.942 50.859,344.277 52.181 C 344.057 52.620,343.356 53.262,342.719 53.608 C 342.083 53.954,341.261 54.835,340.892 55.566 C 340.524 56.297,339.724 57.102,339.114 57.356 C 338.500 57.612,337.734 58.391,337.396 59.103 C 336.990 59.957,336.334 60.551,335.438 60.875 C 334.556 61.194,333.916 61.767,333.584 62.534 C 333.284 63.226,332.565 63.921,331.828 64.232 C 330.954 64.601,330.396 65.219,329.964 66.300 C 329.498 67.462,329.074 67.901,328.238 68.085 C 327.424 68.264,326.951 68.731,326.459 69.847 C 325.946 71.010,325.482 71.450,324.476 71.728 C 323.094 72.109,322.116 73.075,322.095 74.079 C 322.088 74.407,321.486 74.892,320.757 75.156 C 319.760 75.516,319.319 75.977,318.976 77.018 C 318.624 78.085,318.179 78.535,317.035 78.984 C 315.903 79.429,315.445 79.887,315.107 80.910 L 314.664 82.252 313.841 81.275 C 313.389 80.737,312.463 80.022,311.785 79.686 C 311.106 79.350,310.111 78.498,309.573 77.793 C 309.036 77.088,308.153 76.275,307.612 75.985 C 307.070 75.695,306.277 74.892,305.850 74.200 C 305.422 73.508,304.506 72.592,303.814 72.164 C 303.122 71.736,302.321 70.949,302.036 70.415 C 301.750 69.881,301.239 69.356,300.902 69.249 C 300.564 69.142,300.054 68.681,299.770 68.225 C 299.102 67.156,299.883 65.395,300.844 65.801 C 301.175 65.942,302.054 66.180,302.797 66.332 C 304.216 66.622,308.711 70.715,309.159 72.125 C 310.020 74.837,316.955 74.446,317.658 71.645 C 317.832 70.953,318.242 70.604,319.080 70.437 C 320.293 70.194,321.697 68.916,321.697 68.054 C 321.697 67.785,322.348 67.248,323.144 66.859 C 324.038 66.422,324.801 65.674,325.142 64.899 C 325.446 64.207,325.982 63.645,326.336 63.645 C 327.160 63.645,328.134 62.564,328.654 61.072 C 328.964 60.183,329.427 59.790,330.566 59.449 C 331.757 59.092,332.169 58.720,332.553 57.657 C 332.820 56.920,333.270 56.316,333.553 56.316 C 334.462 56.316,335.889 55.146,336.125 54.207 C 336.262 53.658,336.930 53.013,337.801 52.588 C 338.918 52.042,339.327 51.559,339.595 50.474 C 339.900 49.241,340.117 49.040,341.359 48.841 C 342.351 48.682,342.934 48.317,343.308 47.619 C 343.711 46.866,344.032 46.686,344.630 46.878 C 345.064 47.017,345.880 47.219,346.443 47.326 M274.253 95.296 C 265.661 95.438,225.911 95.589,185.921 95.631 C 145.931 95.672,112.370 95.845,111.342 96.014 C 108.684 96.451,106.671 98.665,106.327 101.531 C 105.700 106.745,106.054 231.046,106.698 232.029 L 107.321 232.980 183.797 232.980 C 250.902 232.980,260.442 233.051,261.657 233.558 C 262.867 234.064,270.211 234.137,319.712 234.137 L 376.382 234.137 377.005 233.186 C 377.838 231.915,377.976 100.901,377.146 99.416 C 375.074 95.710,373.832 95.314,364.127 95.263 C 355.890 95.219,354.618 95.435,352.805 97.190 C 348.781 101.083,347.973 101.816,346.582 102.831 C 345.737 103.449,344.695 104.322,344.268 104.772 C 342.884 106.229,337.398 109.090,334.041 110.107 C 332.874 110.460,331.473 111.068,330.928 111.458 C 328.018 113.539,320.110 113.589,318.840 111.533 C 318.712 111.326,317.167 110.708,315.407 110.160 C 313.647 109.611,311.435 108.673,310.491 108.074 C 309.547 107.476,308.053 106.668,307.169 106.279 C 306.286 105.889,305.356 105.182,305.102 104.708 C 304.848 104.234,304.182 103.610,303.622 103.321 C 302.215 102.596,302.000 102.414,298.592 99.064 C 295.362 95.890,293.499 94.845,291.274 94.963 C 290.504 95.004,282.845 95.154,274.253 95.296 M293.315 96.280 C 293.650 96.409,293.925 96.831,293.925 97.218 C 293.925 97.915,295.777 99.518,296.583 99.518 C 296.812 99.518,297.242 100.096,297.537 100.804 C 297.913 101.704,298.584 102.328,299.771 102.887 C 300.704 103.325,301.700 104.117,301.982 104.646 C 302.265 105.174,303.438 106.083,304.589 106.665 C 305.740 107.248,306.982 108.106,307.350 108.574 C 308.275 109.750,309.380 110.278,311.889 110.742 C 313.363 111.014,314.403 111.485,315.185 112.232 C 315.813 112.832,316.962 113.443,317.736 113.588 C 324.856 114.924,331.113 114.364,334.547 112.085 C 335.691 111.325,337.060 110.704,337.589 110.704 C 338.430 110.704,339.754 110.227,341.755 109.201 C 342.073 109.038,342.503 108.534,342.709 108.080 C 342.920 107.619,343.599 107.147,344.252 107.008 C 345.786 106.683,346.670 105.866,346.971 104.492 C 347.141 103.717,347.451 103.375,347.983 103.375 C 349.258 103.375,350.277 102.613,350.858 101.223 C 351.222 100.350,351.667 99.904,352.174 99.904 C 352.594 99.904,353.717 99.079,354.668 98.071 L 356.398 96.239 362.674 96.113 C 370.325 95.958,372.994 96.222,373.012 97.135 C 373.031 98.086,374.295 99.441,375.428 99.726 C 376.920 100.100,376.902 99.181,376.778 168.177 L 376.663 231.630 320.154 231.735 C 289.074 231.793,263.255 231.747,262.777 231.632 L 261.909 231.422 261.909 222.172 C 261.909 217.084,261.953 212.884,262.006 212.837 C 262.059 212.791,271.067 212.661,282.024 212.548 C 300.914 212.354,301.987 212.305,302.756 211.608 C 304.367 210.150,303.558 205.001,301.504 203.637 C 300.821 203.183,297.374 203.063,281.978 202.957 C 271.163 202.882,262.991 202.673,262.595 202.461 C 261.963 202.123,261.909 201.241,261.909 191.122 L 261.909 180.150 262.777 179.958 C 263.255 179.852,266.770 179.712,270.588 179.646 C 279.806 179.488,281.523 178.623,280.247 174.781 C 278.998 171.022,277.619 170.426,269.641 170.194 C 260.985 169.943,261.909 171.361,261.909 158.328 C 261.909 152.289,261.953 147.310,262.006 147.262 C 262.059 147.215,273.616 147.085,287.688 146.973 C 317.385 146.737,314.556 147.224,314.265 142.400 C 313.949 137.162,315.128 137.366,285.034 137.339 C 268.305 137.324,262.721 137.205,262.372 136.856 C 261.519 136.003,261.725 96.537,262.584 96.312 C 263.614 96.043,292.618 96.013,293.315 96.280 M261.681 139.059 C 263.258 139.538,267.224 139.637,285.404 139.657 C 297.409 139.669,308.090 139.820,309.138 139.992 C 312.634 140.566,314.167 143.910,311.572 145.299 C 309.876 146.207,263.972 146.614,178.562 146.481 L 116.623 146.384 115.206 145.303 C 113.712 144.164,113.476 143.489,114.276 142.651 C 114.544 142.370,114.975 141.663,115.233 141.079 C 115.491 140.495,116.270 139.671,116.964 139.248 C 118.675 138.205,258.265 138.023,261.681 139.059 M261.016 171.701 C 261.614 171.942,265.038 172.279,268.627 172.449 C 275.678 172.784,275.927 172.869,277.285 175.406 C 279.236 179.052,281.006 178.975,189.973 179.197 C 112.300 179.386,116.677 179.489,114.456 177.420 L 113.624 176.645 114.591 174.826 C 115.123 173.826,116.141 172.615,116.853 172.135 L 118.147 171.263 189.039 171.263 C 241.040 171.263,260.220 171.380,261.016 171.701 M261.716 204.618 C 262.971 205.070,266.521 205.177,280.726 205.190 C 300.427 205.209,300.283 205.191,301.570 207.854 L 302.318 209.403 301.369 210.295 L 300.421 211.186 281.069 211.482 C 270.425 211.645,229.432 211.864,189.973 211.968 C 112.308 212.174,116.677 212.276,114.460 210.211 L 113.633 209.439 114.693 207.412 C 116.601 203.767,108.589 204.125,189.007 204.091 C 250.054 204.066,260.393 204.141,261.716 204.618 M261.716 244.574 C 260.868 244.749,225.795 244.903,183.777 244.915 C 122.323 244.933,107.248 245.034,106.704 245.431 C 106.074 245.893,106.037 247.202,106.150 265.200 C 106.284 286.567,106.242 286.214,108.736 287.027 C 109.500 287.276,110.539 287.802,111.045 288.195 C 111.551 288.588,112.341 288.910,112.800 288.910 C 113.260 288.910,113.800 289.064,114.002 289.253 C 114.213 289.450,169.037 289.654,243.483 289.735 L 372.598 289.875 373.217 288.991 C 373.558 288.504,374.483 287.699,375.273 287.200 C 377.600 285.731,377.628 285.466,377.628 264.335 C 377.628 246.522,377.587 245.406,376.922 244.804 C 376.145 244.101,265.078 243.878,261.716 244.574 M376.663 264.298 C 376.663 282.575,376.643 283.101,375.892 283.827 C 375.468 284.237,374.829 284.898,374.473 285.295 C 372.182 287.849,374.453 287.753,316.144 287.753 L 263.591 287.753 262.750 286.786 C 261.561 285.417,261.401 245.899,262.584 245.588 C 262.956 245.491,288.775 245.435,319.961 245.464 L 376.663 245.516 376.663 264.298 M251.173 255.298 C 263.930 260.774,260.173 280.668,246.515 279.964 C 242.638 279.764,237.055 276.429,236.258 273.837 C 236.100 273.323,235.828 272.722,235.653 272.502 C 235.304 272.062,234.552 269.329,234.277 267.502 C 233.936 265.232,237.101 258.052,238.443 258.052 C 238.745 258.052,239.816 257.252,240.919 256.204 C 242.642 254.565,248.302 254.065,251.173 255.298 M240.791 300.108 C 240.313 300.300,239.923 300.613,239.923 300.803 C 239.923 300.993,239.472 301.599,238.921 302.150 C 238.370 302.701,237.754 303.897,237.552 304.807 C 237.165 306.552,235.539 309.354,234.914 309.354 C 234.710 309.354,234.268 310.305,233.930 311.467 C 233.506 312.927,232.975 313.822,232.213 314.365 C 230.987 315.238,229.557 318.429,230.134 319.006 C 230.339 319.211,236.961 319.421,245.526 319.495 C 254.400 319.571,261.243 319.793,262.228 320.036 C 264.522 320.602,265.950 319.370,265.323 317.365 C 265.106 316.672,264.751 315.461,264.533 314.674 C 264.316 313.887,263.726 312.974,263.222 312.643 C 262.191 311.968,260.752 309.398,260.752 308.232 C 260.752 307.810,260.204 306.952,259.534 306.326 C 258.376 305.243,256.896 302.158,256.895 300.824 C 256.895 299.760,243.173 299.151,240.791 300.108 M263.918 318.686 C 263.760 318.843,263.252 318.873,262.789 318.751 L 261.946 318.531 262.788 317.392 L 263.630 316.253 263.917 317.327 C 264.074 317.917,264.075 318.529,263.918 318.686 M233.441 329.315 L 205.552 329.417 204.994 330.752 C 204.687 331.486,204.436 333.213,204.436 334.589 L 204.436 337.091 205.689 337.281 C 209.529 337.863,289.590 337.894,290.072 337.314 C 290.573 336.710,290.415 330.286,289.877 329.416 C 289.720 329.162,284.704 329.059,275.484 329.120 C 267.699 329.172,248.780 329.259,233.441 329.315 M289.498 332.217 C 289.628 332.911,289.679 334.256,289.612 335.206 L 289.489 336.933 276.953 337.045 C 261.448 337.183,261.909 337.247,261.909 334.952 C 261.909 333.716,262.166 332.873,262.777 332.098 L 263.645 330.997 276.453 330.976 L 289.261 330.955 289.498 332.217 " stroke="none" fill="#d3ebeb" fill-rule="evenodd"></path><path id="path2" d="M0.000 43.202 L 0.000 86.403 1.179 86.403 C 1.828 86.403,3.086 86.237,3.976 86.034 C 7.140 85.313,11.810 84.490,14.851 84.118 C 19.956 83.495,23.112 82.954,23.822 82.581 C 25.619 81.638,28.377 80.963,32.594 80.436 C 37.896 79.774,41.294 79.139,41.851 78.707 C 42.753 78.009,46.833 77.132,51.688 76.592 C 54.552 76.274,58.110 75.766,59.595 75.465 C 61.080 75.163,64.031 74.562,66.152 74.128 C 68.274 73.694,71.225 73.226,72.710 73.089 C 76.271 72.759,81.339 71.770,82.546 71.170 C 83.838 70.527,88.667 69.540,91.996 69.238 C 94.759 68.987,95.053 68.920,99.711 67.488 C 102.527 66.623,104.816 66.207,110.318 65.563 C 113.708 65.166,115.529 64.841,121.119 63.636 C 124.029 63.009,128.604 62.305,134.938 61.509 C 136.068 61.366,138.064 60.828,139.374 60.313 C 140.684 59.798,143.057 59.204,144.648 58.994 C 150.999 58.156,153.086 57.747,156.456 56.677 C 158.528 56.019,162.011 55.325,164.942 54.985 C 171.679 54.204,175.126 53.678,176.278 53.256 C 177.738 52.720,182.737 51.751,185.342 51.500 C 189.446 51.104,196.314 49.841,196.914 49.372 C 197.555 48.871,201.758 47.922,204.629 47.629 C 207.973 47.288,214.036 46.030,214.614 45.558 C 215.141 45.127,220.641 44.129,224.301 43.800 C 227.037 43.554,234.322 42.214,234.915 41.847 C 235.252 41.639,240.852 40.783,246.480 40.080 C 249.732 39.674,253.646 38.741,254.388 38.196 C 255.316 37.513,259.712 36.962,260.571 37.422 C 261.815 38.087,261.909 39.850,261.909 62.307 L 261.909 82.070 262.777 82.303 C 264.060 82.646,282.385 82.520,283.510 82.160 C 284.041 81.990,284.270 81.834,284.020 81.813 C 283.428 81.763,282.353 78.046,282.353 76.053 C 282.353 74.818,282.085 74.217,281.046 73.115 C 280.328 72.353,279.632 71.256,279.500 70.677 C 278.545 66.488,278.261 32.829,279.156 29.894 C 279.404 29.080,279.959 28.533,281.027 28.052 C 281.862 27.675,282.806 27.196,283.124 26.988 C 283.443 26.780,284.137 26.397,284.667 26.138 C 285.198 25.879,285.729 25.532,285.849 25.367 C 286.126 24.985,290.206 23.915,291.387 23.915 C 291.978 23.915,292.594 23.457,293.200 22.567 C 293.859 21.600,294.499 21.154,295.468 20.988 C 297.705 20.604,299.464 19.946,300.482 19.112 C 302.131 17.761,303.081 17.376,305.387 17.121 C 306.929 16.951,308.213 16.497,309.547 15.651 C 312.293 13.908,313.259 13.557,316.103 13.265 C 318.363 13.034,318.648 12.909,318.863 12.055 C 319.612 9.070,328.870 9.030,330.987 12.003 C 331.571 12.823,332.170 13.125,333.569 13.305 C 334.571 13.434,335.657 13.683,335.982 13.857 C 336.307 14.031,337.107 14.291,337.759 14.434 C 338.428 14.581,339.156 15.090,339.430 15.603 C 339.842 16.372,340.395 16.578,343.054 16.954 C 346.459 17.436,348.390 18.152,349.167 19.221 C 349.735 20.003,351.308 20.660,353.480 21.021 C 355.289 21.322,356.684 22.176,357.002 23.178 C 357.131 23.584,357.579 23.915,357.999 23.915 C 359.869 23.915,363.981 25.206,364.745 26.033 C 365.190 26.515,366.203 27.218,366.995 27.593 C 368.098 28.117,368.676 28.783,369.463 30.435 L 370.492 32.594 370.460 47.637 C 370.439 57.972,370.279 63.405,369.951 64.995 C 369.689 66.268,369.219 69.392,368.908 71.938 C 368.264 77.198,367.878 78.415,366.404 79.823 C 364.070 82.054,364.468 82.320,370.631 82.644 C 376.471 82.952,378.550 83.512,378.989 84.896 C 379.117 85.300,379.688 85.727,380.257 85.847 C 381.897 86.190,382.398 86.566,383.221 88.074 C 383.645 88.851,384.266 89.487,384.600 89.488 C 385.374 89.489,386.885 91.080,386.885 91.893 C 386.885 93.013,387.363 93.786,388.268 94.130 C 390.464 94.965,390.357 89.905,390.357 192.307 C 390.357 295.470,390.530 288.068,388.053 290.645 C 387.440 291.282,386.823 292.274,386.681 292.850 C 386.343 294.221,384.823 295.710,383.221 296.239 C 382.516 296.472,381.845 296.907,381.730 297.206 C 381.616 297.505,380.776 298.234,379.864 298.826 L 378.206 299.904 322.581 300.009 C 275.341 300.098,266.986 300.195,267.160 300.649 C 267.273 300.943,267.762 301.284,268.247 301.405 C 269.292 301.667,270.301 304.009,270.654 306.987 C 270.783 308.077,271.021 308.968,271.182 308.968 C 272.002 308.968,273.788 312.691,274.310 315.488 C 274.688 317.513,275.736 318.954,276.853 318.984 C 277.116 318.991,277.549 319.344,277.814 319.769 C 278.273 320.504,278.720 320.541,287.364 320.552 C 300.280 320.570,299.711 319.920,299.711 334.649 L 299.711 345.114 298.765 346.135 L 297.819 347.155 280.732 347.161 C 259.757 347.167,262.031 346.595,261.819 351.915 C 261.696 355.006,261.458 356.575,260.975 357.481 L 260.303 358.742 244.809 358.503 C 235.329 358.356,225.348 358.434,219.094 358.702 C 213.472 358.943,204.966 359.297,200.193 359.488 C 179.797 360.305,166.328 361.210,163.294 361.967 C 159.652 362.875,156.370 363.335,150.627 363.740 C 143.180 364.265,137.730 364.857,136.355 365.290 C 133.449 366.204,129.330 366.895,123.819 367.394 C 116.098 368.093,111.190 368.709,109.740 369.162 C 108.540 369.536,102.646 370.401,96.625 371.086 C 93.055 371.492,88.731 372.383,87.367 372.992 C 85.615 373.775,82.104 374.505,78.110 374.915 C 75.689 375.164,72.664 375.762,71.066 376.309 C 67.683 377.466,65.852 377.862,60.559 378.579 C 58.332 378.881,55.121 379.499,53.423 379.952 C 49.704 380.946,45.937 381.707,42.044 382.252 C 37.222 382.926,35.101 383.704,35.101 384.800 L 35.101 385.728 217.551 385.728 L 400.000 385.728 400.000 192.864 L 400.000 0.000 200.000 0.000 L 0.000 0.000 0.000 43.202 M343.308 47.619 C 342.934 48.317,342.351 48.682,341.359 48.841 C 340.117 49.040,339.900 49.241,339.595 50.474 C 339.327 51.559,338.918 52.042,337.801 52.588 C 336.930 53.013,336.262 53.658,336.125 54.207 C 335.889 55.146,334.462 56.316,333.553 56.316 C 333.270 56.316,332.820 56.920,332.553 57.657 C 332.169 58.720,331.757 59.092,330.566 59.449 C 329.427 59.790,328.964 60.183,328.654 61.072 C 328.134 62.564,327.160 63.645,326.336 63.645 C 325.982 63.645,325.446 64.207,325.142 64.899 C 324.801 65.674,324.038 66.422,323.144 66.859 C 322.348 67.248,321.697 67.785,321.697 68.054 C 321.697 68.916,320.293 70.194,319.080 70.437 C 318.242 70.604,317.832 70.953,317.658 71.645 C 316.955 74.446,310.020 74.837,309.159 72.125 C 308.711 70.715,304.216 66.622,302.797 66.332 C 302.054 66.180,301.175 65.942,300.844 65.801 C 299.883 65.395,299.102 67.156,299.770 68.225 C 300.054 68.681,300.564 69.142,300.902 69.249 C 301.239 69.356,301.750 69.881,302.036 70.415 C 302.321 70.949,303.122 71.736,303.814 72.164 C 304.506 72.592,305.422 73.508,305.850 74.200 C 306.277 74.892,307.070 75.695,307.612 75.985 C 308.153 76.275,309.036 77.088,309.573 77.793 C 310.111 78.498,311.106 79.350,311.785 79.686 C 312.463 80.022,313.389 80.737,313.841 81.275 L 314.664 82.252 315.107 80.910 C 315.445 79.887,315.903 79.429,317.035 78.984 C 318.179 78.535,318.624 78.085,318.976 77.018 C 319.319 75.977,319.760 75.516,320.757 75.156 C 321.486 74.892,322.088 74.407,322.095 74.079 C 322.116 73.075,323.094 72.109,324.476 71.728 C 325.482 71.450,325.946 71.010,326.459 69.847 C 326.951 68.731,327.424 68.264,328.238 68.085 C 329.074 67.901,329.498 67.462,329.964 66.300 C 330.396 65.219,330.954 64.601,331.828 64.232 C 332.565 63.921,333.284 63.226,333.584 62.534 C 333.916 61.767,334.556 61.194,335.438 60.875 C 336.334 60.551,336.990 59.957,337.396 59.103 C 337.734 58.391,338.500 57.612,339.114 57.356 C 339.724 57.102,340.524 56.297,340.892 55.566 C 341.261 54.835,342.083 53.954,342.719 53.608 C 343.356 53.262,344.057 52.620,344.277 52.181 C 344.942 50.859,345.671 50.145,346.354 50.145 C 348.107 50.145,348.185 47.658,346.443 47.326 C 345.880 47.219,345.064 47.017,344.630 46.878 C 344.032 46.686,343.711 46.866,343.308 47.619 M262.584 96.312 C 261.725 96.537,261.519 136.003,262.372 136.856 C 262.721 137.205,268.305 137.324,285.034 137.339 C 315.128 137.366,313.949 137.162,314.265 142.400 C 314.556 147.224,317.385 146.737,287.688 146.973 C 273.616 147.085,262.059 147.215,262.006 147.262 C 261.953 147.310,261.909 152.289,261.909 158.328 C 261.909 171.361,260.985 169.943,269.641 170.194 C 277.619 170.426,278.998 171.022,280.247 174.781 C 281.523 178.623,279.806 179.488,270.588 179.646 C 266.770 179.712,263.255 179.852,262.777 179.958 L 261.909 180.150 261.909 191.122 C 261.909 201.241,261.963 202.123,262.595 202.461 C 262.991 202.673,271.163 202.882,281.978 202.957 C 297.374 203.063,300.821 203.183,301.504 203.637 C 303.558 205.001,304.367 210.150,302.756 211.608 C 301.987 212.305,300.914 212.354,282.024 212.548 C 271.067 212.661,262.059 212.791,262.006 212.837 C 261.953 212.884,261.909 217.084,261.909 222.172 L 261.909 231.422 262.777 231.632 C 263.255 231.747,289.074 231.793,320.154 231.735 L 376.663 231.630 376.778 168.177 C 376.902 99.181,376.920 100.100,375.428 99.726 C 374.295 99.441,373.031 98.086,373.012 97.135 C 372.994 96.222,370.325 95.958,362.674 96.113 L 356.398 96.239 354.668 98.071 C 353.717 99.079,352.594 99.904,352.174 99.904 C 351.667 99.904,351.222 100.350,350.858 101.223 C 350.277 102.613,349.258 103.375,347.983 103.375 C 347.451 103.375,347.141 103.717,346.971 104.492 C 346.670 105.866,345.786 106.683,344.252 107.008 C 343.599 107.147,342.920 107.619,342.709 108.080 C 342.503 108.534,342.073 109.038,341.755 109.201 C 339.754 110.227,338.430 110.704,337.589 110.704 C 337.060 110.704,335.691 111.325,334.547 112.085 C 331.113 114.364,324.856 114.924,317.736 113.588 C 316.962 113.443,315.813 112.832,315.185 112.232 C 314.403 111.485,313.363 111.014,311.889 110.742 C 309.380 110.278,308.275 109.750,307.350 108.574 C 306.982 108.106,305.740 107.248,304.589 106.665 C 303.438 106.083,302.265 105.174,301.982 104.646 C 301.700 104.117,300.704 103.325,299.771 102.887 C 298.584 102.328,297.913 101.704,297.537 100.804 C 297.242 100.096,296.812 99.518,296.583 99.518 C 295.777 99.518,293.925 97.915,293.925 97.218 C 293.925 96.831,293.650 96.409,293.315 96.280 C 292.618 96.013,263.614 96.043,262.584 96.312 M262.584 245.588 C 261.401 245.899,261.561 285.417,262.750 286.786 L 263.591 287.753 316.144 287.753 C 374.453 287.753,372.182 287.849,374.473 285.295 C 374.829 284.898,375.468 284.237,375.892 283.827 C 376.643 283.101,376.663 282.575,376.663 264.298 L 376.663 245.516 319.961 245.464 C 288.775 245.435,262.956 245.491,262.584 245.588 M262.788 317.392 L 261.946 318.531 262.789 318.751 C 263.921 319.048,264.262 318.617,263.917 317.327 L 263.630 316.253 262.788 317.392 M262.777 332.098 C 262.166 332.873,261.909 333.716,261.909 334.952 C 261.909 337.247,261.448 337.183,276.953 337.045 L 289.489 336.933 289.612 335.206 C 289.679 334.256,289.628 332.911,289.498 332.217 L 289.261 330.955 276.453 330.976 L 263.645 330.997 262.777 332.098 " stroke="none" fill="#fbfcfb" fill-rule="evenodd"></path><path id="path3" d="M323.047 11.698 C 322.411 11.947,321.456 12.441,320.926 12.797 C 320.395 13.152,318.794 13.817,317.366 14.274 C 315.939 14.731,314.185 15.503,313.468 15.989 C 312.751 16.476,310.882 17.258,309.313 17.729 C 307.744 18.199,305.419 19.073,304.147 19.671 C 302.874 20.270,300.617 21.144,299.132 21.614 C 297.647 22.085,296.085 22.759,295.661 23.113 C 294.691 23.923,293.542 24.461,290.766 25.407 C 289.559 25.818,287.997 26.592,287.294 27.127 C 286.592 27.662,285.183 28.310,284.164 28.566 C 279.668 29.696,279.387 31.156,279.792 51.302 C 280.047 63.983,280.407 67.454,281.672 69.440 C 282.007 69.966,282.572 71.697,282.929 73.288 C 283.669 76.596,284.478 78.712,285.703 80.546 C 287.926 83.875,286.657 84.193,272.324 83.902 C 266.278 83.779,226.789 83.640,184.571 83.594 L 107.811 83.510 106.461 84.368 C 105.718 84.840,104.223 85.644,103.138 86.156 C 101.761 86.805,101.004 87.449,100.633 88.288 C 100.340 88.948,99.910 89.489,99.676 89.489 C 98.906 89.489,97.646 90.863,97.356 92.019 C 97.200 92.643,96.513 93.674,95.830 94.311 C 93.618 96.372,93.732 91.045,93.732 192.358 L 93.732 286.627 94.539 288.208 C 94.983 289.078,95.692 290.156,96.116 290.604 C 96.540 291.051,97.286 292.200,97.775 293.156 C 98.369 294.317,99.195 295.192,100.265 295.794 C 101.146 296.289,102.305 297.100,102.841 297.597 C 105.236 299.816,101.959 299.708,167.764 299.738 C 223.747 299.763,230.442 299.860,229.204 300.625 C 228.958 300.776,228.567 301.607,228.335 302.471 C 228.090 303.379,227.362 304.553,226.610 305.252 C 225.841 305.966,224.961 307.397,224.461 308.749 C 223.993 310.014,223.138 311.439,222.549 311.934 C 221.835 312.535,221.327 313.497,221.009 314.853 C 220.380 317.534,219.818 318.565,218.684 319.123 C 218.167 319.377,217.495 320.147,217.192 320.834 L 216.640 322.083 207.246 322.083 C 194.493 322.083,195.164 321.438,195.213 333.655 C 195.250 342.822,195.525 345.403,196.549 346.177 C 197.406 346.825,238.508 346.957,276.480 346.432 L 296.644 346.154 297.658 345.140 L 298.673 344.126 298.858 335.460 C 299.063 325.893,299.013 325.441,297.586 323.915 L 296.594 322.854 287.378 322.854 L 278.163 322.854 276.447 321.408 C 274.462 319.734,273.684 318.572,273.285 316.683 C 273.127 315.940,272.428 314.465,271.731 313.404 C 271.033 312.343,270.176 310.482,269.826 309.268 C 269.130 306.853,268.230 304.863,267.681 304.523 C 266.790 303.973,266.104 300.314,266.797 299.808 C 267.317 299.427,278.141 299.320,317.817 299.303 C 375.633 299.277,376.079 299.262,378.656 297.254 C 379.645 296.484,380.678 295.853,380.951 295.853 C 381.829 295.853,385.424 291.910,386.204 290.092 C 386.619 289.124,387.333 287.551,387.790 286.596 L 388.621 284.860 388.721 192.690 L 388.822 100.519 387.797 97.801 C 384.443 88.904,378.935 84.903,369.142 84.249 C 365.717 84.020,364.983 83.854,364.390 83.173 C 363.667 82.342,363.755 80.098,364.543 79.286 C 364.739 79.085,364.899 78.648,364.899 78.316 C 364.899 77.984,365.220 77.108,365.613 76.368 C 367.886 72.093,368.370 67.101,368.370 47.931 C 368.370 36.861,368.237 31.706,367.936 31.122 C 367.181 29.656,365.996 28.592,364.835 28.337 C 364.216 28.201,362.578 27.428,361.194 26.619 C 359.810 25.811,358.040 25.029,357.260 24.883 C 356.481 24.737,355.066 24.092,354.115 23.451 C 353.165 22.810,351.167 21.891,349.675 21.411 C 348.183 20.930,345.806 19.995,344.393 19.333 C 342.979 18.671,341.591 18.125,341.307 18.120 C 340.164 18.099,336.279 16.568,335.102 15.674 C 334.412 15.151,333.195 14.602,332.397 14.454 C 331.599 14.306,330.851 14.031,330.735 13.842 C 330.619 13.654,330.217 13.500,329.843 13.500 C 329.469 13.500,328.482 12.985,327.648 12.354 C 326.033 11.132,324.905 10.971,323.047 11.698 M327.379 14.812 C 328.179 15.109,329.697 15.577,330.753 15.851 C 331.809 16.125,333.068 16.777,333.551 17.298 C 334.115 17.906,335.566 18.575,337.594 19.163 C 339.334 19.667,340.852 20.218,340.967 20.387 C 341.458 21.108,343.722 22.043,346.973 22.865 C 349.069 23.394,350.988 24.150,351.795 24.762 C 352.531 25.321,353.787 25.900,354.585 26.048 C 355.383 26.196,356.131 26.471,356.247 26.659 C 356.363 26.847,356.816 27.001,357.252 27.001 C 357.689 27.001,358.631 27.514,359.345 28.141 C 360.059 28.768,361.384 29.481,362.289 29.727 C 366.886 30.974,366.562 29.301,366.371 50.781 L 366.225 67.310 365.155 69.584 C 364.567 70.835,363.934 72.660,363.748 73.639 C 363.058 77.277,362.042 80.826,361.549 81.320 C 361.270 81.601,361.117 82.208,361.210 82.670 C 361.303 83.132,361.471 83.952,361.583 84.491 C 361.902 86.019,363.981 86.672,369.335 86.924 C 376.291 87.252,378.565 88.067,381.901 91.429 C 386.496 96.061,386.175 88.001,386.015 194.793 C 385.863 296.055,386.097 288.231,383.138 291.082 C 382.229 291.958,381.485 292.854,381.485 293.073 C 381.485 293.291,380.661 293.867,379.653 294.353 C 378.645 294.838,377.587 295.465,377.302 295.746 C 375.325 297.695,378.615 297.581,320.926 297.689 C 273.902 297.778,267.353 297.860,266.254 298.380 C 264.266 299.320,264.043 300.135,264.968 303.081 C 265.407 304.481,265.767 305.762,265.767 305.928 C 265.767 306.094,266.275 306.982,266.896 307.903 C 267.517 308.823,268.141 310.090,268.283 310.719 C 268.826 313.132,269.752 315.135,270.573 315.673 C 271.072 316.000,271.707 317.123,272.101 318.376 C 273.801 323.780,274.696 324.162,286.210 324.398 C 293.096 324.540,295.907 324.732,296.570 325.109 L 297.479 325.626 297.308 334.173 C 297.133 342.968,297.021 343.784,295.920 344.329 C 294.508 345.027,198.045 344.927,197.463 344.227 C 196.389 342.932,196.433 326.104,197.514 324.953 L 198.399 324.012 207.614 324.012 C 213.783 324.012,217.108 323.866,217.672 323.570 C 219.430 322.650,222.565 318.651,222.565 317.330 C 222.565 317.149,223.092 316.268,223.736 315.371 C 224.380 314.474,225.313 312.743,225.808 311.524 C 226.303 310.306,227.093 308.867,227.562 308.327 C 228.557 307.183,230.280 304.046,230.280 303.380 C 230.280 303.127,230.709 302.725,231.233 302.486 C 232.439 301.937,232.919 300.256,232.103 299.440 C 230.936 298.274,227.378 298.201,170.106 298.177 C 107.466 298.150,108.205 298.174,105.460 296.078 C 104.464 295.318,103.500 294.696,103.316 294.696 C 102.978 294.696,101.175 293.208,99.811 291.803 C 99.399 291.379,98.702 290.251,98.262 289.296 C 97.822 288.341,97.189 287.240,96.855 286.849 C 95.327 285.061,95.325 284.955,95.300 192.453 C 95.273 96.375,95.188 100.251,97.393 96.491 C 98.108 95.270,98.802 93.838,98.935 93.308 C 99.074 92.755,99.828 91.941,100.701 91.401 C 101.539 90.883,102.325 90.144,102.447 89.759 C 102.644 89.138,103.221 88.800,106.268 87.513 C 108.920 86.394,113.837 86.339,199.136 86.466 L 285.833 86.596 287.060 85.607 C 288.856 84.161,288.417 77.146,286.531 77.146 C 285.793 77.146,284.955 75.002,284.467 71.866 C 283.670 66.735,283.256 64.741,282.515 62.451 C 281.673 59.852,281.196 35.629,281.953 33.944 C 283.224 31.114,283.984 30.450,286.586 29.890 C 287.323 29.732,288.609 29.147,289.444 28.591 C 292.614 26.479,292.986 26.285,293.925 26.249 C 295.142 26.203,298.151 24.853,298.710 24.103 C 298.942 23.791,299.913 23.371,300.868 23.171 C 304.664 22.375,305.950 21.937,307.750 20.830 C 308.782 20.195,310.216 19.560,310.937 19.419 C 312.924 19.031,315.212 17.953,316.387 16.852 C 317.060 16.221,318.105 15.768,319.280 15.598 C 320.291 15.452,321.292 15.195,321.504 15.029 C 321.882 14.733,323.345 14.445,325.065 14.330 C 325.538 14.298,326.579 14.515,327.379 14.812 M342.719 42.514 C 341.717 43.077,340.681 44.261,340.390 45.176 C 340.264 45.575,339.920 45.902,339.627 45.902 C 338.985 45.902,337.543 47.244,336.623 48.698 C 336.253 49.282,335.713 49.759,335.422 49.759 C 334.828 49.759,329.412 54.980,329.412 55.553 C 329.412 55.754,328.761 56.353,327.965 56.882 C 327.170 57.412,326.172 58.370,325.747 59.011 C 325.323 59.653,324.705 60.265,324.375 60.371 C 323.788 60.560,319.771 64.367,318.092 66.327 C 316.057 68.702,314.485 69.519,313.116 68.912 C 312.426 68.607,311.541 68.250,311.149 68.120 C 310.758 67.990,310.358 67.581,310.261 67.211 C 310.164 66.841,309.560 66.104,308.919 65.574 C 308.278 65.043,307.073 63.915,306.241 63.067 C 303.455 60.226,298.087 60.235,297.005 63.082 C 296.806 63.604,296.464 64.031,296.243 64.031 C 295.667 64.031,294.314 66.384,294.312 67.388 C 294.311 67.886,295.029 68.947,296.046 69.949 C 297.001 70.890,297.782 71.905,297.782 72.204 C 297.782 72.503,298.465 73.173,299.301 73.693 C 300.136 74.213,300.916 75.013,301.035 75.471 C 301.161 75.957,301.934 76.635,302.891 77.099 C 303.888 77.582,304.723 78.329,305.019 79.000 C 305.287 79.608,305.981 80.351,306.562 80.651 C 307.922 81.353,308.297 81.737,308.860 83.009 C 309.421 84.280,310.887 85.081,313.313 85.445 C 315.625 85.792,316.042 85.530,321.311 80.403 C 329.248 72.683,336.848 65.350,338.996 63.341 C 340.195 62.219,341.350 61.116,341.562 60.889 C 341.774 60.663,343.250 59.193,344.841 57.622 C 346.432 56.052,347.907 54.589,348.120 54.372 C 348.332 54.155,349.510 52.970,350.738 51.739 C 352.877 49.593,353.441 47.445,351.865 47.445 C 351.686 47.445,351.134 46.707,350.637 45.805 C 349.517 43.772,348.641 42.901,347.477 42.663 C 345.075 42.172,343.421 42.120,342.719 42.514 M347.445 44.967 C 347.922 45.065,348.312 45.340,348.312 45.577 C 348.312 45.815,348.673 46.732,349.113 47.613 L 349.914 49.217 343.706 55.370 C 340.292 58.755,334.803 64.127,331.510 67.310 C 328.217 70.492,323.180 75.414,320.317 78.247 C 315.205 83.306,315.088 83.393,313.742 83.141 C 311.915 82.798,310.511 82.134,310.511 81.612 C 310.511 81.378,309.969 80.755,309.306 80.227 C 308.644 79.699,307.732 78.871,307.281 78.386 C 306.830 77.902,306.040 77.120,305.525 76.650 C 303.244 74.565,298.939 70.145,298.939 69.887 C 298.939 69.731,298.420 69.147,297.786 68.591 L 296.632 67.579 297.882 65.663 C 299.953 62.490,302.201 62.300,305.111 65.052 C 305.853 65.754,307.589 67.421,308.968 68.756 C 310.347 70.092,312.192 71.462,313.068 71.801 L 314.661 72.418 316.430 70.828 C 317.403 69.954,320.708 66.808,323.774 63.838 C 326.840 60.868,329.754 58.072,330.248 57.624 C 330.743 57.176,331.514 56.395,331.961 55.888 C 332.409 55.381,333.190 54.591,333.697 54.132 C 334.204 53.673,334.817 53.089,335.058 52.835 C 335.589 52.276,339.348 48.514,339.740 48.149 C 344.142 44.054,343.761 44.211,347.445 44.967 M289.536 93.621 C 289.385 93.772,248.514 93.989,198.712 94.103 C 97.130 94.336,107.126 94.011,105.148 97.144 C 102.848 100.788,102.989 96.220,102.989 166.974 C 102.989 237.578,102.854 233.065,105.036 234.997 C 106.235 236.058,102.062 236.020,242.623 236.273 L 377.049 236.516 378.014 235.488 L 378.978 234.461 379.084 167.086 C 379.181 105.603,379.135 99.565,378.561 98.050 C 377.122 94.244,375.374 93.745,363.319 93.703 C 353.758 93.669,352.197 93.947,351.337 95.833 C 351.091 96.375,350.687 96.818,350.442 96.818 C 349.838 96.818,347.731 98.773,347.423 99.620 C 347.287 99.995,346.693 100.483,346.104 100.705 C 345.516 100.928,344.230 101.786,343.247 102.613 C 342.264 103.440,340.443 104.566,339.200 105.116 C 337.958 105.665,336.592 106.432,336.166 106.820 C 335.410 107.508,334.978 107.675,330.569 108.985 C 329.402 109.332,327.881 110.045,327.189 110.569 C 325.733 111.672,323.121 111.553,321.698 110.319 C 320.677 109.434,319.329 108.922,316.622 108.392 C 315.422 108.156,314.034 107.603,313.537 107.162 C 312.452 106.200,309.035 104.541,308.127 104.536 C 307.770 104.534,307.119 104.028,306.680 103.412 C 306.241 102.795,305.138 101.855,304.229 101.322 C 303.319 100.789,302.346 99.924,302.065 99.400 C 301.784 98.875,301.135 98.255,300.622 98.021 C 300.108 97.787,299.347 97.016,298.929 96.308 C 297.662 94.161,290.924 92.233,289.536 93.621 M294.127 95.496 C 294.926 95.830,296.935 97.436,298.592 99.064 C 302.000 102.414,302.215 102.596,303.622 103.321 C 304.182 103.610,304.848 104.234,305.102 104.708 C 305.356 105.182,306.286 105.889,307.169 106.279 C 308.053 106.668,309.547 107.476,310.491 108.074 C 311.435 108.673,313.647 109.611,315.407 110.160 C 317.167 110.708,318.712 111.326,318.840 111.533 C 320.110 113.589,328.018 113.539,330.928 111.458 C 331.473 111.068,332.874 110.460,334.041 110.107 C 337.398 109.090,342.884 106.229,344.268 104.772 C 344.695 104.322,345.737 103.449,346.582 102.831 C 347.973 101.816,348.781 101.083,352.805 97.190 C 354.618 95.435,355.890 95.219,364.127 95.263 C 373.832 95.314,375.074 95.710,377.146 99.416 C 377.976 100.901,377.838 231.915,377.005 233.186 L 376.382 234.137 319.712 234.137 C 270.211 234.137,262.867 234.064,261.657 233.558 C 260.442 233.051,250.902 232.980,183.797 232.980 L 107.321 232.980 106.698 232.029 C 106.054 231.046,105.700 106.745,106.327 101.531 C 106.671 98.665,108.684 96.451,111.342 96.014 C 112.370 95.845,145.931 95.672,185.921 95.631 C 246.821 95.567,284.342 95.329,291.274 94.963 C 292.044 94.922,293.327 95.162,294.127 95.496 M116.964 139.248 C 116.270 139.671,115.491 140.495,115.233 141.079 C 114.975 141.663,114.544 142.370,114.276 142.651 C 113.476 143.489,113.712 144.164,115.206 145.303 L 116.623 146.384 178.562 146.481 C 263.972 146.614,309.876 146.207,311.572 145.299 C 314.167 143.910,312.634 140.566,309.138 139.992 C 308.090 139.820,297.409 139.669,285.404 139.657 C 267.224 139.637,263.258 139.538,261.681 139.059 C 258.265 138.023,118.675 138.205,116.964 139.248 M308.005 143.352 C 310.076 144.147,299.187 144.251,213.693 144.251 C 124.857 144.252,116.765 144.184,118.632 143.453 C 119.536 143.099,307.086 142.999,308.005 143.352 M116.853 172.135 C 116.141 172.615,115.123 173.826,114.591 174.826 L 113.624 176.645 114.456 177.420 C 116.677 179.489,112.300 179.386,189.973 179.197 C 281.006 178.975,279.236 179.052,277.285 175.406 C 275.927 172.869,275.678 172.784,268.627 172.449 C 265.038 172.279,261.614 171.942,261.016 171.701 C 260.220 171.380,241.040 171.263,189.039 171.263 L 118.147 171.263 116.853 172.135 M272.945 176.163 L 274.831 176.433 273.288 176.719 C 271.386 177.071,120.137 177.137,118.825 176.786 C 117.951 176.552,117.937 176.512,118.632 176.240 C 119.577 175.870,270.381 175.795,272.945 176.163 M116.797 204.752 C 116.224 205.100,115.277 206.297,114.693 207.412 L 113.633 209.439 114.460 210.211 C 116.677 212.276,112.308 212.174,189.973 211.968 C 229.432 211.864,270.425 211.645,281.069 211.482 L 300.421 211.186 301.369 210.295 L 302.318 209.403 301.570 207.854 C 300.283 205.191,300.427 205.209,280.726 205.190 C 266.521 205.177,262.971 205.070,261.716 204.618 C 259.213 203.716,118.292 203.847,116.797 204.752 M297.445 208.945 C 300.969 209.665,290.860 209.761,208.293 209.792 C 124.557 209.824,116.766 209.757,118.632 209.027 C 119.569 208.660,295.657 208.580,297.445 208.945 M183.962 243.006 L 105.822 243.202 104.406 244.282 L 102.989 245.362 102.989 263.709 C 102.989 285.351,102.918 284.859,106.590 288.531 C 107.404 289.345,108.619 290.265,109.291 290.575 C 111.300 291.503,372.815 291.696,374.172 290.771 C 374.694 290.415,375.988 289.324,377.049 288.346 L 378.978 286.567 379.087 265.604 L 379.196 244.641 377.996 243.632 L 376.797 242.623 319.450 242.717 C 287.909 242.769,226.939 242.899,183.962 243.006 M376.922 244.804 C 377.587 245.406,377.628 246.522,377.628 264.335 C 377.628 285.466,377.600 285.731,375.273 287.200 C 374.483 287.699,373.558 288.504,373.217 288.991 L 372.598 289.875 243.483 289.735 C 169.037 289.654,114.213 289.450,114.002 289.253 C 113.800 289.064,113.260 288.910,112.800 288.910 C 112.341 288.910,111.551 288.588,111.045 288.195 C 110.539 287.802,109.500 287.276,108.736 287.027 C 106.242 286.214,106.284 286.567,106.150 265.200 C 106.037 247.202,106.074 245.893,106.704 245.431 C 107.248 245.034,122.323 244.933,183.777 244.915 C 225.795 244.903,260.868 244.749,261.716 244.574 C 265.078 243.878,376.145 244.101,376.922 244.804 M239.818 298.522 C 238.451 298.802,236.451 300.234,236.451 300.931 C 236.451 301.572,234.753 305.111,234.445 305.111 C 234.103 305.111,232.208 309.023,232.208 309.728 C 232.208 310.311,231.005 312.148,230.261 312.701 C 229.925 312.951,229.317 313.905,228.910 314.823 C 228.502 315.740,227.776 316.922,227.296 317.450 C 226.815 317.978,226.422 318.521,226.422 318.657 C 226.422 318.912,227.520 321.634,227.681 321.780 C 227.731 321.825,235.236 321.974,244.359 322.110 C 253.481 322.246,261.526 322.492,262.236 322.656 C 264.883 323.265,267.617 321.560,268.289 318.881 C 268.479 318.123,268.385 317.784,267.935 317.612 C 267.566 317.470,266.906 315.992,266.279 313.902 C 265.485 311.256,264.984 310.241,264.179 309.646 C 263.533 309.168,262.780 307.946,262.243 306.505 C 261.759 305.208,261.032 303.799,260.627 303.375 C 260.222 302.951,259.640 302.022,259.335 301.311 C 258.060 298.340,258.155 298.369,249.255 298.292 C 244.865 298.255,240.618 298.358,239.818 298.522 M255.105 299.956 C 256.394 300.133,256.895 300.376,256.895 300.824 C 256.896 302.158,258.376 305.243,259.534 306.326 C 260.204 306.952,260.752 307.810,260.752 308.232 C 260.752 309.398,262.191 311.968,263.222 312.643 C 263.726 312.974,264.316 313.887,264.533 314.674 C 264.751 315.461,265.106 316.672,265.323 317.365 C 265.950 319.370,264.522 320.602,262.228 320.036 C 261.243 319.793,254.400 319.571,245.526 319.495 C 236.961 319.421,230.339 319.211,230.134 319.006 C 229.557 318.429,230.987 315.238,232.213 314.365 C 232.975 313.822,233.506 312.927,233.930 311.467 C 234.268 310.305,234.710 309.354,234.914 309.354 C 235.539 309.354,237.165 306.552,237.552 304.807 C 237.754 303.897,238.370 302.701,238.921 302.150 C 239.472 301.599,239.923 300.993,239.923 300.803 C 239.923 299.828,250.049 299.263,255.105 299.956 M233.173 327.477 C 200.331 327.706,202.372 327.453,201.406 331.415 C 200.396 335.555,200.877 337.229,203.473 338.620 L 205.003 339.441 247.483 339.441 C 297.745 339.441,291.996 340.200,291.996 333.565 L 291.996 329.288 290.769 328.193 L 289.543 327.097 275.630 327.188 C 267.977 327.237,248.872 327.368,233.173 327.477 M289.877 329.416 C 290.415 330.286,290.573 336.710,290.072 337.314 C 289.590 337.894,209.529 337.863,205.689 337.281 L 204.436 337.091 204.436 334.589 C 204.436 333.213,204.687 331.486,204.994 330.752 L 205.552 329.417 233.441 329.315 C 248.780 329.259,267.699 329.172,275.484 329.120 C 284.704 329.059,289.720 329.162,289.877 329.416 " stroke="none" fill="#82cab9" fill-rule="evenodd"></path><path id="path4" d="M242.901 255.170 C 242.099 255.464,241.207 255.929,240.919 256.204 C 239.816 257.252,238.745 258.052,238.443 258.052 C 237.101 258.052,233.936 265.232,234.277 267.502 C 234.552 269.329,235.304 272.062,235.653 272.502 C 235.828 272.722,236.100 273.323,236.258 273.837 C 236.654 275.123,237.349 275.765,240.694 277.936 C 250.803 284.494,262.311 274.079,258.284 262.016 C 256.514 256.713,248.460 253.129,242.901 255.170 " stroke="none" fill="#e2cc5a" fill-rule="evenodd"></path></g></svg>