<svg id="svg" version="1.1" xmlns="http://www.w3.org/2000/svg" xmlns:xlink="http://www.w3.org/1999/xlink" width="400" height="323.07692307692304" viewBox="0, 0, 400,323.07692307692304"><g id="svgg"><path id="path0" d="M0.000 161.551 L 0.000 323.102 200.000 323.102 L 400.000 323.102 400.000 161.551 L 400.000 0.000 200.000 0.000 L 0.000 0.000 0.000 161.551 M283.204 16.164 C 283.734 16.377,284.756 16.821,285.475 17.151 C 286.195 17.481,287.692 17.983,288.802 18.268 C 291.125 18.863,292.647 19.521,294.582 20.767 C 295.333 21.252,296.103 21.648,296.293 21.648 C 296.976 21.648,304.342 28.898,304.355 29.584 C 304.359 29.774,305.001 30.881,305.781 32.045 C 306.562 33.209,307.499 34.835,307.863 35.659 C 308.228 36.483,308.716 37.160,308.948 37.164 C 309.180 37.168,317.730 37.169,327.948 37.165 C 346.908 37.159,348.185 37.232,349.348 38.395 C 349.556 38.602,349.851 38.772,350.005 38.772 C 350.982 38.772,353.767 40.467,354.458 41.482 C 354.894 42.122,355.337 42.646,355.443 42.647 C 356.168 42.656,358.320 45.979,358.320 47.091 C 358.320 47.242,358.490 47.537,358.697 47.744 C 359.946 48.993,359.925 47.623,359.931 128.773 L 359.935 206.981 359.159 208.580 C 358.732 209.459,358.090 210.832,357.733 211.632 C 356.905 213.482,354.965 215.543,353.344 216.294 C 352.651 216.615,351.777 217.235,351.401 217.672 C 349.914 219.400,350.626 219.376,302.046 219.381 C 277.404 219.384,257.012 219.474,256.731 219.582 C 255.999 219.863,256.099 220.779,257.035 222.366 C 258.285 224.486,258.729 225.511,259.348 227.708 C 259.662 228.820,260.243 230.107,260.640 230.570 C 261.352 231.398,262.134 233.246,262.502 234.967 C 262.605 235.450,262.917 236.032,263.196 236.259 C 263.475 236.486,264.170 237.126,264.741 237.681 L 265.780 238.691 273.681 238.828 C 284.630 239.019,283.775 238.071,283.622 249.830 C 283.524 257.310,283.504 257.513,282.786 258.231 L 282.051 258.966 266.954 259.216 C 258.651 259.353,239.704 259.536,224.849 259.623 L 197.840 259.781 197.017 259.018 C 195.234 257.366,195.334 238.772,197.127 238.772 C 197.311 238.772,197.679 238.554,197.946 238.288 C 198.350 237.884,199.716 237.803,206.125 237.803 L 213.819 237.803 214.401 236.914 C 214.721 236.426,215.322 235.759,215.737 235.432 C 216.677 234.691,217.322 233.467,217.627 231.846 C 217.765 231.108,218.326 230.082,218.997 229.340 C 219.621 228.648,220.376 227.325,220.674 226.400 C 221.085 225.123,221.501 224.529,222.401 223.936 C 223.134 223.453,223.587 222.898,223.588 222.482 C 223.590 222.112,223.799 221.410,224.054 220.921 C 224.309 220.432,224.490 219.998,224.456 219.956 C 224.422 219.914,200.840 219.805,172.052 219.714 L 119.709 219.548 118.299 218.795 C 117.524 218.381,116.823 217.800,116.742 217.503 C 116.661 217.206,116.008 216.689,115.290 216.354 C 114.379 215.929,113.842 215.402,113.510 214.606 C 113.248 213.979,112.572 213.013,112.009 212.460 C 109.647 210.141,109.855 218.234,109.855 128.623 C 109.855 40.531,109.714 46.661,111.766 45.458 C 112.410 45.081,112.763 44.618,112.763 44.150 C 112.763 43.102,116.585 39.155,117.844 38.903 C 118.395 38.793,118.999 38.385,119.218 37.976 C 120.121 36.290,117.449 36.365,182.225 36.189 L 242.478 36.026 243.239 34.410 C 243.658 33.522,244.249 32.504,244.553 32.149 C 244.857 31.793,245.390 30.921,245.736 30.210 C 246.082 29.499,246.738 28.554,247.193 28.110 C 247.648 27.666,248.355 26.822,248.762 26.234 C 249.170 25.647,250.091 24.796,250.808 24.343 C 251.525 23.890,252.418 23.192,252.793 22.790 C 253.167 22.389,253.795 21.960,254.189 21.836 C 254.582 21.713,255.891 21.042,257.097 20.347 C 258.303 19.651,260.598 18.705,262.197 18.245 C 263.796 17.785,265.396 17.228,265.751 17.008 C 268.042 15.585,280.289 14.993,283.204 16.164 M274.618 32.172 C 273.322 33.737,274.352 50.418,275.712 49.896 C 277.433 49.235,278.715 34.727,277.261 32.375 C 276.834 31.683,275.132 31.552,274.618 32.172 M264.318 40.389 C 263.352 40.741,262.183 41.391,261.720 41.834 C 261.258 42.277,259.804 42.978,258.491 43.391 C 256.058 44.155,253.875 46.617,254.405 47.999 C 254.594 48.492,259.810 52.019,260.350 52.019 C 261.278 52.019,263.887 53.141,264.590 53.842 C 266.004 55.251,270.001 54.798,268.718 53.374 C 268.447 53.073,268.117 52.391,267.985 51.858 C 267.671 50.592,267.176 50.250,264.459 49.418 C 260.972 48.351,260.642 47.836,262.603 46.527 C 263.268 46.082,264.176 45.387,264.620 44.981 C 265.065 44.575,266.080 43.858,266.877 43.388 C 269.464 41.862,269.670 41.546,268.580 40.769 C 267.176 39.770,266.248 39.687,264.318 40.389 M284.346 40.842 C 283.790 41.881,284.038 42.184,286.376 43.324 C 288.686 44.449,292.246 47.185,292.246 47.834 C 292.246 48.382,291.219 48.900,288.691 49.627 C 286.500 50.258,285.622 50.719,285.622 51.240 C 285.622 51.437,285.331 51.933,284.976 52.342 C 284.248 53.182,284.125 54.238,284.733 54.426 C 286.574 54.993,287.825 54.894,288.665 54.116 C 289.813 53.052,290.923 52.512,292.937 52.039 C 293.851 51.824,294.882 51.384,295.229 51.061 C 295.576 50.737,296.356 50.222,296.961 49.915 C 299.640 48.559,300.188 47.918,299.579 46.848 C 299.277 46.318,298.922 45.884,298.788 45.882 C 298.655 45.881,298.546 45.685,298.546 45.446 C 298.546 44.691,297.490 44.047,295.016 43.292 C 293.697 42.890,292.315 42.245,291.947 41.860 C 290.226 40.061,285.129 39.378,284.346 40.842 M311.066 47.199 C 310.755 47.380,310.501 47.900,310.501 48.354 C 310.501 49.570,309.651 52.638,308.750 54.675 C 308.316 55.657,307.860 56.997,307.737 57.653 C 307.614 58.310,306.895 59.673,306.141 60.683 C 305.386 61.694,304.656 62.884,304.519 63.328 C 304.234 64.250,297.425 71.082,296.791 71.082 C 296.562 71.082,295.851 71.577,295.210 72.181 C 294.541 72.811,293.044 73.653,291.692 74.159 C 290.397 74.643,289.047 75.217,288.691 75.435 C 288.057 75.824,286.744 76.154,282.876 76.900 C 277.517 77.933,266.059 76.966,261.459 75.093 C 257.203 73.361,256.497 73.004,255.763 72.218 C 255.392 71.821,254.453 71.172,253.675 70.777 C 252.897 70.382,251.952 69.741,251.575 69.354 C 251.197 68.967,250.489 68.446,250.000 68.196 C 249.511 67.946,249.111 67.651,249.111 67.540 C 249.111 67.429,248.527 66.711,247.812 65.945 C 247.097 65.178,246.129 63.767,245.660 62.809 C 245.190 61.850,244.702 61.066,244.574 61.066 C 244.269 61.066,242.649 57.751,242.649 57.128 C 242.649 56.863,242.212 55.770,241.677 54.699 C 241.114 53.574,240.536 51.696,240.305 50.248 C 239.966 48.112,239.796 47.701,239.157 47.458 C 238.166 47.081,126.881 47.099,125.256 47.476 C 124.534 47.643,123.645 48.180,123.127 48.760 C 122.637 49.309,122.091 49.758,121.912 49.758 C 120.753 49.758,120.139 160.762,121.290 162.278 C 121.696 162.813,125.186 162.843,186.578 162.843 C 243.625 162.843,251.560 162.902,252.461 163.329 C 253.360 163.756,259.321 163.805,301.450 163.733 L 349.416 163.651 349.824 162.843 C 350.258 161.986,350.469 53.233,350.041 51.093 C 349.778 49.781,347.311 47.314,345.999 47.051 C 344.243 46.700,311.686 46.838,311.066 47.199 M274.846 56.490 C 273.922 57.511,275.240 58.472,276.464 57.670 L 277.339 57.097 276.598 56.497 C 275.678 55.751,275.515 55.751,274.846 56.490 M251.771 83.144 C 252.434 83.375,253.076 83.663,253.198 83.785 C 253.320 83.907,262.228 84.024,272.994 84.045 C 295.478 84.089,294.204 83.976,295.254 86.016 C 297.428 90.242,299.514 90.157,190.307 90.253 L 129.402 90.307 128.014 89.405 C 126.241 88.253,126.119 87.882,126.950 86.167 C 127.988 84.023,128.923 83.315,131.082 83.039 C 134.709 82.575,250.426 82.675,251.771 83.144 M252.255 110.962 C 253.038 111.258,255.218 111.471,258.352 111.557 C 263.852 111.707,264.416 111.912,265.559 114.170 C 267.491 117.990,267.656 117.983,188.045 117.861 L 129.079 117.771 127.900 117.037 C 125.772 115.714,126.564 112.546,129.369 111.157 C 131.120 110.291,249.982 110.101,252.255 110.962 M251.727 138.530 C 252.715 139.037,254.448 139.115,268.659 139.285 C 277.367 139.389,284.522 139.498,284.559 139.527 C 286.402 140.964,287.036 143.156,285.912 144.204 C 285.160 144.905,285.008 144.913,268.829 145.160 C 238.895 145.617,130.843 145.782,129.349 145.373 C 126.650 144.634,125.762 142.444,127.442 140.670 C 127.632 140.469,127.992 140.009,128.242 139.647 C 128.661 139.042,130.126 138.491,132.149 138.178 C 135.454 137.665,250.707 138.005,251.727 138.530 M253.177 173.102 C 253.044 173.235,223.250 173.417,186.968 173.506 L 121.002 173.667 120.906 189.015 C 120.799 206.150,120.940 207.941,122.420 208.283 C 122.884 208.390,123.556 208.659,123.913 208.880 C 125.699 209.989,127.289 210.016,189.409 210.016 C 247.459 210.016,250.872 210.047,251.462 210.582 C 252.050 211.114,254.787 211.152,297.691 211.239 C 347.053 211.338,345.316 211.398,347.251 209.520 C 347.884 208.904,348.564 208.401,348.760 208.401 C 350.009 208.401,350.077 207.523,350.178 190.315 C 350.269 174.810,350.237 173.655,349.712 173.271 C 349.080 172.809,253.637 172.642,253.177 173.102 M244.010 182.264 C 248.133 184.368,249.875 187.389,249.875 192.436 C 249.875 196.108,247.892 200.323,246.165 200.323 C 246.034 200.323,245.728 200.505,245.486 200.727 C 243.998 202.091,241.481 203.231,239.957 203.231 C 238.548 203.231,235.894 202.482,235.554 201.989 C 235.305 201.626,232.579 199.825,231.914 199.583 C 230.780 199.170,228.633 193.048,228.963 191.165 C 229.582 187.623,230.890 185.440,233.358 183.827 C 234.023 183.393,234.568 182.935,234.570 182.810 C 234.572 182.521,236.421 181.668,237.480 181.468 C 239.027 181.174,242.768 181.631,244.010 182.264 M234.096 220.988 C 233.652 221.691,232.996 222.423,232.638 222.615 C 232.249 222.823,231.987 223.292,231.987 223.780 C 231.987 225.084,230.725 227.661,229.860 228.124 C 229.307 228.420,229.008 228.924,228.869 229.796 C 228.735 230.632,228.214 231.551,227.291 232.578 C 225.886 234.140,225.503 235.061,225.956 235.784 C 226.151 236.095,229.008 236.187,238.452 236.187 C 246.186 236.187,251.310 236.319,252.364 236.545 C 253.876 236.870,254.093 236.842,254.682 236.253 L 255.332 235.603 254.655 233.391 C 254.122 231.652,253.778 231.067,253.043 230.654 C 252.143 230.149,251.050 227.865,251.050 226.489 C 251.050 226.193,250.684 225.785,250.238 225.582 C 249.791 225.378,249.264 224.809,249.066 224.318 C 248.869 223.827,248.589 223.134,248.444 222.779 C 248.299 222.423,248.091 221.678,247.982 221.122 C 247.730 219.828,247.114 219.717,240.149 219.713 L 234.903 219.709 234.096 220.988 M251.373 245.073 C 251.022 245.495,248.004 245.557,227.812 245.557 L 204.653 245.557 204.265 246.630 C 203.570 248.554,203.751 251.009,204.604 251.206 C 205.004 251.299,216.090 251.447,229.241 251.535 C 242.391 251.623,258.149 251.773,264.258 251.869 C 277.542 252.078,276.769 252.294,276.447 248.465 C 276.334 247.132,276.155 245.715,276.048 245.315 L 275.854 244.588 263.814 244.588 C 253.507 244.588,251.718 244.658,251.373 245.073 " stroke="none" fill="#e8f4f4" fill-rule="evenodd"></path><path id="path1" d="M124.556 39.961 C 121.530 40.230,119.096 41.091,117.932 42.303 C 117.310 42.951,116.414 43.725,115.942 44.023 C 115.469 44.321,114.913 45.077,114.706 45.704 C 114.500 46.330,113.796 47.825,113.143 49.027 L 111.955 51.212 111.869 127.673 C 111.779 208.932,111.742 206.696,113.203 208.370 C 113.450 208.653,113.852 209.458,114.096 210.158 C 114.626 211.679,117.129 214.282,118.960 215.216 C 119.684 215.585,120.635 216.274,121.073 216.748 L 121.871 217.609 173.456 217.775 C 227.214 217.948,226.618 217.932,227.651 219.293 C 228.597 220.540,227.824 222.617,226.414 222.617 C 226.098 222.617,225.812 223.017,225.672 223.654 C 225.357 225.087,224.284 227.068,223.541 227.588 C 223.201 227.827,222.622 228.876,222.255 229.920 C 221.413 232.316,221.064 232.997,220.371 233.603 C 220.066 233.869,219.569 234.760,219.266 235.582 C 217.662 239.947,215.729 240.711,206.287 240.711 C 202.148 240.711,198.530 240.799,198.249 240.907 C 197.633 241.143,197.477 255.168,198.074 256.737 L 198.409 257.619 239.345 257.402 L 280.281 257.185 281.093 256.372 C 282.181 255.286,282.584 242.188,281.556 241.334 C 281.120 240.972,279.248 240.834,272.891 240.696 C 268.149 240.592,264.446 240.373,263.974 240.166 C 262.798 239.653,261.400 237.946,261.172 236.745 C 260.538 233.409,259.277 233.124,258.317 236.098 C 257.124 239.793,257.931 239.653,238.996 239.437 L 223.226 239.257 222.615 238.449 C 221.400 236.844,221.414 233.926,222.636 233.926 C 223.086 233.926,223.514 233.358,224.194 231.858 C 224.736 230.663,225.391 229.709,225.746 229.596 C 226.325 229.413,226.647 228.659,227.793 224.813 C 227.997 224.129,228.414 223.533,228.769 223.421 C 229.130 223.306,229.544 222.702,229.764 221.970 C 230.861 218.308,232.921 217.613,242.003 217.844 C 248.569 218.011,249.411 218.236,250.201 220.027 C 250.508 220.723,251.035 221.379,251.373 221.486 C 251.710 221.593,252.076 222.001,252.185 222.391 C 252.294 222.782,252.503 223.393,252.649 223.748 C 252.795 224.103,253.040 224.962,253.194 225.655 C 253.538 227.207,254.366 227.840,255.096 227.110 C 255.632 226.574,255.533 225.827,254.386 221.758 C 253.845 219.840,254.071 219.219,255.636 218.321 C 256.527 217.810,259.783 217.770,301.238 217.769 C 346.859 217.767,347.511 217.750,348.853 216.499 C 349.645 215.762,351.845 214.540,352.381 214.540 C 352.586 214.540,353.009 214.140,353.321 213.651 C 354.035 212.535,354.961 211.632,355.392 211.632 C 355.745 211.632,355.799 211.454,356.544 207.814 C 357.163 204.791,357.287 52.510,356.673 49.843 C 355.815 46.115,355.710 45.900,353.860 44.035 C 349.991 40.138,350.942 40.289,329.482 40.157 C 308.336 40.027,309.092 39.892,310.250 43.603 L 310.645 44.869 329.070 44.974 L 347.496 45.078 348.947 45.886 C 349.906 46.421,350.672 47.186,351.208 48.145 L 352.019 49.596 352.119 104.685 C 352.229 164.843,352.243 164.123,350.879 165.488 L 349.965 166.401 235.135 166.318 L 120.305 166.236 119.161 165.363 C 117.202 163.869,117.286 166.456,117.286 107.494 C 117.286 53.356,117.339 50.628,118.412 49.555 C 118.681 49.286,118.901 48.888,118.901 48.672 C 118.901 47.801,120.755 46.090,122.153 45.673 C 123.320 45.324,134.251 45.243,180.977 45.239 C 212.542 45.236,238.821 45.144,239.374 45.033 C 241.002 44.707,241.687 41.299,240.307 40.385 C 239.634 39.939,129.349 39.536,124.556 39.961 M350.070 171.380 C 352.277 172.302,352.239 171.943,352.123 190.739 C 352.040 204.198,351.931 207.756,351.579 208.401 C 350.982 209.498,348.094 212.239,347.050 212.700 C 345.047 213.584,124.708 213.118,122.779 212.225 C 121.240 211.512,119.581 209.796,118.417 207.712 L 117.447 205.977 117.355 189.855 L 117.263 173.733 118.001 172.939 C 119.487 171.341,116.496 171.415,186.914 171.242 C 337.156 170.874,348.883 170.884,350.070 171.380 M256.067 228.405 C 255.869 229.028,255.963 229.696,256.603 232.229 C 256.969 233.678,257.210 233.871,257.785 233.178 C 258.411 232.424,257.455 227.787,256.674 227.787 C 256.448 227.787,256.175 228.065,256.067 228.405 M277.246 243.594 C 278.737 245.085,278.704 251.133,277.196 252.641 L 276.202 253.635 240.228 253.635 C 196.675 253.635,200.007 254.128,200.420 247.750 C 200.778 242.222,197.182 242.681,240.332 242.664 L 276.302 242.649 277.246 243.594 " stroke="none" fill="#1f7766" fill-rule="evenodd"></path><path id="path2" d="M270.275 15.702 C 268.710 15.861,266.631 16.461,265.751 17.008 C 265.396 17.228,263.796 17.785,262.197 18.245 C 260.598 18.705,258.303 19.651,257.097 20.347 C 255.891 21.042,254.595 21.710,254.217 21.830 C 253.839 21.950,252.943 22.611,252.227 23.300 C 251.510 23.989,250.661 24.636,250.341 24.737 C 250.020 24.839,249.758 25.050,249.758 25.205 C 249.758 25.361,248.983 26.333,248.036 27.364 C 247.090 28.396,246.221 29.497,246.106 29.810 C 245.992 30.123,245.259 31.359,244.478 32.557 C 243.697 33.754,242.947 35.242,242.812 35.864 C 242.677 36.486,242.221 37.777,241.800 38.732 C 241.379 39.687,241.028 40.995,241.020 41.640 C 241.012 42.284,240.796 43.393,240.540 44.103 C 239.710 46.407,240.365 52.209,241.700 54.380 C 242.049 54.948,242.486 55.994,242.672 56.704 C 243.144 58.506,243.902 60.096,244.809 61.186 C 245.234 61.696,245.773 62.569,246.006 63.125 C 246.425 64.121,248.011 66.129,249.273 67.260 C 249.628 67.578,250.488 68.360,251.183 68.996 C 251.879 69.633,253.042 70.455,253.768 70.824 C 254.495 71.193,255.392 71.821,255.763 72.218 C 256.497 73.004,257.203 73.361,261.459 75.093 C 266.059 76.966,277.517 77.933,282.876 76.900 C 286.744 76.154,288.057 75.824,288.691 75.435 C 289.047 75.217,290.397 74.643,291.692 74.159 C 293.044 73.653,294.541 72.811,295.210 72.181 C 295.851 71.577,296.562 71.082,296.791 71.082 C 297.425 71.082,304.234 64.250,304.519 63.328 C 304.656 62.884,305.386 61.694,306.141 60.683 C 306.895 59.673,307.614 58.310,307.737 57.653 C 307.860 56.997,308.316 55.657,308.750 54.675 C 310.480 50.764,311.169 46.210,310.374 43.942 C 310.093 43.142,309.862 41.961,309.859 41.317 C 309.853 39.840,307.649 34.829,305.777 32.039 C 304.999 30.878,304.359 29.774,304.355 29.584 C 304.342 28.898,296.976 21.648,296.293 21.648 C 296.103 21.648,295.333 21.252,294.582 20.767 C 292.647 19.521,291.125 18.863,288.802 18.268 C 287.692 17.983,286.195 17.481,285.475 17.151 C 282.661 15.861,282.165 15.775,276.903 15.674 C 273.968 15.617,270.985 15.630,270.275 15.702 M277.261 32.375 C 278.715 34.727,277.433 49.235,275.712 49.896 C 274.352 50.418,273.322 33.737,274.618 32.172 C 275.132 31.552,276.834 31.683,277.261 32.375 M268.580 40.769 C 269.670 41.546,269.464 41.862,266.877 43.388 C 266.080 43.858,265.065 44.575,264.620 44.981 C 264.176 45.387,263.268 46.082,262.603 46.527 C 260.642 47.836,260.972 48.351,264.459 49.418 C 267.176 50.250,267.671 50.592,267.985 51.858 C 268.117 52.391,268.447 53.073,268.718 53.374 C 270.001 54.798,266.004 55.251,264.590 53.842 C 263.887 53.141,261.278 52.019,260.350 52.019 C 259.810 52.019,254.594 48.492,254.405 47.999 C 253.875 46.617,256.058 44.155,258.491 43.391 C 259.804 42.978,261.258 42.277,261.720 41.834 C 263.695 39.942,266.752 39.468,268.580 40.769 M289.811 40.612 C 290.617 40.913,291.578 41.475,291.947 41.860 C 292.315 42.245,293.697 42.890,295.016 43.292 C 297.490 44.047,298.546 44.691,298.546 45.446 C 298.546 45.685,298.655 45.881,298.788 45.882 C 298.922 45.884,299.277 46.318,299.579 46.848 C 300.188 47.918,299.640 48.559,296.961 49.915 C 296.356 50.222,295.576 50.737,295.229 51.061 C 294.882 51.384,293.851 51.824,292.937 52.039 C 290.923 52.512,289.813 53.052,288.665 54.116 C 287.825 54.894,286.574 54.993,284.733 54.426 C 284.125 54.238,284.248 53.182,284.976 52.342 C 285.331 51.933,285.622 51.437,285.622 51.240 C 285.622 50.719,286.500 50.258,288.691 49.627 C 291.219 48.900,292.246 48.382,292.246 47.834 C 292.246 47.185,288.686 44.449,286.376 43.324 C 281.914 41.149,284.913 38.782,289.811 40.612 M276.598 56.497 L 277.339 57.097 276.464 57.670 C 275.240 58.472,273.922 57.511,274.846 56.490 C 275.515 55.751,275.678 55.751,276.598 56.497 M235.873 182.124 C 235.256 182.393,234.455 182.926,234.093 183.310 C 233.731 183.693,232.907 184.362,232.261 184.797 C 229.750 186.487,228.511 191.346,229.703 194.830 C 231.000 198.624,231.238 198.968,233.690 200.572 C 237.669 203.175,241.903 203.759,243.619 201.942 C 243.708 201.848,244.424 201.354,245.210 200.843 C 248.638 198.619,249.758 196.479,249.758 192.149 C 249.758 187.719,249.188 186.524,245.649 183.522 C 243.349 181.571,238.678 180.903,235.873 182.124 " stroke="none" fill="#e2c84b" fill-rule="evenodd"></path><path id="path3" d="M248.788 26.171 C 248.409 26.704,248.171 27.141,248.260 27.141 C 248.349 27.141,248.732 26.704,249.111 26.171 C 249.491 25.638,249.729 25.202,249.640 25.202 C 249.551 25.202,249.168 25.638,248.788 26.171 M242.488 35.864 C 242.356 36.078,222.058 36.187,182.643 36.187 C 117.379 36.187,120.219 36.107,119.215 37.982 C 118.999 38.386,118.392 38.793,117.844 38.903 C 116.585 39.155,112.763 43.102,112.763 44.150 C 112.763 44.618,112.410 45.081,111.766 45.458 C 109.714 46.661,109.855 40.531,109.855 128.623 C 109.855 218.234,109.647 210.141,112.009 212.460 C 112.572 213.013,113.248 213.979,113.510 214.606 C 113.842 215.402,114.379 215.929,115.290 216.354 C 116.008 216.689,116.661 217.206,116.742 217.503 C 116.823 217.800,117.524 218.381,118.299 218.795 L 119.709 219.548 172.052 219.714 C 200.840 219.805,224.422 219.914,224.456 219.956 C 224.490 219.998,224.309 220.432,224.054 220.921 C 223.799 221.410,223.590 222.112,223.588 222.482 C 223.587 222.898,223.134 223.453,222.401 223.936 C 221.501 224.529,221.085 225.123,220.674 226.400 C 220.376 227.325,219.621 228.648,218.997 229.340 C 218.326 230.082,217.765 231.108,217.627 231.846 C 217.322 233.467,216.677 234.691,215.737 235.432 C 215.322 235.759,214.721 236.426,214.401 236.914 L 213.819 237.803 206.125 237.803 C 199.716 237.803,198.350 237.884,197.946 238.288 C 197.679 238.554,197.311 238.772,197.127 238.772 C 195.334 238.772,195.234 257.366,197.017 259.018 L 197.840 259.781 224.849 259.623 C 239.704 259.536,258.651 259.353,266.954 259.216 L 282.051 258.966 282.786 258.231 C 283.504 257.513,283.524 257.310,283.622 249.830 C 283.775 238.071,284.630 239.019,273.681 238.828 L 265.780 238.691 264.741 237.681 C 264.170 237.126,263.475 236.486,263.196 236.259 C 262.917 236.032,262.605 235.450,262.502 234.967 C 262.134 233.246,261.352 231.398,260.640 230.570 C 260.243 230.107,259.662 228.820,259.348 227.708 C 258.729 225.511,258.285 224.486,257.035 222.366 C 256.099 220.779,255.999 219.863,256.731 219.582 C 257.012 219.474,277.404 219.384,302.046 219.381 C 350.626 219.376,349.914 219.400,351.401 217.672 C 351.777 217.235,352.651 216.615,353.344 216.294 C 354.965 215.543,356.905 213.482,357.733 211.632 C 358.090 210.832,358.732 209.459,359.159 208.580 L 359.935 206.981 359.931 128.773 C 359.925 47.623,359.946 48.993,358.697 47.744 C 358.490 47.537,358.320 47.242,358.320 47.091 C 358.320 45.979,356.168 42.656,355.443 42.647 C 355.337 42.646,354.894 42.122,354.458 41.482 C 353.767 40.467,350.982 38.772,350.005 38.772 C 349.851 38.772,349.556 38.602,349.348 38.395 C 348.182 37.229,346.928 37.159,327.546 37.173 L 308.566 37.186 309.084 38.383 C 309.369 39.041,309.676 39.834,309.766 40.145 C 309.932 40.717,310.501 40.943,310.501 40.437 C 310.501 39.174,312.413 39.048,329.583 39.187 C 346.321 39.321,347.920 39.428,350.453 40.573 C 351.013 40.827,351.613 41.034,351.787 41.034 C 351.961 41.034,352.632 41.679,353.278 42.468 C 353.924 43.256,354.732 43.990,355.074 44.099 C 355.421 44.209,355.865 44.824,356.080 45.492 C 356.292 46.150,356.577 46.834,356.714 47.011 C 358.119 48.836,358.848 198.619,357.491 206.484 C 356.896 209.934,356.143 211.764,354.785 213.059 C 354.241 213.577,353.796 214.096,353.796 214.213 C 353.796 214.330,353.106 214.762,352.262 215.173 C 351.418 215.585,350.363 216.257,349.919 216.666 C 348.211 218.239,349.042 218.210,301.059 218.400 L 255.914 218.578 255.218 219.274 L 254.522 219.970 255.238 222.344 C 255.632 223.649,256.377 225.410,256.895 226.257 C 257.412 227.104,257.835 227.935,257.835 228.103 C 257.835 228.924,258.950 231.594,259.591 232.310 C 260.343 233.149,261.389 235.206,261.389 235.844 C 261.389 236.841,263.523 239.263,264.846 239.766 C 265.278 239.930,268.519 240.065,272.048 240.065 C 278.288 240.065,281.622 240.433,282.144 241.179 C 282.431 241.590,282.466 254.271,282.184 255.974 C 282.010 257.024,281.832 257.224,280.815 257.506 C 278.516 258.142,198.632 258.360,198.004 257.732 C 196.959 256.687,196.693 241.806,197.697 240.598 C 198.086 240.130,199.103 240.062,205.936 240.042 C 210.224 240.029,213.982 239.920,214.287 239.799 C 214.993 239.519,218.417 236.205,218.417 235.802 C 218.417 235.453,219.715 232.762,220.820 230.819 C 221.236 230.088,221.684 229.143,221.815 228.719 C 221.947 228.295,222.690 227.098,223.466 226.058 C 224.243 225.019,224.879 223.904,224.879 223.580 C 224.879 223.256,225.460 222.404,226.171 221.686 C 229.466 218.358,233.392 218.604,173.829 218.417 C 135.950 218.298,122.075 218.157,121.468 217.883 C 121.014 217.679,120.214 217.166,119.691 216.744 C 119.168 216.322,118.350 215.780,117.873 215.539 C 116.507 214.847,114.745 213.032,113.994 211.543 C 113.615 210.792,112.929 209.669,112.468 209.047 L 111.632 207.916 111.548 129.170 L 111.464 50.425 112.174 48.799 C 112.564 47.905,112.980 47.173,113.097 47.173 C 113.215 47.173,113.581 46.555,113.911 45.800 C 115.277 42.679,119.281 39.881,123.539 39.074 C 124.485 38.894,148.189 38.772,182.087 38.772 L 239.046 38.772 240.044 39.612 L 241.042 40.452 241.720 38.918 C 242.728 36.639,243.221 34.677,242.488 35.864 M310.824 45.942 L 310.824 47.011 327.544 46.914 C 336.741 46.861,344.871 46.904,345.611 47.011 C 347.257 47.247,349.727 49.524,350.041 51.093 C 350.469 53.233,350.258 161.986,349.824 162.843 L 349.416 163.651 301.450 163.733 C 259.321 163.805,253.360 163.756,252.461 163.329 C 251.560 162.902,243.625 162.843,186.578 162.843 C 125.186 162.843,121.696 162.813,121.290 162.278 C 120.139 160.762,120.753 49.758,121.912 49.758 C 122.091 49.758,122.637 49.309,123.127 48.760 C 123.645 48.180,124.534 47.643,125.256 47.476 C 126.998 47.071,238.171 47.083,239.236 47.488 C 240.039 47.793,240.065 47.764,240.065 46.519 C 240.065 45.299,239.691 44.854,239.257 45.557 C 239.125 45.771,219.569 45.881,181.645 45.882 C 120.906 45.884,122.480 45.844,120.894 47.438 C 118.120 50.228,118.219 47.861,118.324 108.909 L 118.417 162.406 119.225 163.589 C 119.669 164.239,120.250 164.883,120.517 165.019 C 120.957 165.244,154.251 165.409,300.678 165.915 C 349.070 166.082,349.177 166.081,350.010 165.426 C 351.599 164.176,351.577 165.107,351.472 105.816 L 351.373 50.242 350.646 48.767 C 350.147 47.753,349.490 47.046,348.546 46.505 L 347.173 45.719 329.402 45.557 C 319.628 45.468,311.450 45.278,311.228 45.134 C 310.933 44.944,310.824 45.163,310.824 45.942 M131.082 83.039 C 128.923 83.315,127.988 84.023,126.950 86.167 C 126.119 87.882,126.241 88.253,128.014 89.405 L 129.402 90.307 190.307 90.253 C 299.514 90.157,297.428 90.242,295.254 86.016 C 294.204 83.976,295.478 84.089,272.994 84.045 C 262.228 84.024,253.320 83.907,253.198 83.785 C 252.152 82.739,251.225 82.723,191.761 82.761 C 159.418 82.782,132.113 82.907,131.082 83.039 M292.744 86.982 C 296.882 88.490,297.942 88.471,210.931 88.502 C 123.185 88.533,128.818 88.651,130.452 86.815 C 131.171 86.007,290.521 86.171,292.744 86.982 M129.369 111.157 C 126.564 112.546,125.772 115.714,127.900 117.037 L 129.079 117.771 188.045 117.861 C 267.656 117.983,267.491 117.990,265.559 114.170 C 264.416 111.912,263.852 111.707,258.352 111.557 C 255.218 111.471,253.038 111.258,252.255 110.962 C 249.982 110.101,131.120 110.291,129.369 111.157 M258.074 114.219 C 263.462 114.414,265.253 114.972,263.403 115.880 C 262.269 116.437,130.671 116.387,130.208 115.830 C 129.673 115.185,130.541 114.151,131.778 113.958 C 133.075 113.756,252.057 114.002,258.074 114.219 M132.149 138.178 C 130.126 138.491,128.661 139.042,128.242 139.647 C 127.992 140.009,127.632 140.469,127.442 140.670 C 125.762 142.444,126.650 144.634,129.349 145.373 C 130.843 145.782,238.895 145.617,268.829 145.160 C 285.008 144.913,285.160 144.905,285.912 144.204 C 287.036 143.156,286.402 140.964,284.559 139.527 C 284.522 139.498,277.367 139.389,268.659 139.285 C 254.448 139.115,252.715 139.037,251.727 138.530 C 250.707 138.005,135.454 137.665,132.149 138.178 M282.834 142.121 C 284.208 142.469,284.908 142.986,284.524 143.371 C 283.766 144.130,130.953 144.329,130.196 143.573 C 129.587 142.964,130.385 141.904,131.584 141.730 C 133.713 141.419,281.573 141.802,282.834 142.121 M186.889 171.888 L 120.628 172.052 119.415 172.977 L 118.202 173.902 118.333 189.455 C 118.495 208.598,118.543 208.810,123.350 211.385 L 124.879 212.204 235.584 212.322 L 346.289 212.439 348.155 210.985 C 351.670 208.245,351.359 210.131,351.473 190.880 C 351.578 172.997,351.550 172.618,350.044 171.932 C 349.205 171.550,326.469 171.544,186.889 171.888 M349.712 173.271 C 350.237 173.655,350.269 174.810,350.178 190.315 C 350.077 207.523,350.009 208.401,348.760 208.401 C 348.564 208.401,347.884 208.904,347.251 209.520 C 345.316 211.398,347.053 211.338,297.691 211.239 C 254.787 211.152,252.050 211.114,251.462 210.582 C 250.872 210.047,247.459 210.016,189.409 210.016 C 127.289 210.016,125.699 209.989,123.913 208.880 C 123.556 208.659,122.884 208.390,122.420 208.283 C 120.940 207.941,120.799 206.150,120.906 189.015 L 121.002 173.667 186.968 173.506 C 223.250 173.417,253.044 173.235,253.177 173.102 C 253.637 172.642,349.080 172.809,349.712 173.271 M238.691 181.488 C 239.091 181.565,239.746 181.565,240.145 181.488 C 240.545 181.411,240.218 181.348,239.418 181.348 C 238.619 181.348,238.292 181.411,238.691 181.488 M249.839 192.407 C 249.843 193.118,249.909 193.371,249.986 192.969 C 250.063 192.567,250.061 191.985,249.980 191.676 C 249.899 191.367,249.836 191.696,249.839 192.407 M239.020 203.142 C 239.601 203.214,240.473 203.213,240.959 203.139 C 241.444 203.065,240.969 203.006,239.903 203.008 C 238.837 203.010,238.440 203.070,239.020 203.142 M234.087 218.701 C 232.442 219.125,231.770 219.639,231.198 220.910 C 230.062 223.431,229.557 224.397,229.318 224.503 C 228.972 224.656,227.464 227.907,227.464 228.499 C 227.464 228.768,226.903 229.627,226.217 230.407 C 225.532 231.187,224.861 232.189,224.726 232.633 C 224.591 233.078,224.134 233.904,223.710 234.470 C 222.785 235.706,222.765 236.101,223.575 237.157 L 224.195 237.964 238.026 238.168 C 245.634 238.280,252.393 238.476,253.048 238.605 C 255.963 239.176,257.911 236.732,256.665 234.066 C 256.255 233.189,255.914 232.235,255.908 231.946 C 255.886 230.929,254.947 229.164,253.841 228.058 C 253.218 227.434,252.564 226.348,252.363 225.602 C 252.165 224.866,251.498 223.497,250.880 222.559 C 250.263 221.622,249.758 220.695,249.758 220.500 C 249.758 218.798,238.652 217.523,234.087 218.701 M246.590 219.914 C 247.611 220.082,247.814 220.259,247.982 221.122 C 248.091 221.678,248.299 222.423,248.444 222.779 C 248.589 223.134,248.869 223.827,249.066 224.318 C 249.264 224.809,249.791 225.378,250.238 225.582 C 250.684 225.785,251.050 226.193,251.050 226.489 C 251.050 227.865,252.143 230.149,253.043 230.654 C 253.778 231.067,254.122 231.652,254.655 233.391 L 255.332 235.603 254.682 236.253 C 254.093 236.842,253.876 236.870,252.364 236.545 C 251.310 236.319,246.186 236.187,238.452 236.187 C 229.008 236.187,226.151 236.095,225.956 235.784 C 225.503 235.061,225.886 234.140,227.291 232.578 C 228.214 231.551,228.735 230.632,228.869 229.796 C 229.008 228.924,229.307 228.420,229.860 228.124 C 230.725 227.661,231.987 225.084,231.987 223.780 C 231.987 223.292,232.249 222.823,232.638 222.615 C 232.996 222.423,233.652 221.691,234.096 220.988 L 234.903 219.709 240.149 219.713 C 243.035 219.715,245.933 219.805,246.590 219.914 M228.433 243.291 C 214.188 243.388,203.770 243.584,203.393 243.762 C 202.142 244.352,201.837 244.988,201.501 247.705 C 201.107 250.884,201.202 251.131,203.233 252.218 L 204.675 252.989 240.407 252.989 L 276.139 252.989 276.842 252.241 C 278.026 250.981,277.895 244.939,276.659 243.793 L 275.774 242.973 264.301 243.048 C 257.990 243.090,241.850 243.199,228.433 243.291 M276.048 245.315 C 276.155 245.715,276.334 247.132,276.447 248.465 C 276.769 252.294,277.542 252.078,264.258 251.869 C 258.149 251.773,242.391 251.623,229.241 251.535 C 216.090 251.447,205.004 251.299,204.604 251.206 C 203.751 251.009,203.570 248.554,204.265 246.630 L 204.653 245.557 227.812 245.557 C 248.004 245.557,251.022 245.495,251.373 245.073 C 251.718 244.658,253.507 244.588,263.814 244.588 L 275.854 244.588 276.048 245.315 " stroke="none" fill="#88c8bc" fill-rule="evenodd"></path><path id="path4" d="M123.263 39.102 C 119.247 39.909,115.230 42.785,113.911 45.800 C 113.581 46.555,113.215 47.173,113.097 47.173 C 112.980 47.173,112.564 47.905,112.174 48.799 L 111.464 50.425 111.548 129.170 L 111.632 207.916 112.468 209.047 C 112.929 209.669,113.615 210.792,113.994 211.543 C 114.745 213.032,116.507 214.847,117.873 215.539 C 118.350 215.780,119.168 216.322,119.691 216.744 C 120.214 217.166,121.014 217.679,121.468 217.883 C 122.075 218.157,135.950 218.298,173.829 218.417 C 233.392 218.604,229.466 218.358,226.171 221.686 C 225.460 222.404,224.879 223.256,224.879 223.580 C 224.879 223.904,224.243 225.019,223.466 226.058 C 222.690 227.098,221.947 228.295,221.815 228.719 C 221.684 229.143,221.236 230.088,220.820 230.819 C 219.715 232.762,218.417 235.453,218.417 235.802 C 218.417 236.205,214.993 239.519,214.287 239.799 C 213.982 239.920,210.224 240.029,205.936 240.042 C 199.103 240.062,198.086 240.130,197.697 240.598 C 196.693 241.806,196.959 256.687,198.004 257.732 C 198.632 258.360,278.516 258.142,280.815 257.506 C 281.832 257.224,282.010 257.024,282.184 255.974 C 282.466 254.271,282.431 241.590,282.144 241.179 C 281.622 240.433,278.288 240.065,272.048 240.065 C 268.519 240.065,265.278 239.930,264.846 239.766 C 263.523 239.263,261.389 236.841,261.389 235.844 C 261.389 235.206,260.343 233.149,259.591 232.310 C 258.950 231.594,257.835 228.924,257.835 228.103 C 257.835 227.935,257.412 227.104,256.895 226.257 C 256.377 225.410,255.632 223.649,255.238 222.344 L 254.522 219.970 255.218 219.274 L 255.914 218.578 301.059 218.400 C 349.042 218.210,348.211 218.239,349.919 216.666 C 350.363 216.257,351.418 215.585,352.262 215.173 C 353.106 214.762,353.796 214.330,353.796 214.213 C 353.796 214.096,354.241 213.577,354.785 213.059 C 356.143 211.764,356.896 209.934,357.491 206.484 C 358.848 198.619,358.119 48.836,356.714 47.011 C 356.577 46.834,356.292 46.150,356.080 45.492 C 355.865 44.824,355.421 44.209,355.074 44.099 C 354.732 43.990,353.924 43.256,353.278 42.468 C 352.632 41.679,351.961 41.034,351.787 41.034 C 351.613 41.034,351.013 40.827,350.453 40.573 C 347.920 39.428,346.321 39.321,329.583 39.187 C 312.381 39.048,310.501 39.172,310.501 40.448 C 310.501 40.605,310.789 40.579,311.141 40.391 C 312.052 39.903,346.622 40.132,348.703 40.639 C 350.643 41.113,351.555 41.713,353.860 44.035 C 355.710 45.900,355.815 46.115,356.673 49.843 C 357.287 52.510,357.163 204.791,356.544 207.814 C 355.799 211.454,355.745 211.632,355.392 211.632 C 354.961 211.632,354.035 212.535,353.321 213.651 C 353.009 214.140,352.586 214.540,352.381 214.540 C 351.845 214.540,349.645 215.762,348.853 216.499 C 347.511 217.750,346.859 217.767,301.238 217.769 C 259.783 217.770,256.527 217.810,255.636 218.321 C 254.071 219.219,253.845 219.840,254.386 221.758 C 255.533 225.827,255.632 226.574,255.096 227.110 C 254.366 227.840,253.538 227.207,253.194 225.655 C 253.040 224.962,252.795 224.103,252.649 223.748 C 252.503 223.393,252.294 222.782,252.185 222.391 C 252.076 222.001,251.710 221.593,251.373 221.486 C 251.035 221.379,250.508 220.723,250.201 220.027 C 249.411 218.236,248.569 218.011,242.003 217.844 C 232.921 217.613,230.861 218.308,229.764 221.970 C 229.544 222.702,229.130 223.306,228.769 223.421 C 228.414 223.533,227.997 224.129,227.793 224.813 C 226.647 228.659,226.325 229.413,225.746 229.596 C 225.391 229.709,224.736 230.663,224.194 231.858 C 223.514 233.358,223.086 233.926,222.636 233.926 C 221.414 233.926,221.400 236.844,222.615 238.449 L 223.226 239.257 238.996 239.437 C 257.931 239.653,257.124 239.793,258.317 236.098 C 259.277 233.124,260.538 233.409,261.172 236.745 C 261.400 237.946,262.798 239.653,263.974 240.166 C 264.446 240.373,268.149 240.592,272.891 240.696 C 279.248 240.834,281.120 240.972,281.556 241.334 C 282.584 242.188,282.181 255.286,281.093 256.372 L 280.281 257.185 239.345 257.402 L 198.409 257.619 198.074 256.737 C 197.477 255.168,197.633 241.143,198.249 240.907 C 198.530 240.799,202.148 240.711,206.287 240.711 C 215.729 240.711,217.662 239.947,219.266 235.582 C 219.569 234.760,220.066 233.869,220.371 233.603 C 221.064 232.997,221.413 232.316,222.255 229.920 C 222.622 228.876,223.201 227.827,223.541 227.588 C 224.284 227.068,225.357 225.087,225.672 223.654 C 225.823 222.964,226.091 222.617,226.470 222.617 C 227.831 222.617,228.578 220.515,227.651 219.293 C 226.618 217.932,227.214 217.948,173.456 217.775 L 121.871 217.609 121.073 216.748 C 120.635 216.274,119.684 215.585,118.960 215.216 C 117.129 214.282,114.626 211.679,114.096 210.158 C 113.852 209.458,113.450 208.653,113.203 208.370 C 111.742 206.696,111.779 208.932,111.869 127.673 L 111.955 51.212 113.143 49.027 C 113.796 47.825,114.500 46.330,114.706 45.704 C 114.913 45.077,115.469 44.321,115.942 44.023 C 116.414 43.725,117.310 42.951,117.932 42.303 C 120.393 39.740,116.072 39.903,181.614 39.903 C 230.729 39.903,239.725 39.972,240.184 40.353 C 240.482 40.600,240.802 40.728,240.894 40.636 C 240.986 40.543,240.608 40.087,240.053 39.620 L 239.046 38.772 181.801 38.808 C 150.316 38.827,123.974 38.960,123.263 39.102 M180.937 45.248 C 148.861 45.347,122.213 45.547,121.720 45.694 C 120.803 45.965,118.901 47.978,118.901 48.677 C 118.901 48.891,118.681 49.286,118.412 49.555 C 117.339 50.628,117.286 53.356,117.286 107.494 C 117.286 166.456,117.202 163.869,119.161 165.363 L 120.305 166.236 235.135 166.318 L 349.965 166.401 350.879 165.488 C 352.243 164.123,352.229 164.843,352.119 104.685 L 352.019 49.596 351.208 48.145 C 350.672 47.185,349.907 46.421,348.947 45.887 L 347.496 45.079 329.246 44.973 C 319.208 44.915,311.114 44.986,311.259 45.132 C 311.405 45.277,319.544 45.468,329.348 45.557 L 347.173 45.719 348.546 46.505 C 349.490 47.046,350.147 47.753,350.646 48.767 L 351.373 50.242 351.472 105.816 C 351.577 165.107,351.599 164.176,350.010 165.426 C 349.177 166.081,349.070 166.082,300.678 165.915 C 154.251 165.409,120.957 165.244,120.517 165.019 C 120.250 164.883,119.669 164.239,119.225 163.589 L 118.417 162.406 118.324 108.909 C 118.219 47.861,118.120 50.228,120.894 47.438 C 122.480 45.844,120.916 45.885,181.583 45.872 C 231.496 45.861,239.015 45.798,239.561 45.386 C 239.958 45.085,240.018 44.940,239.722 44.990 C 239.466 45.033,213.013 45.149,180.937 45.248 M130.452 86.815 C 128.818 88.651,123.185 88.533,210.931 88.502 C 297.942 88.471,296.882 88.490,292.744 86.982 C 290.521 86.171,131.171 86.007,130.452 86.815 M131.778 113.958 C 130.541 114.151,129.673 115.185,130.208 115.830 C 130.671 116.387,262.269 116.437,263.403 115.880 C 265.253 114.972,263.462 114.414,258.074 114.219 C 252.057 114.002,133.075 113.756,131.778 113.958 M131.584 141.730 C 130.385 141.904,129.587 142.964,130.196 143.573 C 130.953 144.329,283.766 144.130,284.524 143.371 C 284.908 142.986,284.208 142.469,282.834 142.121 C 281.573 141.802,133.713 141.419,131.584 141.730 M186.914 171.242 C 116.496 171.415,119.487 171.341,118.001 172.939 L 117.263 173.733 117.355 189.855 L 117.447 205.977 118.417 207.712 C 119.581 209.796,121.240 211.512,122.779 212.225 C 124.708 213.118,345.047 213.584,347.050 212.700 C 348.094 212.239,350.982 209.498,351.579 208.401 C 351.931 207.756,352.040 204.198,352.123 190.739 C 352.239 171.943,352.277 172.302,350.070 171.380 C 348.883 170.884,337.156 170.874,186.914 171.242 M350.044 171.932 C 351.550 172.618,351.578 172.997,351.473 190.880 C 351.359 210.131,351.670 208.245,348.155 210.985 L 346.289 212.439 235.584 212.322 L 124.879 212.204 123.350 211.385 C 118.543 208.810,118.495 208.598,118.333 189.455 L 118.202 173.902 119.415 172.977 L 120.628 172.052 186.889 171.888 C 326.469 171.544,349.205 171.550,350.044 171.932 M248.924 219.362 C 249.383 219.792,249.758 220.305,249.758 220.500 C 249.758 220.695,250.263 221.622,250.880 222.559 C 251.498 223.497,252.165 224.866,252.363 225.602 C 252.564 226.348,253.218 227.434,253.841 228.058 C 254.947 229.164,255.886 230.929,255.908 231.946 C 255.914 232.235,256.255 233.189,256.665 234.066 C 257.911 236.732,255.963 239.176,253.048 238.605 C 252.393 238.476,245.634 238.280,238.026 238.168 L 224.195 237.964 223.575 237.157 C 222.765 236.101,222.785 235.706,223.710 234.470 C 224.134 233.904,224.591 233.078,224.726 232.633 C 224.861 232.189,225.532 231.187,226.217 230.407 C 226.903 229.627,227.464 228.768,227.464 228.499 C 227.464 227.907,228.972 224.656,229.318 224.503 C 229.557 224.397,230.062 223.431,231.198 220.910 C 232.201 218.680,233.272 218.433,241.573 218.514 C 247.985 218.577,248.104 218.591,248.924 219.362 M257.444 228.998 C 258.245 231.709,258.141 233.603,257.191 233.603 C 256.969 233.603,256.543 232.220,256.063 229.940 C 255.615 227.810,256.844 226.971,257.444 228.998 M203.099 243.128 C 200.949 243.894,200.635 244.436,200.420 247.750 C 200.007 254.128,196.675 253.635,240.228 253.635 L 276.202 253.635 277.196 252.641 C 278.704 251.133,278.737 245.085,277.246 243.594 L 276.302 242.649 240.332 242.664 C 210.434 242.675,204.149 242.754,203.099 243.128 M276.659 243.793 C 277.895 244.939,278.026 250.981,276.842 252.241 L 276.139 252.989 240.407 252.989 L 204.675 252.989 203.233 252.218 C 202.441 251.794,201.650 251.222,201.476 250.947 C 201.046 250.265,201.702 245.100,202.293 244.515 C 203.440 243.381,199.372 243.477,264.301 243.048 L 275.774 242.973 276.659 243.793 " stroke="none" fill="#34bc9c" fill-rule="evenodd"></path></g></svg>