<?xml version="1.0" standalone="no"?>
<!DOCTYPE svg PUBLIC "-//W3C//DTD SVG 20010904//EN"
 "http://www.w3.org/TR/2001/REC-SVG-20010904/DTD/svg10.dtd">
<svg version="1.0" xmlns="http://www.w3.org/2000/svg"
 width="512.000000pt" height="512.000000pt" viewBox="0 0 512.000000 512.000000"
 preserveAspectRatio="xMidYMid meet">
<metadata>
Created by potrace 1.15, written by Peter Selinger 2001-2017
</metadata>
<g transform="translate(0.000000,512.000000) scale(0.100000,-0.100000)"
fill="#000000" stroke="none">
<path d="M0 4690 l0 -430 2560 0 2560 0 0 430 0 430 -2560 0 -2560 0 0 -430z"/>
<path d="M0 2560 l0 -430 1710 0 1710 0 0 430 0 430 -1710 0 -1710 0 0 -430z"/>
<path d="M0 430 l0 -430 855 0 855 0 0 430 0 430 -855 0 -855 0 0 -430z"/>
</g>
</svg>
