<?xml version="1.0" encoding="UTF-8"?>
<svg width="131px" height="153px" viewBox="0 0 131 153" version="1.1" xmlns="http://www.w3.org/2000/svg" xmlns:xlink="http://www.w3.org/1999/xlink">
    <!-- Generator: Sketch 55.2 (78181) - https://sketchapp.com -->
    <title>Group</title>
    <desc>Created with Sketch.</desc>
    <defs>
        <linearGradient x1="49.1273797%" y1="45.7598193%" x2="50.8726203%" y2="53.5184994%" id="linearGradient-1">
            <stop stop-color="#BAE8DE" offset="0%"></stop>
            <stop stop-color="#DDFDF6" offset="100%"></stop>
        </linearGradient>
    </defs>
    <g id="Audience" stroke="none" stroke-width="1" fill="none" fill-rule="evenodd">
        <g id="Final-Empty-Contact-Audience" transform="translate(-765.000000, -225.000000)" fill-rule="nonzero">
            <g id="Group" transform="translate(765.000000, 225.000000)">
                <path d="M109,27.5231728 C112.588568,26.5077243 115.310234,26 117.164999,26 C119.019765,26 121.741431,26.5077243 125.329999,27.5231728 L126.055777,36.6622096 C122.063999,36.0980714 119.100407,35.8160025 117.164999,35.8160025 C115.229592,35.8160025 112.507926,36.0980714 109,36.6622096 L109,27.5231728 Z" id="Rectangle-64" fill="#FF0088"></path>
                <path d="M110,44.8571427 C114.41844,43.6190477 117.769504,43 120.053191,43 C122.336879,43 125.687943,43.6190477 130.106383,44.8571427 L131,56 C126.085106,55.3121693 122.43617,54.968254 120.053191,54.968254 C117.670213,54.968254 114.319149,55.3121693 110,56 L110,44.8571427 Z" id="Rectangle-64" fill="#FFD700"></path>
                <path d="M110,68.8571427 C113.576832,67.6190477 116.289598,67 118.138298,67 C119.986998,67 122.699764,67.6190477 126.276596,68.8571427 L127,80 C123.021277,79.3121693 120.067376,78.968254 118.138298,78.968254 C116.20922,78.968254 113.496454,79.3121693 110,80 L110,68.8571427 Z" id="Rectangle-64" fill="#00E9FF"></path>
                <path d="M0,34.4870318 L96,15 L96,139.478386 C81.3635108,138.935958 66.0078061,139.796821 49.9328859,142.060976 C33.8579656,144.325131 17.2136703,147.971472 0,153 L0,34.4870318 Z" id="Rectangle-62" fill="#D1EFE9"></path>
                <polygon id="Rectangle-62" fill="#D1EFE9" points="57 18.7696569 117.087582 12 117.087582 103.390368 57 107.282921"></polygon>
                <path d="M57,25.3095942 L105.167722,12 C110.197283,53.0692518 111.74484,78.3426376 109.810393,87.8201573 C107.875947,97.297677 90.2724822,103.785265 57,107.282921 L57,25.3095942 Z" id="second-sheet" fill="#A3E0D4"></path>
                <path d="M48,16.0940981 C89.5332669,9.36799652 110.2999,4.12151242 110.2999,0.354645792 C110.2999,-3.41222083 110.2999,22.8282138 110.2999,79.0759497 C111.039401,83.8811341 106.393156,88.61188 96.361166,93.2681868 C86.3291752,97.9244935 70.2087868,102.832495 48,107.992191 L48,16.0940981 Z" id="first-sheet" fill="#30BA9E"></path>
                <polygon id="Rectangle-63" fill="#0F6B58" points="32 15 49 15 49 107 32 107"></polygon>
                <path d="M12.0881086,122.069057 L12,107.779854 C11.978544,104.27677 14.9668069,101.401951 18.7213504,101.313779 L117.246782,99 L117.768068,126.855938 L19.1032155,128.462313 C15.2958539,128.524301 12.1555026,125.695656 12.0890448,122.144358 C12.0885752,122.119259 12.088263,122.094159 12.0881086,122.069057 Z" id="Rectangle" fill="url(#linearGradient-1)"></path>
                <path d="M17.3673427,19.0921465 L31.9588875,16 L31.9588875,102.00104 C26.2232978,103.331765 22.3524832,104.637448 20.3464438,105.918087 C14.6474015,109.556309 12,120.818839 12,124.311174 C12,129.523693 12,96.5411356 12,25.3635026 L12,25.3635026 C12,22.3606137 14.2279369,19.7574293 17.3673427,19.0921465 Z" id="Rectangle" fill="#30BA9E"></path>
                <path d="M97,114.046346 C102.176848,114.1456 106.047662,114.314841 108.612444,114.55407 C111.177225,114.793299 113.959373,115.244609 116.958887,115.908001 L116.958887,111 L97,114.046346 Z" id="Path-6" fill="#A3E0D4"></path>
                <path d="M82.7622465,56.8205031 C82.7579626,55.6842378 82.0202654,55.6583293 81.1394841,55.2771066 L77.0260296,53.4968341 C76.9540589,53.4662992 76.8838022,53.4339138 76.8144023,53.4006031 L76.8144023,53.3987526 C76.0835593,53.0406624 75.4383955,52.5437774 75.2010644,52.1930895 L75.1916398,52.1819863 L75.1890691,52.1764345 C75.1753606,52.1551524 75.160795,52.1310947 75.1488001,52.1098129 L75.1393755,52.0903817 L75.1368051,52.0857553 L75.128237,52.0746517 L75.128237,52.0728009 C75.018568,51.8960691 74.9080418,51.8164935 74.8146516,51.8507297 L74.8086538,51.8535056 L74.8060835,51.8544307 L74.8052267,51.8553561 L74.800086,51.8590574 L74.7966589,51.8590574 L74.7915182,51.8646092 C74.6801353,51.926604 74.7024119,51.8590574 74.6570018,51.7276651 C74.5456193,51.4019603 74.3622657,50.7838612 74.3339916,50.6941074 C74.2911522,50.5238529 74.1763421,50.9615187 74.2029027,50.4896167 L74.2508831,49.6383429 C74.3262805,49.5495145 74.3871127,49.4773411 74.4290957,49.427375 C74.6972713,49.0970438 74.7152636,48.2217123 74.8489232,48.0088939 C74.9834392,47.7960752 75.2533288,47.7507357 75.5206476,46.7560406 C75.78968,45.7641217 76.1169741,44.3456403 75.7716872,44.3215826 C75.6868648,44.3160308 75.5909043,44.3761752 75.4915167,44.4696303 C75.5523488,44.1050629 75.6808674,43.2787722 75.7091415,42.6680756 C75.7485538,41.8639921 75.6243191,39.8024291 75.2010644,39.0483113 C74.9363159,38.5764097 74.4025351,38.1082091 73.8704678,37.7436417 C73.5517414,37.5243461 73.2338718,37.3420626 72.9734073,37.2189981 C72.1980114,36.8479535 69.754443,37.0182083 68.9259256,37.2189981 C67.9834553,37.446621 67.3228695,38.0860019 66.9013284,38.8428952 C66.4797869,39.5988635 66.2921497,41.8667679 66.3289917,42.6708515 C66.3469844,43.0317176 66.5466168,43.6396382 66.5971673,44.0116078 C66.6262982,44.2049953 66.6528587,44.2068457 66.6751354,44.3447152 C66.640007,44.3289849 66.6057354,44.322508 66.574891,44.3243585 C66.2287472,44.3474911 66.5560414,45.7659722 66.824217,46.7588165 C67.0923926,47.7507357 67.361425,47.797926 67.4950846,48.0116698 C67.6296006,48.2244882 67.6493069,49.0998197 67.9174825,49.4301509 C67.9603223,49.4838183 68.0245815,49.5587672 68.10512,49.6503719 L68.157384,50.3461955 L68.247347,50.73297 C68.2062212,50.6219344 68.1239692,50.5506865 68.0862705,50.6950328 C67.9706036,51.0744047 67.85408,51.453777 67.73927,51.8331489 C67.727275,51.8137176 67.7084255,51.802614 67.6870056,51.8007635 C67.5747663,51.6943544 67.4231139,51.7859586 67.2860276,52.0339386 C67.0838248,52.4003565 66.4112437,52.9268506 65.6307068,53.3062229 L65.6195686,53.3515623 L65.6075737,53.3987526 L65.6032898,53.4181838 C65.5424573,53.4459428 65.4799116,53.4755523 65.4173658,53.5014604 L61.3047681,55.2817333 C60.4248436,55.6611052 59.6871464,55.6888642 59.6811489,56.8251298 L59,60.6937992 L83.6764427,60.6937992 L82.7596762,56.8251298 L82.7622465,56.8205031 Z" id="Shape" fill="#A3E0D4"></path>
                <polygon id="Rectangle-65" fill="#A3E0D4" points="60 64 85 64 85 65 60 65"></polygon>
            </g>
        </g>
    </g>
</svg>