<?xml version="1.0" encoding="UTF-8"?>
<svg width="123px" height="131px" viewBox="0 0 123 131" version="1.1" xmlns="http://www.w3.org/2000/svg" xmlns:xlink="http://www.w3.org/1999/xlink">
    <!-- Generator: Sketch 55.2 (78181) - https://sketchapp.com -->
    <title>empty-segment-icon</title>
    <desc>Created with Sketch.</desc>
    <g id="Audience" stroke="none" stroke-width="1" fill="none" fill-rule="evenodd">
        <g id="Final-Empty-Segment-Audience" transform="translate(-761.000000, -237.000000)">
            <g id="empty-segment-icon" transform="translate(761.000000, 237.000000)">
                <path d="M0,18.4985592 L97,0 L97,118.164265 C82.2110474,117.649351 66.6953874,118.466547 50.4530201,120.615854 C34.2106527,122.76516 17.3929793,126.226542 0,131 L0,18.4985592 Z" id="Rectangle-62" fill="#D1EFE9" fill-rule="nonzero"></path>
                <path d="M79.1177244,67.6181608 C79.1131962,66.2641843 78.3334183,66.2333117 77.4023942,65.7790457 L73.0542945,63.6576685 C72.9782184,63.6212831 72.903954,63.5826926 72.8305953,63.5429994 L72.8305953,63.5407944 C72.0580626,63.1140933 71.3760965,62.5220038 71.1252272,62.1041233 L71.115265,62.0908926 L71.1125477,62.0842771 C71.0980572,62.0589173 71.0826607,62.0302501 71.0699816,62.0048907 L71.0600194,61.9817363 L71.0573024,61.9762235 L71.0482455,61.9629925 L71.0482455,61.960787 C70.9323206,61.7501931 70.8154897,61.6553706 70.7167722,61.6961665 L70.7104322,61.6994742 L70.7077153,61.7005766 L70.7068096,61.7016793 L70.7013757,61.7060898 L70.6977531,61.7060898 L70.6923192,61.7127053 C70.5745826,61.7865785 70.59813,61.7060898 70.5501295,61.5495224 C70.4323933,61.1614118 70.2385806,60.4248833 70.2086937,60.3179325 C70.1634106,60.1150568 70.0420514,60.6365804 70.070127,60.0742609 L70.1208444,59.0598808 C70.2005428,58.9540327 70.264845,58.8680308 70.3092228,58.808491 C70.592696,58.4148675 70.6117148,57.3718203 70.7529988,57.1182254 C70.895188,56.8646301 71.1804729,56.8106035 71.4630405,55.6253223 C71.7474194,54.4433492 72.0933835,52.7530833 71.7284003,52.7244161 C71.6387393,52.7178005 71.5373049,52.7894687 71.4322479,52.90083 C71.4965501,52.4664107 71.6323998,51.4818005 71.6622867,50.7540931 C71.7039472,49.795945 71.5726258,47.3393815 71.1252272,46.4407729 C70.8453766,45.8784537 70.2811471,45.3205447 69.718729,44.8861253 C69.3818214,44.6248122 69.0458194,44.4076027 68.7704971,44.2609586 C67.95087,43.818821 65.3679123,44.0216971 64.4921336,44.2609586 C63.4959016,44.5321947 62.7976338,45.2940826 62.3520465,46.1959985 C61.9064589,47.0968122 61.7081183,49.7992528 61.7470618,50.7574008 C61.7660809,51.1874097 61.9771011,51.9118094 62.030535,52.3550493 C62.0613277,52.5854903 62.0894033,52.5876953 62.1129507,52.7519809 C62.0758185,52.7332367 62.039592,52.7255188 62.006988,52.7277238 C61.6410991,52.7552887 61.9870633,54.4455543 62.2705365,55.62863 C62.5540097,56.8106035 62.8383886,56.8668355 62.9796726,57.1215331 C63.1218618,57.3751281 63.1426923,58.4181753 63.4261655,58.8117987 C63.471449,58.875749 63.5393738,58.9650583 63.6245064,59.0742146 L63.6797517,59.9033597 L63.7748466,60.3642412 C63.7313748,60.231931 63.6444308,60.1470317 63.6045817,60.3190352 C63.4823168,60.7710957 63.3591463,61.2231566 63.2377871,61.6752172 C63.2251079,61.6520628 63.2051832,61.6388317 63.1825414,61.6366267 C63.0638996,61.5098292 62.9035965,61.6189851 62.7586903,61.9144787 C62.5449532,62.3511031 61.8340058,62.9784748 61.0089444,63.4305357 L60.9971709,63.4845623 L60.9844918,63.5407944 L60.9799635,63.5639487 C60.9156609,63.5970264 60.8495474,63.6323091 60.7834338,63.6631813 L56.4362398,65.7845589 C55.5061214,66.2366194 54.7263435,66.2696971 54.7200039,67.623674 L54,72.23359 L80.0840694,72.23359 L79.1150075,67.623674 L79.1177244,67.6181608 Z" id="Shape" fill="#000000" fill-rule="nonzero"></path>
                <path d="M92.1177244,72.6181608 C92.1131962,71.2641843 91.3334183,71.2333117 90.4023942,70.7790457 L86.0542945,68.6576685 C85.9782184,68.6212831 85.903954,68.5826926 85.8305953,68.5429994 L85.8305953,68.5407944 C85.0580626,68.1140933 84.3760965,67.5220038 84.1252272,67.1041233 L84.115265,67.0908926 L84.1125477,67.0842771 C84.0980572,67.0589173 84.0826607,67.0302501 84.0699816,67.0048907 L84.0600194,66.9817363 L84.0573024,66.9762235 L84.0482455,66.9629925 L84.0482455,66.960787 C83.9323206,66.7501931 83.8154897,66.6553706 83.7167722,66.6961665 L83.7104322,66.6994742 L83.7077153,66.7005766 L83.7068096,66.7016793 L83.7013757,66.7060898 L83.6977531,66.7060898 L83.6923192,66.7127053 C83.5745826,66.7865785 83.59813,66.7060898 83.5501295,66.5495224 C83.4323933,66.1614118 83.2385806,65.4248833 83.2086937,65.3179325 C83.1634106,65.1150568 83.0420514,65.6365804 83.070127,65.0742609 L83.1208444,64.0598808 C83.2005428,63.9540327 83.264845,63.8680308 83.3092228,63.808491 C83.592696,63.4148675 83.6117148,62.3718203 83.7529988,62.1182254 C83.895188,61.8646301 84.1804729,61.8106035 84.4630405,60.6253223 C84.7474194,59.4433492 85.0933835,57.7530833 84.7284003,57.7244161 C84.6387393,57.7178005 84.5373049,57.7894687 84.4322479,57.90083 C84.4965501,57.4664107 84.6323998,56.4818005 84.6622867,55.7540931 C84.7039472,54.795945 84.5726258,52.3393815 84.1252272,51.4407729 C83.8453766,50.8784537 83.2811471,50.3205447 82.718729,49.8861253 C82.3818214,49.6248122 82.0458194,49.4076027 81.7704971,49.2609586 C80.95087,48.818821 78.3679123,49.0216971 77.4921336,49.2609586 C76.4959016,49.5321947 75.7976338,50.2940826 75.3520465,51.1959985 C74.9064589,52.0968122 74.7081183,54.7992528 74.7470618,55.7574008 C74.7660809,56.1874097 74.9771011,56.9118094 75.030535,57.3550493 C75.0613277,57.5854903 75.0894033,57.5876953 75.1129507,57.7519809 C75.0758185,57.7332367 75.039592,57.7255188 75.006988,57.7277238 C74.6410991,57.7552887 74.9870633,59.4455543 75.2705365,60.62863 C75.5540097,61.8106035 75.8383886,61.8668355 75.9796726,62.1215331 C76.1218618,62.3751281 76.1426923,63.4181753 76.4261655,63.8117987 C76.471449,63.875749 76.5393738,63.9650583 76.6245064,64.0742146 L76.6797517,64.9033597 L76.7748466,65.3642412 C76.7313748,65.231931 76.6444308,65.1470317 76.6045817,65.3190352 C76.4823168,65.7710957 76.3591463,66.2231566 76.2377871,66.6752172 C76.2251079,66.6520628 76.2051832,66.6388317 76.1825414,66.6366267 C76.0638996,66.5098292 75.9035965,66.6189851 75.7586903,66.9144787 C75.5449532,67.3511031 74.8340058,67.9784748 74.0089444,68.4305357 L73.9971709,68.4845623 L73.9844918,68.5407944 L73.9799635,68.5639487 C73.9156609,68.5970264 73.8495474,68.6323091 73.7834338,68.6631813 L69.4362398,70.7845589 C68.5061214,71.2366194 67.7263435,71.2696971 67.7200039,72.623674 L67,77.23359 L93.0840694,77.23359 L92.1150075,72.623674 L92.1177244,72.6181608 Z" id="Shape" fill="#000000" fill-rule="nonzero"></path>
                <path d="M65.1177244,72.6181608 C65.1131962,71.2641843 64.3334183,71.2333117 63.4023942,70.7790457 L59.0542945,68.6576685 C58.9782184,68.6212831 58.903954,68.5826926 58.8305953,68.5429994 L58.8305953,68.5407944 C58.0580626,68.1140933 57.3760965,67.5220038 57.1252272,67.1041233 L57.115265,67.0908926 L57.1125477,67.0842771 C57.0980572,67.0589173 57.0826607,67.0302501 57.0699816,67.0048907 L57.0600194,66.9817363 L57.0573024,66.9762235 L57.0482455,66.9629925 L57.0482455,66.960787 C56.9323206,66.7501931 56.8154897,66.6553706 56.7167722,66.6961665 L56.7104322,66.6994742 L56.7077153,66.7005766 L56.7068096,66.7016793 L56.7013757,66.7060898 L56.6977531,66.7060898 L56.6923192,66.7127053 C56.5745826,66.7865785 56.59813,66.7060898 56.5501295,66.5495224 C56.4323933,66.1614118 56.2385806,65.4248833 56.2086937,65.3179325 C56.1634106,65.1150568 56.0420514,65.6365804 56.070127,65.0742609 L56.1208444,64.0598808 C56.2005428,63.9540327 56.264845,63.8680308 56.3092228,63.808491 C56.592696,63.4148675 56.6117148,62.3718203 56.7529988,62.1182254 C56.895188,61.8646301 57.1804729,61.8106035 57.4630405,60.6253223 C57.7474194,59.4433492 58.0933835,57.7530833 57.7284003,57.7244161 C57.6387393,57.7178005 57.5373049,57.7894687 57.4322479,57.90083 C57.4965501,57.4664107 57.6323998,56.4818005 57.6622867,55.7540931 C57.7039472,54.795945 57.5726258,52.3393815 57.1252272,51.4407729 C56.8453766,50.8784537 56.2811471,50.3205447 55.718729,49.8861253 C55.3818214,49.6248122 55.0458194,49.4076027 54.7704971,49.2609586 C53.95087,48.818821 51.3679123,49.0216971 50.4921336,49.2609586 C49.4959016,49.5321947 48.7976338,50.2940826 48.3520465,51.1959985 C47.9064589,52.0968122 47.7081183,54.7992528 47.7470618,55.7574008 C47.7660809,56.1874097 47.9771011,56.9118094 48.030535,57.3550493 C48.0613277,57.5854903 48.0894033,57.5876953 48.1129507,57.7519809 C48.0758185,57.7332367 48.039592,57.7255188 48.006988,57.7277238 C47.6410991,57.7552887 47.9870633,59.4455543 48.2705365,60.62863 C48.5540097,61.8106035 48.8383886,61.8668355 48.9796726,62.1215331 C49.1218618,62.3751281 49.1426923,63.4181753 49.4261655,63.8117987 C49.471449,63.875749 49.5393738,63.9650583 49.6245064,64.0742146 L49.6797517,64.9033597 L49.7748466,65.3642412 C49.7313748,65.231931 49.6444308,65.1470317 49.6045817,65.3190352 C49.4823168,65.7710957 49.3591463,66.2231566 49.2377871,66.6752172 C49.2251079,66.6520628 49.2051832,66.6388317 49.1825414,66.6366267 C49.0638996,66.5098292 48.9035965,66.6189851 48.7586903,66.9144787 C48.5449532,67.3511031 47.8340058,67.9784748 47.0089444,68.4305357 L46.9971709,68.4845623 L46.9844918,68.5407944 L46.9799635,68.5639487 C46.9156609,68.5970264 46.8495474,68.6323091 46.7834338,68.6631813 L42.4362398,70.7845589 C41.5061214,71.2366194 40.7263435,71.2696971 40.7200039,72.623674 L40,77.23359 L66.0840694,77.23359 L65.1150075,72.623674 L65.1177244,72.6181608 Z" id="Shape" fill="#000000" fill-rule="nonzero"></path>
                <ellipse id="Oval" stroke="#0F6B58" stroke-width="4" stroke-linecap="round" stroke-linejoin="round" cx="66" cy="61.5" rx="43" ry="39.5"></ellipse>
                <path d="M68,14 L68,31" id="Shape" stroke="#30BA9E" stroke-width="4" stroke-linecap="round" stroke-linejoin="round"></path>
                <path d="M35,61 L15,61" id="Shape" stroke="#30BA9E" stroke-width="4" stroke-linecap="round" stroke-linejoin="round"></path>
                <path d="M68,93 L68,110" id="Shape" stroke="#30BA9E" stroke-width="4" stroke-linecap="round" stroke-linejoin="round"></path>
                <path d="M101,61 L121,61" id="Shape" stroke="#30BA9E" stroke-width="4" stroke-linecap="round" stroke-linejoin="round"></path>
            </g>
        </g>
    </g>
</svg>