<?xml version="1.0" ?><svg id="Layer_1" style="enable-background:new 0 0 30 40;" version="1.1" viewBox="0 0 30 40" xml:space="preserve" xmlns="http://www.w3.org/2000/svg" xmlns:xlink="http://www.w3.org/1999/xlink"><style type="text/css">
	.st0{fill:#5EA3D7;}
	.st1{fill:#D8D2D2;}
</style><g><path class="st0" d="M13.9750061,2.0249939v5.7400513c-3.2199707,0.4400024-5.7700195,2.9899902-6.210022,6.2099609H2.0249939   C2.5149841,7.605011,7.605011,2.5150452,13.9750061,2.0249939z"/><path class="st1" d="M15.9736023,7.7616882c3.5464478,0.4894409,6.2814331,3.53302,6.2814331,7.2133179   c0,1.3876343-0.3973999,2.6819458-1.0745239,3.7875366l4.1594238,4.0234985   c1.6463013-2.1786499,2.6350708-4.8796387,2.6350708-7.8110352c0-6.8328857-5.2980347-12.4365234-12.0014038-12.9494629V7.7616882z   "/><path class="st1" d="M19.9082336,20.3137512c-1.2977905,1.2003784-3.0273438,1.9412842-4.9332275,1.9412842   c-3.6803589,0-6.723877-2.7433472-7.2133179-6.2835083H2.0254822c0.5125122,6.6959839,6.116333,12.003479,12.9495239,12.003479   c3.5151367,0,6.7027588-1.4094238,9.0447388-3.684082L19.9082336,20.3137512z"/></g></svg>