<?xml version="1.0" encoding="UTF-8"?>
<svg width="151px" height="137px" viewBox="0 0 151 137" version="1.1" xmlns="http://www.w3.org/2000/svg" xmlns:xlink="http://www.w3.org/1999/xlink">
    <!-- Generator: Sketch 51.3 (57544) - http://www.bohemiancoding.com/sketch -->
    <title>cl_source_empty</title>
    <desc>Created with Sketch.</desc>
    <defs></defs>
    <g id="Webhook" stroke="none" stroke-width="1" fill="none" fill-rule="evenodd">
        <g id="empty-Sources-screen-v1-1" transform="translate(-639.000000, -468.000000)">
            <g id="cl_source_empty" transform="translate(639.000000, 469.000000)">
                <path d="M0,23.4985592 L97,5 L97,123.164265 C82.2110474,122.649351 66.6953874,123.466547 50.4530201,125.615854 C34.2106527,127.76516 17.3929793,131.226542 0,136 L0,23.4985592 Z" id="Rectangle-62" fill="#E0E5FC" fill-rule="nonzero"></path>
                <rect id="Rectangle-103" stroke="#6983F3" stroke-width="2" x="24" y="12" width="126" height="89" rx="5"></rect>
                <path d="M24,80 L150,80" id="Line-10" stroke="#6983F3" stroke-width="2" stroke-linecap="square"></path>
                <ellipse id="Oval-3" fill="#FF0088" cx="85.5" cy="91" rx="5.5" ry="5"></ellipse>
                <polygon id="Path-11" stroke="#6983F3" stroke-width="2" points="80.5714286 101 72 113 100 113 93.5 101"></polygon>
                <path d="M97.1014741,41 C94.9933722,41 93.0114273,41.7795139 91.5505656,43.1631944 L88.9981716,45.4895833 L86.4841732,43.1979167 C84.9940578,41.7795139 83.0084562,41 80.8985259,41 C78.7885956,41 76.8048223,41.7829861 75.3165353,43.1979167 C73.8227631,44.6145833 73,46.4965278 73,48.5017361 C73,50.5017361 73.8209348,52.3871528 75.3147069,53.8020833 C76.8029939,55.21875 78.7867672,56 80.8985259,56 C83.0066278,56 84.9922295,55.2204861 86.4494344,53.8333333 L89,51.5104167 L91.5158268,53.8020833 C93.0059422,55.21875 94.9915438,56 97.1014741,56 C99.2114044,56 101.193349,55.2204861 102.683465,53.8020833 C104.177237,52.3888889 105,50.5034722 105,48.4982639 C105,46.4930556 104.179065,44.6128472 102.685293,43.1944444 C101.191521,41.7795139 99.209576,41 97.1014741,41 Z M83.5883015,50.1449876 C82.351856,51.2850041 80.1975253,51.2850041 78.9592801,50.1449876 C78.3401575,49.5749793 78,48.8177299 78,48.0157415 C78,47.2104391 78.3401575,46.4565037 78.9628796,45.8831814 C79.5784027,45.3131732 80.4008999,45 81.2737908,45 C82.1466817,45 82.9691789,45.3131732 83.6224972,45.9130075 L86,48.0173985 L83.5883015,50.1449876 Z M99.0389201,50.1348428 C97.8024747,51.2800743 95.6805399,51.3066689 94.3775028,50.1049239 L92,47.9939747 L94.4098988,45.858093 C95.648144,44.7145237 97.8042745,44.7145237 99.0407199,45.8547687 C99.6598425,46.4298777 100,47.1861626 100,47.9939747 C100,48.8017867 99.6580427,49.5630582 99.0389201,50.1348428 Z" id="Shape" fill="#2C50EE" fill-rule="nonzero"></path>
                <circle id="Oval" stroke="#2C50EE" stroke-width="2" fill="#2C50EE" cx="133" cy="12" r="12"></circle>
                <path d="M139.05934,8.06825203 L130.581199,15.887767 L127.879655,13.482142 C127.676567,13.3009828 127.350681,13.3009828 127.152316,13.482142 C126.949228,13.6633011 126.949228,13.9539983 127.152316,14.1309445 L130.21753,16.8651839 C130.316712,16.953657 130.448955,17 130.581199,17 C130.713442,17 130.845686,16.953657 130.944868,16.8651839 L139.847684,8.92367197 C140.050772,8.74251281 140.050772,8.45181556 139.847684,8.2748694 C139.644596,8.09371024 139.257705,7.89130588 139.05934,8.06825203 Z" id="Shape" fill="#FFFFFF" fill-rule="nonzero"></path>
            </g>
        </g>
    </g>
</svg>